SplineFontDB: 3.0
FontName: AyannaNarrowBeta
FullName: AyannaNarrowBeta
FamilyName: AyannaNarrowBeta
Weight: Regular
Copyright: Copyright (c) 2015, Pathum,,,
UComments: "2015-3-5: Created with FontForge (http://fontforge.org)"
Version: pre
ItalicAngle: 0
UnderlinePosition: 0
UnderlineWidth: 0
Ascent: 819
Descent: 205
InvalidEm: 0
LayerCount: 4
Layer: 0 0 "Back" 1
Layer: 1 0 "Fore" 0
Layer: 2 0 "Back 2" 1
Layer: 3 0 "Back 3" 1
XUID: [1021 417 1726274797 7187508]
OS2Version: 0
OS2_WeightWidthSlopeOnly: 0
OS2_UseTypoMetrics: 1
CreationTime: 1425560291
ModificationTime: 1445782920
OS2TypoAscent: 0
OS2TypoAOffset: 1
OS2TypoDescent: 0
OS2TypoDOffset: 1
OS2TypoLinegap: 0
OS2WinAscent: 0
OS2WinAOffset: 1
OS2WinDescent: 0
OS2WinDOffset: 1
HheadAscent: 0
HheadAOffset: 1
HheadDescent: 0
HheadDOffset: 1
OS2Vendor: 'PfEd'
MarkAttachClasses: 1
DEI: 91125
Encoding: sinhala_abhaya
UnicodeInterp: none
NameList: sinhala
DisplaySize: -48
AntiAlias: 1
FitToEm: 1
WinInfo: 286 13 10
BeginPrivate: 0
EndPrivate
Grid
-1024 354 m 0
 2048 354 l 1024
293.833557129 1331 m 0
 293.833557129 -717 l 1024
-1024 594 m 0
 2048 594 l 1024
-1024 1584.5 m 0
 2048 1584.5 l 1024
-1024 79 m 0
 2048 79 l 1024
-1024 496 m 0
 2048 496 l 1024
-1024 -89 m 0
 2048 -89 l 1024
-1024 369 m 0
 2048 369 l 1024
-1024 405 m 0
 2048 405 l 1024
-1024 591 m 0
 2048 591 l 1024
-1024 811 m 0
 2048 811 l 1024
-1024 527 m 0
 2048 527 l 1024
-1024 749 m 0
 2048 749 l 1024
-1024 819 m 0
 2048 819 l 1024
-1024 115 m 0
 2048 115 l 1024
-1024 3 m 0
 2048 3 l 1024
EndSplineSet
BeginChars: 65538 505

StartChar: si_Tta
Encoding: 34 3495 0
Width: 514
VWidth: 0
Flags: HMW
LayerCount: 4
Fore
SplineSet
33 235 m 4
 33 371.176757812 102.645507812 446.538085938 179 446.538085938 c 4
 197.904296875 446.538085938 216.248046875 441.799804688 236 432 c 5
 220 400 l 5
 205.791992188 407.103515625 192.59765625 410.538085938 179 410.538085938 c 4
 119.861328125 410.538085938 70 345.575195312 70 235 c 4
 70 145.521484375 119.591796875 40 242 40 c 4
 369.865234375 40 443 150.518554688 443 354 c 4
 443 634.014648438 352.22265625 712 241 712 c 4
 170.127929688 712 112.32421875 665.926757812 89 605 c 5
 55 618 l 5
 93 716 180.967773438 749 241 749 c 4
 373.145507812 749 481 662.955078125 481 354 c 4
 481 126.541015625 394.0390625 3 242 3 c 4
 93.259765625 3 33 128.543945312 33 235 c 4
EndSplineSet
Layer: 2
SplineSet
11.8544921875 252.396484375 m 1
 11.8544921875 381.538085938 78.8544921875 472 176.547851562 472 c 0
 204.314453125 472 233.345703125 465.063476562 261.719726562 445.2578125 c 1
 223.854492188 345 l 1
 210.006835938 352.98828125 197.3359375 356.607421875 185.990234375 356.607421875 c 0
 145.473632812 356.607421875 121.854492188 310.458984375 121.854492188 252.395507812 c 0
 121.854492188 189.243164062 149.080078125 114.999023438 242 114.999023438 c 0
 346.452148438 114.999023438 387 195.016601562 387 353.999023438 c 0
 387 582.999023438 315.6796875 639.999023438 232.854492188 639.999023438 c 0
 191.750976562 639.999023438 151.666015625 618.958984375 134.610351562 576.854492188 c 1
 25.578125 613.028320312 l 1
 61.5625 707.8671875 146.133789062 755 232.854492188 755 c 0
 372.326171875 755 503 675.859375 503 354 c 0
 503 118 422 0 242 0 c 0
 64 0 11.8544921875 136.286132812 11.8544921875 252.395507812 c 1
 11.8544921875 252.396484375 l 1
EndSplineSet
EndChar

StartChar: si_Sa
Encoding: 58 3523 1
Width: 581
VWidth: 0
Flags: HW
LayerCount: 4
Fore
SplineSet
278.721679688 454 m 4
 278.721679688 466.185546875 279.7265625 477.512695312 281.616210938 488 c 4
 294.3125 558.491210938 346.970703125 591 403.166992188 591 c 4
 459.873046875 591 519.475585938 553 519.475585938 474 c 4
 519.475585938 429.732421875 499.158203125 385.565429688 467.611328125 361 c 5
 441.611328125 382 l 5
 468.611328125 402 486 437.958984375 486 474 c 4
 486 530.04296875 443.551757812 557 403.166992188 557 c 4
 354.8046875 557 312.72265625 524.74609375 312.72265625 454 c 4
 312.72265625 435 312.72265625 416 312.72265625 402 c 5
 295.72265625 369 l 5
 286.005859375 397.663085938 278.721679688 421.383789062 278.721679688 454 c 4
79.744140625 194.102539062 m 4
 79.744140625 107.481445312 111.698242188 40 177.72265625 40 c 4
 268.888671875 40 275.48046875 148.885742188 278.72265625 224.5 c 5
 312.72265625 224.5 l 5
 315.96484375 148.885742188 322.556640625 40 413.72265625 40 c 4
 479.747070312 40 511.701171875 107.481445312 511.701171875 194.102539062 c 4
 511.701171875 252 500.571289062 369 416.72265625 369 c 6
 190.572265625 369 l 6
 92.796875 369 79.744140625 251.71484375 79.744140625 194.102539062 c 4
42.744140625 194.102539062 m 4
 42.744140625 263 62.72265625 342 96.72265625 369 c 5
 33 369 l 5
 33 405 l 5
 418.572265625 405 l 6
 448.745117188 405 472.31640625 394.708007812 490.590820312 378 c 4
 536.000976562 336.482421875 548.701171875 255.3515625 548.701171875 194.102539062 c 4
 548.701171875 86.68359375 504.6796875 3 413.72265625 3 c 4
 318.556640625 3 299.556640625 85 295.72265625 115 c 5
 291.888671875 85 272.888671875 3 177.72265625 3 c 4
 86.765625 3 42.744140625 86.68359375 42.744140625 194.102539062 c 4
71.9697265625 474 m 4
 71.9697265625 553 131.572265625 591 188.278320312 591 c 4
 244.474609375 591 297.133789062 558.491210938 309.830078125 488 c 4
 311.71875 477.512695312 312.723632812 466.185546875 312.723632812 454 c 4
 312.723632812 421.383789062 305.439453125 397.663085938 295.72265625 369 c 5
 278.72265625 402 l 5
 278.72265625 416 278.72265625 435 278.72265625 454 c 4
 278.72265625 524.74609375 236.640625 557 188.278320312 557 c 4
 147.892578125 557 105.4453125 530.04296875 105.4453125 474 c 4
 105.4453125 432 124.4453125 406 134.4453125 396 c 5
 112.4453125 376 l 5
 100.4453125 387 71.9697265625 419 71.9697265625 474 c 4
EndSplineSet
Layer: 2
SplineSet
354.485351562 391.436523438 m 5
 264.485351562 319.436523438 l 5
 252.485351562 358.436523438 245.536132812 396.735351562 245.536132812 428 c 4
 245.536132812 537.3359375 316.930664062 594 393.920898438 594 c 4
 480.48046875 594 532.580078125 532.13671875 532.580078125 456.407226562 c 4
 532.580078125 428.604492188 521.794921875 395.643554688 502.485351562 370.436523438 c 5
 424.485351562 410.436523438 l 5
 432.46875 419.560546875 439.104492188 439.108398438 439.104492188 451.1640625 c 4
 439.104492188 475 423.276367188 496 393.920898438 496 c 4
 365.39453125 496 343.165039062 471.944335938 343.165039062 434.311523438 c 4
 343.165039062 428.6484375 343.66796875 422.678710938 344.729492188 416.436523438 c 6
 354.485351562 391.436523438 l 5
195.049804688 594 m 5
 272.040039062 594 343.434570312 537.3359375 343.434570312 428 c 4
 343.434570312 396.735351562 336.485351562 357.436523438 324.485351562 318.436523438 c 5
 244.241210938 416.436523438 l 5
 245.302734375 422.678710938 245.805664062 428.6484375 245.805664062 434.311523438 c 4
 245.805664062 471.944335938 221.9609375 496.000976562 193.434570312 496.000976562 c 4
 149.5546875 496.000976562 141.07421875 443.840820312 165.434570312 413.436523438 c 5
 89.7236328125 375.436523438 l 5
 68.697265625 403.236328125 59.4345703125 433.094726562 59.4345703125 461.536132812 c 4
 59.4345703125 532.131835938 107.434570312 594.000976562 195.049804688 594.000976562 c 5
 195.049804688 594 l 5
346.241210938 416 m 5
 410.485351562 416 l 6
 451.485351562 416 487.396484375 393.5234375 511.485351562 368.23828125 c 4
 545.3125 332.731445312 560.442382812 278.352539062 560.442382812 207 c 4
 560.442382812 95.0966796875 515.573242188 0 403.959960938 0 c 4
 351.280273438 0 311.868164062 31.6025390625 295.72265625 79.0302734375 c 5
 279.577148438 31.6025390625 240.165039062 0 187.486328125 0 c 4
 75.873046875 0 31.00390625 95.095703125 31.00390625 207 c 4
 31.00390625 248.30078125 42.486328125 294 56.486328125 319.563476562 c 5
 15.669921875 319.666992188 l 5
 15.669921875 416 l 5
 251.2421875 416 l 5
 346.2421875 416 l 5
 346.241210938 416 l 5
393.204101562 318 m 6
 198.241210938 318 l 6
 157.485351562 318 138.002929688 258.08984375 138.002929688 207 c 4
 138.002929688 157.264648438 152.19140625 115 187.485351562 115 c 4
 234.185546875 115 250.116210938 176.75 250.116210938 249.5 c 5
 341.329101562 249.5 l 5
 341.329101562 176.75 357.259765625 115 403.959960938 115 c 4
 439.25390625 115 453.442382812 157.264648438 453.442382812 207 c 4
 453.442382812 258.725585938 433.485351562 318 393.204101562 318 c 6
EndSplineSet
Layer: 3
SplineSet
1033.4921875 402 m 1
 1033.4921875 368 l 1
 990.4375 368 920.4375 368 920.4375 368 c 1
 911.4375 397 904.690429688 421 904.690429688 454 c 0
 904.690429688 548.098632812 965.979492188 591 1020.4375 591 c 0
 1080.69335938 591 1134.4375 547.701171875 1134.4375 474 c 0
 1134.4375 419 1105.96191406 387 1093.96191406 376 c 1
 1071.96191406 396 l 1
 1081.96191406 406 1100.96191406 432 1100.96191406 474 c 0
 1100.96191406 530.225585938 1065.39453125 557 1020.4375 557 c 0
 967.672851562 557 938.690429688 511 938.690429688 454 c 0
 938.690429688 435 938.690429688 415 938.690429688 402 c 1
 962.4921875 402 1009.21191406 402 1033.4921875 402 c 1
809.888671875 402 m 1
 834.168945312 402 880.888671875 402 904.690429688 402 c 1
 904.690429688 416 904.690429688 435 904.690429688 454 c 0
 904.690429688 511 875.708007812 557 822.943359375 557 c 0
 777.986328125 557 742.418945312 530.225585938 742.418945312 474 c 0
 742.418945312 432 761.418945312 406 771.418945312 396 c 1
 749.418945312 376 l 1
 737.418945312 387 708.943359375 419 708.943359375 474 c 0
 708.943359375 547.701171875 762.6875 591 822.943359375 591 c 0
 877.401367188 591 938.690429688 548.098632812 938.690429688 454 c 0
 938.690429688 421 931.943359375 397 922.943359375 368 c 1
 922.943359375 368 852.943359375 368 809.888671875 368 c 1
 809.888671875 402 l 1
1173.39160156 194.102539062 m 0
 1173.39160156 86.68359375 1130.37011719 3 1039.41308594 3 c 0
 956.135742188 3 930.690429688 74 920.413085938 125 c 1
 909.690429688 74 884.690429688 3 801.413085938 3 c 0
 710.456054688 3 667.434570312 86.68359375 667.434570312 194.102539062 c 0
 667.434570312 254.91796875 683.434570312 334.442382812 715.630859375 365 c 1
 657.690429688 368 l 1
 657.690429688 405 l 1
 1036.50683594 402 l 2
 1131.40527344 401.248046875 1173.39160156 311.536132812 1173.39160156 194.102539062 c 0
1136.39160156 194.102539062 m 0
 1136.39160156 250.852539062 1122.69042969 363 1025.56347656 363 c 2
 815.262695312 363 l 0
 717.487304688 363 704.434570312 250.397460938 704.434570312 194.102539062 c 0
 704.434570312 96 736.978515625 38 799.135742188 38 c 0
 884.413085938 38 898.096679688 148.885742188 901.413085938 224.5 c 1
 939.690429688 224.5 l 1
 943.006835938 148.885742188 956.690429688 38 1041.69042969 38 c 0
 1103.84765625 38 1136.39160156 96 1136.39160156 194.102539062 c 0
405.888671875 557 m 0
 355.329101562 557 320.888671875 515.752929688 320.888671875 465 c 0
 320.888671875 439.122070312 321.943359375 410.038085938 323.888671875 389.038085938 c 1
 292.888671875 370.038085938 l 1
 286.702148438 402.045898438 283.888671875 434.590820312 283.888671875 465 c 0
 283.888671875 534.509765625 333.3203125 591 405.888671875 591 c 0
 540.458007812 591 553.748046875 428.734375 476.888671875 359 c 1
 449.888671875 379 l 1
 504.3359375 428.2265625 509.663085938 557 405.888671875 557 c 0
198.888671875 557 m 0
 95.1142578125 557 100.44140625 428.2265625 154.888671875 379 c 1
 127.888671875 359 l 1
 51.029296875 428.734375 64.3193359375 591 198.888671875 591 c 0
 271.45703125 591 320.888671875 534.509765625 320.888671875 465 c 0
 320.888671875 434.590820312 318.075195312 402.045898438 311.888671875 370.038085938 c 1
 280.888671875 389.038085938 l 1
 282.833984375 410.038085938 283.888671875 439.122070312 283.888671875 465 c 0
 283.888671875 515.752929688 249.448242188 557 198.888671875 557 c 0
555.58984375 194.102539062 m 0
 555.58984375 86.68359375 512.568359375 3 421.611328125 3 c 0
 338.333984375 3 312.888671875 74 302.611328125 125 c 1
 291.888671875 74 266.888671875 3 183.611328125 3 c 0
 92.654296875 3 49.6328125 86.68359375 49.6328125 194.102539062 c 0
 49.6328125 254.91796875 65.6328125 334.442382812 97.8291015625 365 c 1
 49.3896484375 365 l 1
 49.3896484375 402 l 1
 418.705078125 402 l 2
 513.609375 402 555.58984375 311.536132812 555.58984375 194.102539062 c 0
518.58984375 194.102539062 m 0
 518.58984375 250.852539062 504.888671875 363 407.76171875 363 c 2
 197.4609375 363 l 0
 99.685546875 363 86.6328125 250.397460938 86.6328125 194.102539062 c 0
 86.6328125 96 119.176757812 38 181.333984375 38 c 0
 266.611328125 38 280.294921875 148.885742188 283.611328125 224.5 c 1
 321.888671875 224.5 l 1
 325.205078125 148.885742188 338.888671875 38 423.888671875 38 c 0
 486.045898438 38 518.58984375 96 518.58984375 194.102539062 c 0
EndSplineSet
EndChar

StartChar: si_La
Encoding: 54 3517 2
Width: 569
VWidth: 0
Flags: HW
LayerCount: 4
Fore
SplineSet
33 208 m 0
 33 411.56640625 105.93359375 591 298.279296875 591 c 0
 461.80078125 591 536.4453125 451.985351562 536.4453125 332 c 0
 536.4453125 201.864257812 483.44921875 100 368.4453125 100 c 0
 282.4453125 100 243.4453125 166.72265625 243.4453125 228 c 0
 243.4453125 272.068359375 265.116210938 313.815429688 308.319335938 335 c 1
 213.4453125 335.004882812 l 1
 213.4453125 369.393554688 l 1
 374.4453125 369.393554688 l 1
 374.4453125 332.393554688 l 1
 308.064453125 319.016601562 280.4453125 270.135742188 280.4453125 228 c 0
 280.4453125 177.299804688 321.2734375 137 368.4453125 137 c 0
 475.669921875 137 499.4453125 243.14453125 499.4453125 332 c 0
 499.4453125 455.41796875 413.704101562 554 298.279296875 554 c 0
 139.4453125 554 70 385 70 208 c 0
 70 13 149.477539062 -112 294.279296875 -112 c 0
 411.279296875 -112 473.954101562 -34.6640625 492.279296875 37 c 1
 527.279296875 31 l 1
 505.71484375 -55.57421875 440.279296875 -149 294.279296875 -149 c 0
 117.453125 -149 33 0.27734375 33 208 c 0
EndSplineSet
Layer: 2
SplineSet
298.279296875 479 m 5
 169.4140625 479 122.5 352.634765625 122.5 208 c 4
 122.5 65.4228515625 188.174804688 -39 294.279296875 -39 c 4
 369.427734375 -39 422.015625 9.4287109375 430.842773438 73 c 5
 544.279296875 57 l 5
 531.944335938 -57.1005859375 441.36328125 -154 294.279296875 -154 c 4
 98.17578125 -154 7.5 6 7.5 208 c 4
 7.5 403.26953125 84.3955078125 594 298.279296875 594 c 4
 470.78125 594 549.279296875 451 549.279296875 332 c 4
 549.279296875 195 486.087890625 88 369.279296875 88 c 4
 204.58203125 88 189.876953125 237.893554688 230.071289062 299.893554688 c 5
 187.071289062 299.893554688 l 5
 188.071289062 394.893554688 l 5
 383.071289062 394.893554688 l 5
 383.071289062 299.893554688 l 5
 335.071289062 299.893554688 317.279296875 269.705078125 317.279296875 242.063476562 c 4
 317.279296875 218.723632812 338.69140625 197.200195312 367.279296875 197.200195312 c 4
 417.279296875 197.200195312 435.279296875 262 435.279296875 332.000976562 c 4
 435.279296875 427.026367188 389.927734375 479.000976562 298.279296875 479.000976562 c 5
 298.279296875 479 l 5
EndSplineSet
EndChar

StartChar: si_Ddha
Encoding: 37 3498 3
Width: 562
VWidth: 0
Flags: HW
LayerCount: 4
Fore
SplineSet
299.254882812 603 m 4
 299.254882812 667.297851562 341.73828125 706.649414062 341.73828125 740.684570312 c 4
 341.73828125 754.21875 335.020507812 766.912109375 316.243164062 780 c 5
 316.243164062 780 379.852539062 761 379.852539062 761 c 5
 377.5078125 749.58984375 373.952148438 726.290039062 373.952148438 726.290039062 c 5
 373.952148438 693.052734375 335.243164062 661.163085938 335.243164062 603 c 4
 335.243164062 561.561523438 376.989257812 524.958984375 440.211914062 524.958984375 c 4
 448.668945312 524.958984375 457.509765625 525.614257812 466.686523438 527 c 5
 489.852539062 522 l 5
 474.686523438 494 l 5
 462.438476562 492.012695312 450.639648438 491.073242188 439.352539062 491.073242188 c 4
 354.971679688 491.073242188 299.254882812 543.567382812 299.254882812 603 c 4
33.2431640625 179.102539062 m 4
 33.2431640625 248 53.2216796875 327 87.2216796875 354 c 5
 33 354 l 5
 33 389 l 5
 310.283203125 389 l 5
 318.006835938 354 l 5
 181.071289062 354 l 6
 83.2958984375 354 70.2431640625 236.71484375 70.2431640625 179.102539062 c 4
 70.2431640625 101.944335938 94.6435546875 40 156.686523438 40 c 4
 247.852539062 40 254.444335938 148.885742188 257.686523438 224.5 c 5
 291.686523438 224.5 l 5
 294.928710938 148.885742188 301.520507812 40 392.686523438 40 c 4
 485.419921875 40 492.243164062 164 492.243164062 293 c 4
 492.243164062 382.18359375 482.970703125 458.762695312 466.711914062 524 c 5
 445.534179688 608.981445312 412.501953125 674.717773438 372.672851562 724 c 5
 355.047851562 745.807617188 336.091796875 764.393554688 316.243164062 780 c 5
 339.243164062 807 l 5
 401.79296875 758.918945312 456.12890625 684.03515625 490.486328125 576 c 4
 514.915039062 499.186523438 529.243164062 405.61328125 529.243164062 293 c 4
 529.243164062 145.134765625 519.883789062 3 392.686523438 3 c 4
 297.520507812 3 278.520507812 85 274.686523438 115 c 5
 270.852539062 85 251.852539062 3 156.686523438 3 c 4
 68.0869140625 3 33.2431640625 81.4208984375 33.2431640625 179.102539062 c 4
86.0068359375 420 m 4
 86.0068359375 488 137.350585938 524 196.006835938 524 c 4
 260.563476562 524 320.451171875 481.098632812 320.451171875 387 c 4
 320.451171875 375.040039062 319.565429688 364.26171875 318.006835938 354 c 5
 286.626953125 379 l 5
 286.534179688 381.637695312 286.451171875 384.229492188 286.451171875 387 c 4
 286.451171875 457.74609375 244.369140625 490 196.006835938 490 c 4
 154.049804688 490 119.482421875 467 119.482421875 420 c 4
 119.482421875 395.599609375 129.006835938 376 142.006835938 364 c 13
 117.825195312 344 l 21
 102.006835938 358 86.0068359375 388.0234375 86.0068359375 420 c 4
EndSplineSet
Layer: 2
SplineSet
21.9677734375 193.436523438 m 1
 21.9677734375 234.73828125 33.4501953125 280.436523438 47.4501953125 306 c 1
 16.2060546875 306 l 1
 16.2060546875 391 l 1
 305.44921875 389.5 l 1
 338.951171875 306 l 1
 189.206054688 306 l 2
 148.450195312 306 128.967773438 245.162109375 128.967773438 193.436523438 c 0
 128.967773438 156.328125 134.641601562 114.65234375 171.899414062 114.65234375 c 0
 214.075195312 114.65234375 229.081054688 179.677734375 229.081054688 249.500976562 c 1
 324.9921875 249.500976562 l 1
 324.9921875 176.750976562 340.459960938 115.000976562 383.450195312 115.000976562 c 0
 440.206054688 115.000976562 440.206054688 239.958984375 440.206054688 293.000976562 c 0
 440.206054688 384.548828125 425.34375 481.405273438 406.704101562 545.000976562 c 1
 400.965820312 579.000976562 382.965820312 628.000976562 360.8828125 648.000976562 c 1
 338.145507812 683.221679688 309.645507812 712.004882812 274.861328125 733.000976562 c 1
 346.861328125 817.000976562 l 1
 425.838867188 764.921875 480.25 686.228515625 512.348632812 588.000976562 c 0
 536.336914062 514.591796875 555.206054688 410.000976562 555.206054688 293.000976562 c 0
 555.206054688 181.997070312 554.206054688 0.0009765625 383.450195312 0.0009765625 c 0
 327.530273438 0.0009765625 289.5078125 33.1455078125 274.686523438 79.03125 c 1
 258.541015625 31.603515625 219.12890625 0.0009765625 166.450195312 0.0009765625 c 0
 50.6494140625 0.0009765625 21.9677734375 105.455078125 21.9677734375 193.4375 c 1
 21.9677734375 193.436523438 l 1
74.54296875 409.272460938 m 1
 74.54296875 481.53515625 123.513671875 531.563476562 197.815429688 531.563476562 c 0
 274.801757812 531.563476562 346.200195312 474.8984375 346.200195312 365.563476562 c 0
 346.200195312 350.999023438 343.006835938 324.999023438 338.951171875 305.999023438 c 1
 248.571289062 371.874023438 l 1
 255.111328125 405.999023438 239.111328125 443.999023438 197.815429688 443.999023438 c 0
 173.015625 443.999023438 164.0234375 426.1328125 164.0234375 404.786132812 c 0
 164.0234375 386.79296875 176.30859375 370.32421875 185.006835938 355.999023438 c 1
 105.006835938 318.563476562 l 1
 85.0068359375 350.999023438 74.54296875 380.619140625 74.54296875 409.272460938 c 1
 74.54296875 409.272460938 l 1
381.1875 755 m 1
 361.965820312 647 l 1
 345.586914062 639.98046875 335.965820312 621.141601562 335.965820312 605 c 0
 335.965820312 584 357.965820312 554 408.965820312 546 c 1
 493.1875 524 l 1
 425.861328125 461 l 1
 348.241210938 463.250976562 249.977539062 525 249.977539062 611.133789062 c 0
 249.977539062 686.51171875 322.76953125 697.581054688 274.861328125 733 c 1
 381.1875 755 l 1
EndSplineSet
Layer: 3
SplineSet
290.060546875 387.000976562 m 4
 290.060546875 457.747070312 247.978515625 490.000976562 199.616210938 490.000976562 c 4
 157.659179688 490.000976562 123.091796875 467.000976562 123.091796875 420.000976562 c 4
 123.091796875 395.600585938 132.616210938 376.000976562 145.616210938 364.000976562 c 4
 121.434570312 344.000976562 l 4
 105.616210938 358.000976562 89.6162109375 388.024414062 89.6162109375 420.000976562 c 4
 89.6162109375 488.000976562 140.959960938 524.000976562 199.616210938 524.000976562 c 4
 264.171875 524.000976562 324.060546875 481.099609375 324.060546875 387.000976562 c 4
 324.060546875 375.041015625 323.174804688 364.262695312 321.616210938 354.000976562 c 5
 290.236328125 379.000976562 l 5
 290.143554688 381.638671875 290.060546875 384.23046875 290.060546875 387.000976562 c 4
335.243164062 603 m 4
 335.243164062 556.018554688 388.904296875 515.25390625 466.686523438 527 c 5
 477.827148438 541.603515625 478.432617188 561.625 480.686523438 563 c 5
 480.686523438 563 496.913085938 504.630859375 474.686523438 494 c 5
 370.874023438 477.154296875 299.254882812 535.618164062 299.254882812 603 c 4
 299.254882812 692.866210938 382.243164062 734 316.243164062 780 c 5
 341.243164062 785 380.243164062 758 380.243164062 758 c 5
 373.686523438 731 l 5
 377.686523438 696 335.243164062 663.903320312 335.243164062 603 c 4
529.243164062 293 m 4
 529.243164062 145.134765625 519.883789062 3 392.686523438 3 c 4
 297.520507812 3 278.520507812 85 274.686523438 115 c 5
 270.852539062 85 251.852539062 3 156.686523438 3 c 4
 68.0869140625 3 33.2431640625 81.4208984375 33.2431640625 179.102539062 c 4
 33.2431640625 248 53.2216796875 327 87.2216796875 354 c 5
 33 354 l 5
 33 389 l 5
 305.51953125 389 l 5
 321.616210938 354.000976562 l 5
 181.071289062 354 l 4
 83.2958984375 354 70.2431640625 236.71484375 70.2431640625 179.102539062 c 4
 70.2431640625 101.944335938 94.6435546875 40 156.686523438 40 c 4
 247.852539062 40 254.444335938 148.885742188 257.686523438 224.5 c 5
 291.686523438 224.5 l 5
 294.928710938 148.885742188 301.520507812 40 392.686523438 40 c 4
 485.419921875 40 492.243164062 164 492.243164062 293 c 4
 492.243164062 549.764648438 415.380859375 702.053710938 316.243164062 780 c 5
 339.243164062 807 l 5
 446.266601562 724.732421875 529.243164062 564 529.243164062 293 c 4
EndSplineSet
EndChar

StartChar: si_Dda
Encoding: 36 3497 4
Width: 562
VWidth: 0
Flags: HMW
LayerCount: 4
Fore
SplineSet
33.2431640625 179.102539062 m 4
 33.2431640625 248 53.2216796875 327 87.2216796875 354 c 5
 33 354 l 5
 33 389 l 5
 310.283203125 389 l 5
 318.006835938 354 l 5
 181.071289062 354 l 6
 83.2958984375 354 70.2431640625 236.71484375 70.2431640625 179.102539062 c 4
 70.2431640625 101.944335938 94.642578125 40 156.686523438 40 c 4
 247.852539062 40 254.444335938 148.885742188 257.686523438 224.5 c 5
 291.686523438 224.5 l 5
 294.928710938 148.885742188 301.520507812 40 392.686523438 40 c 4
 485.419921875 40 492.243164062 164 492.243164062 293 c 4
 492.243164062 576.88671875 417.791992188 712 264.686523438 712 c 4
 193.814453125 712 125.337890625 665.926757812 102.013671875 605 c 5
 68.013671875 618 l 5
 96.212890625 692.592773438 179.000976562 749 264.686523438 749 c 4
 442.686523438 749 529.243164062 601.955078125 529.243164062 293 c 4
 529.243164062 145.134765625 519.883789062 3 392.686523438 3 c 4
 297.520507812 3 278.520507812 85 274.686523438 115 c 5
 270.852539062 85 251.852539062 3 156.686523438 3 c 4
 68.0869140625 3 33.2431640625 81.4208984375 33.2431640625 179.102539062 c 4
86.0068359375 420 m 4
 86.0068359375 488 137.350585938 524 196.006835938 524 c 4
 260.563476562 524 320.451171875 481.098632812 320.451171875 387 c 4
 320.451171875 375.040039062 319.565429688 364.26171875 318.006835938 354 c 5
 286.626953125 379 l 5
 286.534179688 381.637695312 286.451171875 384.229492188 286.451171875 387 c 4
 286.451171875 457.74609375 244.369140625 490 196.006835938 490 c 4
 154.049804688 490 119.482421875 467 119.482421875 420 c 4
 119.482421875 395.599609375 129.006835938 376 142.006835938 364 c 4
 117.825195312 344 l 4
 102.006835938 358 86.0068359375 388.0234375 86.0068359375 420 c 4
EndSplineSet
Layer: 2
SplineSet
383.448242188 114.999023438 m 5
 440.204101562 114.999023438 440.204101562 239.95703125 440.204101562 292.999023438 c 4
 440.204101562 522.795898438 397.204101562 639.883789062 259.204101562 639.883789062 c 4
 218.100585938 639.883789062 170.44140625 618.958984375 153.38671875 576.854492188 c 5
 44.3544921875 613.028320312 l 5
 80.3388671875 707.8671875 172.484375 755 259.205078125 755 c 4
 476.205078125 755 555.205078125 599.055664062 555.205078125 293 c 4
 555.205078125 181.995117188 554.205078125 0 383.44921875 0 c 4
 327.529296875 0 289.506835938 33.1435546875 274.686523438 79.0302734375 c 5
 258.541015625 31.6025390625 219.12890625 0 166.44921875 0 c 4
 50.6494140625 0 21.9677734375 105.453125 21.9677734375 193.436523438 c 4
 21.9677734375 234.737304688 33.4501953125 280.436523438 47.4501953125 306 c 5
 16.2060546875 306 l 5
 16.2060546875 391 l 5
 305.44921875 389.5 l 5
 338.951171875 306 l 5
 189.206054688 306 l 6
 148.450195312 306 128.967773438 245.162109375 128.967773438 193.436523438 c 4
 128.967773438 156.328125 134.641601562 114.65234375 171.899414062 114.65234375 c 4
 214.075195312 114.65234375 229.081054688 179.677734375 229.081054688 249.5 c 5
 324.9921875 249.5 l 5
 324.9921875 176.75 340.459960938 115 383.450195312 115 c 5
 383.448242188 114.999023438 l 5
74.541015625 409.271484375 m 5
 74.541015625 481.534179688 123.51171875 531.5625 197.813476562 531.5625 c 4
 274.799804688 531.5625 346.198242188 474.897460938 346.198242188 365.5625 c 4
 346.198242188 350.998046875 343.004882812 324.998046875 338.94921875 305.998046875 c 5
 248.569335938 371.873046875 l 5
 255.109375 405.998046875 239.109375 443.998046875 197.813476562 443.998046875 c 4
 173.013671875 443.998046875 164.021484375 426.131835938 164.021484375 404.78515625 c 4
 164.021484375 386.791992188 176.306640625 370.323242188 185.004882812 355.998046875 c 5
 105.004882812 318.5625 l 5
 85.0048828125 350.998046875 74.541015625 380.618164062 74.541015625 409.271484375 c 5
 74.541015625 409.271484375 l 5
EndSplineSet
Layer: 3
SplineSet
492.243164062 293 m 0
 492.243164062 576.88671875 417.791992188 712 264.686523438 712 c 0
 193.814453125 712 125.337890625 665.926757812 102.013671875 605 c 1
 68.013671875 618 l 1
 96.212890625 692.592773438 179.000976562 749 264.686523438 749 c 0
 442.686523438 749 529.243164062 601.955078125 529.243164062 293 c 0
 529.243164062 145.134765625 519.883789062 3 392.686523438 3 c 0
 297.520507812 3 278.520507812 85 274.686523438 115 c 1
 270.852539062 85 251.852539062 3 156.686523438 3 c 0
 68.0869140625 3 33.2431640625 81.4208984375 33.2431640625 179.102539062 c 0
 33.2431640625 248 53.2216796875 327 87.2216796875 354 c 1
 33 354 l 1
 33 389 l 1
 305.51953125 389 l 1
 313.243164062 354 l 1
 181.071289062 354 l 0
 83.2958984375 354 70.2431640625 236.71484375 70.2431640625 179.102539062 c 0
 70.2431640625 101.944335938 94.642578125 40 156.686523438 40 c 0
 247.852539062 40 254.444335938 148.885742188 257.686523438 224.5 c 1
 291.686523438 224.5 l 1
 294.928710938 148.885742188 301.520507812 40 392.686523438 40 c 0
 485.419921875 40 492.243164062 164 492.243164062 293 c 0
279.6875 388 m 0
 279.6875 458.74609375 237.60546875 491 189.243164062 491 c 0
 147.286132812 491 112.71875 468 112.71875 421 c 0
 112.71875 396.599609375 122.243164062 377 135.243164062 365 c 0
 111.061523438 345 l 0
 95.2431640625 359 79.2431640625 389.0234375 79.2431640625 421 c 0
 79.2431640625 489 130.586914062 525 189.243164062 525 c 0
 253.799804688 525 313.6875 482.098632812 313.6875 388 c 0
 313.6875 376.040039062 312.801757812 365.26171875 311.243164062 355 c 1
 279.86328125 380 l 1
 279.770507812 382.637695312 279.6875 385.229492188 279.6875 388 c 0
EndSplineSet
EndChar

StartChar: si_A
Encoding: 3 3461 5
Width: 547
VWidth: 0
Flags: HW
LayerCount: 4
Fore
SplineSet
329 -205 m 1
 326.64453125 408 l 1
 329 425 340.93359375 469.961914062 351 490 c 1
 375 539 422.000976562 585.236328125 490 599 c 1
 500.84375 574.5625 l 1
 488.432617188 565.217773438 484 551.4921875 484 535 c 0
 484 499.147460938 514 454.956054688 514 411 c 0
 514 358.44140625 484.578125 320.267578125 416.747070312 320.267578125 c 0
 400.689453125 320.267578125 376 326 362 333 c 1
 362 367 l 1
 380 357 397.82421875 354.141601562 411.95703125 354.141601562 c 0
 458.078125 354.141601562 478 377.224609375 478 411 c 0
 478 441.546875 452.850585938 489.447265625 452.850585938 528.16015625 c 0
 452.850585938 536.640625 454.057617188 544.680664062 457 552 c 1
 429 542 370.5 487.690429688 366 422.986328125 c 1
 366 -205 l 1
 329 -205 l 1
33 212 m 0
 33 312.681640625 106 411 229.9453125 411 c 0
 254.225585938 411 302 411 325.801757812 411 c 1
 327.801757812 422 331 438.288085938 331 454 c 0
 331 524.74609375 288.91796875 557 240.555664062 557 c 0
 200.170898438 557 157.72265625 530.04296875 157.72265625 474 c 0
 157.72265625 431.346679688 179.466796875 406.530273438 188.629882812 398 c 1
 164.72265625 376 l 1
 152.72265625 387 124.247070312 419 124.247070312 474 c 0
 124.247070312 553 183.849609375 591 240.555664062 591 c 0
 305.112304688 591 365 548.098632812 365 454 c 0
 365 424.453125 360 399.96484375 351 374 c 1
 351 374 273 374 229.9453125 374 c 0
 130.143554688 374 70 295.036132812 70 212 c 0
 70 107.483398438 148.333007812 40 255 40 c 0
 383 40 442.475585938 105.709960938 475 138 c 1
 498 113 l 1
 462.962890625 76.919921875 399 3 255 3 c 0
 127 3 33 85 33 212 c 0
EndSplineSet
Layer: 2
SplineSet
273 115 m 4
 391.682617188 115 446.629882812 174.814453125 467 194 c 5
 536 111 l 5
 516.986328125 91.62109375 474.98828125 42.2705078125 395 17.46484375 c 4
 361.047851562 6.9365234375 320.698242188 0 273 0 c 4
 105.448242188 0 24.740234375 96.6640625 24.740234375 217 c 4
 24.740234375 330.947265625 121.423828125 421.3515625 241.740234375 421.3515625 c 5
 260.575195312 421.3515625 272.740234375 420 290.546875 418.436523438 c 5
 291.608398438 424.678710938 292.111328125 430.6484375 292.111328125 436.311523438 c 4
 292.111328125 473.944335938 269.881835938 498 241.35546875 498 c 4
 212 498 196.171875 477 196.171875 453.1640625 c 4
 196.171875 441.108398438 199.756835938 428.124023438 207.740234375 419 c 5
 129.740234375 379 l 5
 110.430664062 404.20703125 102.696289062 430.604492188 102.696289062 458.407226562 c 4
 102.696289062 534.13671875 154.795898438 596 241.35546875 596 c 4
 318.345703125 596 389.740234375 539.3359375 389.740234375 430 c 4
 389.740234375 398.735351562 382.740234375 357 370.740234375 318 c 5
 370.740234375 318 290.271484375 318 241.740234375 318 c 4
 185.740234375 318 140.740234375 273 140.740234375 217 c 4
 140.740234375 161 175.337890625 115 273 115 c 4
438 489 m 1
 391 457 397.598632812 403.255859375 397 327.2265625 c 1
 397 -205 l 1
 293 -205 l 1
 293 -4 l 1
 290.625 416 l 1
 290.625 416 303 489 348.694335938 533.184570312 c 1
 351.16015625 535.82421875 421.241210938 613.930664062 495.794921875 613.930664062 c 1
 496.072265625 614.115234375 531.84375 560.6484375 538 552 c 1
 526.345703125 545.444335938 522.516601562 532.885742188 522.516601562 516.64453125 c 0
 522.516601562 485.538085938 536.560546875 440.918945312 536.560546875 399.081054688 c 0
 536.560546875 342.80859375 496 278 392 298 c 1
 393 378 l 1
 435.263671875 374.158203125 452.592773438 389.5546875 452.592773438 418.328125 c 0
 452.592773438 442.663085938 442.44140625 471.303710938 438 489 c 1
EndSplineSet
Layer: 3
SplineSet
671.247070312 474 m 0
 671.247070312 553 730.849609375 591 787.555664062 591 c 0
 852.112304688 591 912 548.098632812 912 454 c 0
 912 424.453125 907 402.96484375 898 377 c 1
 898 377 820 377 776.9453125 377 c 0
 677.143554688 377 624 300.036132812 624 217 c 0
 624 112.143554688 708.583984375 56 802 56 c 0
 930 56 989.475585938 123.721679688 1022 157 c 1
 1045 132 l 1
 1009.96289062 95.919921875 946 22 802 22 c 0
 689.166015625 22 587 90 587 217 c 0
 587 317.681640625 653 411 776.9453125 411 c 0
 801.225585938 411 849 411 872.801757812 411 c 1
 874.801757812 422 878 438.288085938 878 454 c 0
 878 524.74609375 835.91796875 557 787.555664062 557 c 0
 747.170898438 557 704.72265625 530.04296875 704.72265625 474 c 0
 704.72265625 431.346679688 726.466796875 406.530273438 735.629882812 398 c 1
 711.72265625 376 l 1
 699.72265625 387 671.247070312 419 671.247070312 474 c 0
876 -202 m 1
 873.64453125 408 l 1
 876 425 887.93359375 469.961914062 898 490 c 1
 922 539 969.000976562 585.236328125 1037 599 c 1
 1047.84375 574.5625 l 1
 1035.43261719 565.217773438 1031 551.4921875 1031 535 c 0
 1031 499.147460938 1061 454.956054688 1061 411 c 0
 1061 358.44140625 1031.578125 320.267578125 963.747070312 320.267578125 c 0
 947.689453125 320.267578125 923 326 909 333 c 1
 909 367 l 1
 927 357 944.82421875 354.141601562 958.95703125 354.141601562 c 0
 1005.078125 354.141601562 1025 377.224609375 1025 411 c 0
 1025 448.23828125 987.624023438 511.266601562 1004 552 c 1
 976 542 917.5 487.690429688 913 422.986328125 c 1
 913 -202 l 1
 876 -202 l 1
77 217 m 0
 77 112.143554688 161.583984375 56 255 56 c 0
 383 56 442.475585938 123.721679688 475 157 c 1
 498 132 l 1
 462.962890625 95.919921875 399 22 255 22 c 0
 142.166015625 22 40 90 40 217 c 0
 40 317.681640625 106 411 229.9453125 411 c 0
 254.225585938 411 294 411 317.801757812 411 c 1
 322 420.922851562 324.747070312 438.288085938 324.747070312 454 c 0
 324.747070312 511 295.764648438 557 243 557 c 0
 198.04296875 557 162.475585938 530.225585938 162.475585938 474 c 0
 162.475585938 432 181.475585938 406 191.475585938 396 c 1
 169.475585938 376 l 1
 157.475585938 387 129 419 129 474 c 0
 129 547.701171875 182.744140625 591 243 591 c 0
 297.458007812 591 358.747070312 548.098632812 358.747070312 454 c 0
 358.747070312 424.453125 352 402.96484375 343 377 c 1
 343 377 273 377 229.9453125 377 c 0
 130.143554688 377 77 300.036132812 77 217 c 0
329 -202 m 1
 326.64453125 433.729492188 l 1
 330.19140625 451.048828125 335.93359375 470.961914062 346 491 c 1
 370 540 417.000976562 584.236328125 485 598 c 1
 490.014648438 590.592773438 496.840820312 580.48046875 500.84375 574.5625 c 1
 488.432617188 565.217773438 484 551.4921875 484 535 c 0
 484 499.147460938 514 454.956054688 514 411 c 0
 514 358.44140625 484.578125 320.267578125 416.747070312 320.267578125 c 0
 400.689453125 320.267578125 376 326 362 333 c 1
 362 367 l 1
 380 357 397.82421875 354.141601562 411.95703125 354.141601562 c 0
 458.078125 354.141601562 478 377.224609375 478 411 c 0
 478 448.23828125 440.624023438 511.266601562 457 552 c 1
 429 542 370.5 487.690429688 366 422.986328125 c 1
 366 -202 l 1
 329 -202 l 1
EndSplineSet
EndChar

StartChar: si_U
Encoding: 9 3467 6
Width: 540
VWidth: 0
Flags: HW
LayerCount: 4
Fore
SplineSet
33 132.999023438 m 0
 33 327 156.294921875 411 280.240234375 411 c 0
 304.520507812 411 352.294921875 411 376.096679688 411 c 1
 378.096679688 422 381.294921875 438.288085938 381.294921875 454 c 0
 381.294921875 524.74609375 339.212890625 557 290.850585938 557 c 0
 250.465820312 557 208.017578125 530.04296875 208.017578125 474 c 0
 208.017578125 431.346679688 229.76171875 406.530273438 238.924804688 398 c 1
 215.017578125 376 l 1
 203.017578125 387 174.541992188 419 174.541992188 474 c 0
 174.541992188 553 234.14453125 591 290.850585938 591 c 0
 355.407226562 591 415.294921875 548.098632812 415.294921875 454 c 0
 415.294921875 424.453125 410.294921875 399.96484375 401.294921875 374 c 1
 401.294921875 374 323.294921875 374 280.240234375 374 c 0
 176.34765625 374 73 301.1796875 73 133 c 0
 73 8.2666015625 134.573242188 -113 274 -113 c 0
 389.818359375 -113 451.860351562 -36.1826171875 470 35 c 1
 507 29 l 1
 485.435546875 -57.57421875 420 -151 274 -151 c 0
 106.826171875 -151 33 -11.001953125 33 132.999023438 c 0
EndSplineSet
Layer: 2
SplineSet
634.166015625 134.999023438 m 0
 634.166015625 -9.001953125 707.9921875 -149 875.166015625 -149 c 0
 1021.16601562 -149 1086.6015625 -55.57421875 1108.16601562 31 c 1
 1073.16601562 37 l 1
 1054.84082031 -34.6640625 992.166015625 -112 875.166015625 -112 c 0
 735.739257812 -112 674.166015625 9.759765625 674.166015625 135 c 0
 674.166015625 254.170898438 745.45703125 350 893.201171875 350 c 0
 999.454101562 350 l 1
 1006.625 378.379882812 1011.20117188 410.493164062 1011.20117188 432 c 0
 1011.20117188 526.098632812 953.59765625 568 892.81640625 568 c 0
 833.54296875 568 798.140625 535.05859375 787.282226562 488.596679688 c 1
 823.985351562 486.538085938 l 1
 834.307617188 510.354492188 860.002929688 530 892.81640625 530 c 0
 941.2421875 530 973.572265625 487.697265625 973.572265625 438.311523438 c 0
 973.572265625 430.872070312 972.912109375 423.221679688 971.583007812 415.407226562 c 0
 966.9453125 388.131835938 l 1
 939.383789062 390.551757812 l 0
 921.079101562 389.086914062 910.501953125 388 893.201171875 388 c 0
 718.4765625 388 634.166015625 275.233398438 634.166015625 134.999023438 c 0
120 135 m 1
 120 134.999023438 l 1
 120 42.458984375 168.209960938 -36.0009765625 274 -36.0009765625 c 0
 349.1484375 -36.0009765625 401.735351562 11.9951171875 410.5625 74.9990234375 c 1
 524 58.9990234375 l 1
 511.665039062 -55.1015625 421.083984375 -152.000976562 274 -152.000976562 c 0
 87.837890625 -152.000976562 3 -20.3154296875 3 134.999023438 c 0
 3 295.01953125 85.5693359375 423.3515625 292.03515625 423.3515625 c 0
 310.870117188 423.3515625 323.03515625 422 340.841796875 420.436523438 c 1
 341.903320312 426.678710938 342.40625 432.6484375 342.40625 438.311523438 c 0
 342.40625 475.944335938 320.176757812 500 291.650390625 500 c 0
 262.294921875 500 246.466796875 479 246.466796875 455.1640625 c 0
 246.466796875 443.108398438 250.051757812 430.124023438 258.03515625 421 c 1
 180.03515625 381 l 1
 160.725585938 406.20703125 152.991210938 432.604492188 152.991210938 460.407226562 c 0
 152.991210938 536.13671875 205.090820312 598 291.650390625 598 c 0
 368.640625 598 440.03515625 541.3359375 440.03515625 432 c 0
 440.03515625 400.735351562 433.03515625 359 421.03515625 320 c 1
 292.03515625 320 l 2
 174 320 120 242.90625 120 135 c 1
EndSplineSet
Layer: 3
SplineSet
297.111328125 368 m 4
 197.309570312 368 80.166015625 294 80.166015625 135 c 4
 80.166015625 9.759765625 141.739257812 -112 281.166015625 -112 c 4
 398.166015625 -112 460.840820312 -34.6640625 479.166015625 37 c 5
 514.166015625 31 l 5
 492.6015625 -55.57421875 427.166015625 -149 281.166015625 -149 c 4
 113.9921875 -149 40.166015625 -9.001953125 40.166015625 134.999023438 c 4
 40.166015625 318 173.166015625 402 297.111328125 402 c 4
 321.391601562 402 361.166015625 402 384.967773438 402 c 5
 389.166015625 414 391.913085938 435 391.913085938 454 c 4
 391.913085938 511 362.930664062 557 310.166015625 557 c 4
 265.208984375 557 229.641601562 530.225585938 229.641601562 474 c 4
 229.641601562 432 248.641601562 406 258.641601562 396 c 5
 236.641601562 376 l 5
 224.641601562 387 196.166015625 419 196.166015625 474 c 4
 196.166015625 547.701171875 249.91015625 591 310.166015625 591 c 4
 364.624023438 591 425.913085938 548.098632812 425.913085938 454 c 4
 425.913085938 421 419.166015625 397 410.166015625 368 c 5
 410.166015625 368 340.166015625 368 297.111328125 368 c 4
EndSplineSet
EndChar

StartChar: si_Da
Encoding: 42 3503 7
Width: 483
VWidth: 0
Flags: HW
LayerCount: 4
Fore
SplineSet
33 212 m 4
 33 312.681640625 106 411 229.9453125 411 c 4
 254.225585938 411 302 411 325.801757812 411 c 5
 327.801757812 422 331 438.288085938 331 454 c 4
 331 524.74609375 288.91796875 557 240.555664062 557 c 4
 200.170898438 557 157.72265625 530.04296875 157.72265625 474 c 4
 157.72265625 431.346679688 179.466796875 406.530273438 188.629882812 398 c 5
 164.72265625 376 l 5
 152.72265625 387 124.247070312 419 124.247070312 474 c 4
 124.247070312 553 183.849609375 591 240.555664062 591 c 4
 305.112304688 591 365 548.098632812 365 454 c 4
 365 424.453125 360 399.96484375 351 374 c 5
 351 374 273 374 229.9453125 374 c 4
 130.143554688 374 70 295.036132812 70 212 c 4
 70 101.981445312 151.3359375 41.841796875 233.842773438 41.841796875 c 4
 285.123046875 41.841796875 336.856445312 65.07421875 369.794921875 114 c 5
 399.072265625 91.6962890625 l 5
 358.853515625 31.5458984375 295.6875 2.998046875 233.072265625 2.998046875 c 4
 132.322265625 2.998046875 33 76.908203125 33 212 c 4
173.124023438 -57 m 4
 173.124023438 -24.1728515625 180.868164062 1.595703125 205.794921875 34 c 5
 234.794921875 36 l 5
 236.794921875 17 l 5
 214.646484375 -8.83984375 210.124023438 -30.4658203125 210.124023438 -57 c 4
 210.124023438 -111.587890625 250.590820312 -156.696289062 305.794921875 -156.696289062 c 4
 359.233398438 -156.696289062 393.212890625 -132.9765625 421.165039062 -83 c 5
 450.442382812 -105.303710938 l 5
 415.396484375 -164.568359375 372.794921875 -192.696289062 305.794921875 -192.696289062 c 4
 226.379882812 -192.696289062 173.124023438 -129.529296875 173.124023438 -57 c 4
EndSplineSet
Layer: 2
SplineSet
678.182617188 51 m 0
 717.4453125 51 761.454101562 71.798828125 795.14453125 125.020507812 c 1
 823.14453125 104.020507812 l 1
 784.208007812 40.5673828125 730.561523438 15.32421875 680.774414062 15.32421875 c 0
 564.829101562 15.32421875 488.237304688 101 488.237304688 217 c 0
 488.237304688 313.010742188 554.237304688 402 678.182617188 402 c 0
 702.462890625 402 742.237304688 402 766.0390625 402 c 1
 770.237304688 414 772.984375 435 772.984375 454 c 0
 772.984375 511 739.237304688 557 677.797851562 557 c 0
 627.237304688 557 587.237304688 527 587.237304688 464 c 0
 587.237304688 422 606.237304688 396 616.237304688 386 c 1
 594.237304688 366 l 1
 582.237304688 377 553.76171875 409 553.76171875 464 c 0
 553.76171875 544 612.237304688 591 677.797851562 591 c 0
 738.579101562 591 806.984375 548.098632812 806.984375 454 c 0
 806.984375 421 800.237304688 397 791.237304688 368 c 1
 791.237304688 368 721.237304688 368 678.182617188 368 c 0
 598.26953125 368 525.237304688 318 525.237304688 217 c 0
 525.237304688 121 578.237304688 51 678.182617188 51 c 0
860.237304688 -83 m 1
 888.237304688 -104 l 1
 849.30078125 -167.453125 795.654296875 -192.696289062 745.8671875 -192.696289062 c 0
 666.452148438 -192.696289062 612.196289062 -130.756835938 612.196289062 -58.2275390625 c 0
 612.196289062 -25.400390625 623.310546875 9.595703125 648.237304688 42 c 1
 677.237304688 44 l 1
 679.237304688 25 l 1
 657.088867188 -0.83984375 647.502929688 -29.25 647.502929688 -55.7841796875 c 0
 647.502929688 -110.372070312 688.071289062 -157.020507812 743.275390625 -157.020507812 c 0
 782.538085938 -157.020507812 826.546875 -136.221679688 860.237304688 -83 c 1
242.182617188 318 m 4
 186.182617188 318 141.182617188 273 141.182617188 217 c 4
 141.182617188 161 186.182617188 116 242.182617188 116 c 4
 277.475585938 116 308.751953125 131.385742188 328.844726562 155.436523438 c 5
 415.182617188 93.0419921875 l 5
 375.072265625 36.2998046875 312.63671875 0 242.182617188 0 c 4
 121.846679688 0 25.1826171875 96.6640625 25.1826171875 217 c 4
 25.1826171875 330.947265625 121.866210938 421.3515625 242.182617188 421.3515625 c 5
 261.017578125 421.3515625 273.182617188 420 290.989257812 418.436523438 c 5
 292.05078125 424.678710938 292.553710938 430.6484375 292.553710938 436.311523438 c 4
 292.553710938 473.944335938 270.32421875 498 241.797851562 498 c 4
 212.442382812 498 196.614257812 477 196.614257812 453.1640625 c 4
 196.614257812 441.108398438 200.19921875 428.124023438 208.182617188 419 c 5
 130.182617188 379 l 5
 110.873046875 404.20703125 103.138671875 430.604492188 103.138671875 458.407226562 c 4
 103.138671875 534.13671875 155.23828125 596 241.797851562 596 c 4
 318.788085938 596 390.182617188 539.3359375 390.182617188 430 c 4
 390.182617188 398.735351562 383.182617188 357 371.182617188 318 c 5
 371.182617188 318 290.713867188 318 242.182617188 318 c 4
386.182617188 -54.5634765625 m 5
 463.182617188 -106.563476562 l 5
 417.271484375 -175.430664062 362.515625 -202.407226562 312.237304688 -202.407226562 c 4
 187.856445312 -202.407226562 118.044921875 -78.939453125 181.182617188 21.5380859375 c 5
 271.182617188 44.4365234375 l 5
 281.182617188 4 l 5
 251.87890625 -29.796875 260.178710938 -97 312.237304688 -97 c 4
 336.868164062 -97 363.69140625 -85.0556640625 386.182617188 -54.5634765625 c 5
EndSplineSet
Layer: 3
SplineSet
86.607421875 206 m 0
 86.607421875 110.385742188 143.01171875 38.67578125 227.645507812 38.67578125 c 0
 270.905273438 38.67578125 319.39453125 59.474609375 356.514648438 112.696289062 c 1
 384.514648438 91.6962890625 l 1
 342.321289062 28.689453125 284.37890625 3 230.237304688 3 c 0
 121.845703125 3 49.607421875 90 49.607421875 206 c 0
 49.607421875 302.010742188 115.607421875 391 239.552734375 391 c 0
 263.833007812 391 303.607421875 391 327.409179688 391 c 1
 331.607421875 403 334.354492188 424 334.354492188 443 c 0
 334.354492188 500 305.372070312 546 252.607421875 546 c 0
 207.650390625 546 172.083007812 519.225585938 172.083007812 463 c 0
 172.083007812 421 191.083007812 395 201.083007812 385 c 1
 179.083007812 365 l 1
 167.083007812 376 138.607421875 408 138.607421875 463 c 0
 138.607421875 536.701171875 192.3515625 580 252.607421875 580 c 0
 307.065429688 580 368.354492188 537.098632812 368.354492188 443 c 0
 368.354492188 410 361.607421875 386 352.607421875 357 c 1
 352.607421875 357 282.607421875 357 239.552734375 357 c 0
 139.750976562 357 86.607421875 284.365234375 86.607421875 206 c 0
421.607421875 -83 m 1
 449.607421875 -104 l 1
 410.670898438 -167.453125 357.024414062 -192.696289062 307.237304688 -192.696289062 c 0
 227.822265625 -192.696289062 173.56640625 -130.756835938 173.56640625 -58.2275390625 c 0
 173.56640625 -25.400390625 181.310546875 1.595703125 206.237304688 34 c 1
 235.237304688 36 l 1
 237.237304688 17 l 1
 215.088867188 -8.83984375 208.873046875 -29.25 208.873046875 -55.7841796875 c 0
 208.873046875 -110.372070312 249.44140625 -157.020507812 304.645507812 -157.020507812 c 0
 343.908203125 -157.020507812 387.916992188 -136.221679688 421.607421875 -83 c 1
EndSplineSet
EndChar

StartChar: si_Va
Encoding: 55 3520 8
Width: 523
VWidth: 0
Flags: HW
LayerCount: 4
Fore
SplineSet
33 219 m 4
 33 284.815429688 54.0517578125 335.01171875 90.4033203125 363 c 4
 111.493164062 379.237304688 137.733398438 388 168 388 c 4
 217 388 285 388 285 388 c 5
 304 354 l 5
 168 354 l 6
 105.041015625 354 69 298.873046875 69 219 c 4
 69 154.403320312 99.046875 40 251 40 c 4
 378.865234375 40 452 150.518554688 452 354 c 4
 452 634.014648438 361.22265625 712 250 712 c 4
 179.127929688 712 121.32421875 665.926757812 98 605 c 5
 64 618 l 5
 102 716 189.967773438 749 250 749 c 4
 382.145507812 749 490 662.955078125 490 354 c 4
 490 126.541015625 403.0390625 3 251 3 c 4
 68.990234375 3 33 141.05078125 33 219 c 4
72 420 m 4
 72 488 123.34375 524 182 524 c 4
 246.555664062 524 306.444335938 481.098632812 306.444335938 387 c 4
 306.444335938 375.040039062 305.55859375 364.26171875 304 354 c 5
 272.620117188 379 l 5
 272.52734375 381.637695312 272.444335938 384.229492188 272.444335938 387 c 4
 272.444335938 457.74609375 230.362304688 490 182 490 c 4
 140.04296875 490 105.475585938 467 105.475585938 420 c 4
 105.475585938 395.599609375 115 376 128 364 c 4
 103.818359375 344 l 4
 88 358 72 388.0234375 72 420 c 4
EndSplineSet
Layer: 2
SplineSet
513 354 m 4
 512 118 431 0 251 0 c 4
 73 0 20.8115234375 137 20.8115234375 218.826171875 c 4
 20.8115234375 279.354492188 40.7099609375 335.661132812 71.189453125 362 c 4
 92.208984375 380.1640625 120.286132812 391 156.887695312 391 c 6
 251 391 l 5
 280 363 324.944335938 306 324.944335938 306 c 5
 199.887695312 306 l 6
 143.887695312 306 131.487304688 270.6015625 131.487304688 226.6015625 c 4
 131.487304688 174 158.080078125 115 251 115 c 4
 355.452148438 115 397 195.017578125 397 354 c 4
 397 583 325.6796875 640 242.854492188 640 c 4
 201.750976562 640 161.666015625 618.959960938 144.610351562 576.85546875 c 5
 35.578125 613.029296875 l 5
 71.5625 707.868164062 156.133789062 755 242.854492188 755 c 4
 382.326171875 755 513 675.859375 513 354 c 4
171 356 m 5
 91 318.563476562 l 5
 71 351 60.5361328125 380.620117188 60.5361328125 409.272460938 c 4
 60.5361328125 481.53515625 109.506835938 531.563476562 183.807617188 531.563476562 c 4
 260.793945312 531.563476562 332.193359375 474.899414062 332.193359375 365.563476562 c 4
 332.193359375 351 329 325 324.944335938 306 c 5
 234.564453125 371.875 l 5
 241.104492188 406 225.104492188 444 183.80859375 444 c 4
 159.008789062 444 150.016601562 426.133789062 150.016601562 404.787109375 c 4
 150.016601562 386.79296875 162.301757812 370.325195312 171 356 c 5
 171 356 l 5
EndSplineSet
Layer: 3
SplineSet
-278.555664062 387 m 0
 -278.555664062 457.74609375 -320.637695312 490 -369 490 c 0
 -410.95703125 490 -445.524414062 467 -445.524414062 420 c 0
 -445.524414062 395.599609375 -436 376 -423 364 c 0
 -447.181640625 344 l 0
 -463 358 -479 388.0234375 -479 420 c 0
 -479 488 -427.65625 524 -369 524 c 0
 -304.443359375 524 -244.555664062 481.098632812 -244.555664062 387 c 0
 -244.555664062 375.040039062 -245.44140625 364.26171875 -247 354 c 1
 -278.379882812 379 l 1
 -278.47265625 381.637695312 -278.555664062 384.229492188 -278.555664062 387 c 0
-492 219 m 0
 -492 154.403320312 -461.623046875 40 -308 40 c 0
 -180.134765625 40 -107 150.518554688 -107 354 c 0
 -107 634.014648438 -197.77734375 712 -309 712 c 0
 -379.872070312 712 -437.67578125 665.926757812 -461 605 c 1
 -495 618 l 1
 -457 716 -369.032226562 749 -309 749 c 0
 -176.854492188 749 -69 662.955078125 -69 354 c 0
 -69 126.541015625 -155.9609375 3 -308 3 c 0
 -490.009765625 3 -526 141.05078125 -526 219 c 0
 -526 323 -473.435546875 388 -391 388 c 0
 -342 388 -266 388 -266 388 c 1
 -247 354 l 1
 -247 354 -340 354 -391 354 c 0
 -455.23046875 354 -492 298.873046875 -492 219 c 0
-278.555664062 387 m 0
 -278.555664062 457.74609375 -320.637695312 490 -369 490 c 0
 -410.95703125 490 -445.524414062 467 -445.524414062 420 c 0
 -445.524414062 395.599609375 -436 376 -423 364 c 0
 -447.181640625 344 l 0
 -463 358 -479 388.0234375 -479 420 c 0
 -479 488 -427.65625 524 -369 524 c 0
 -304.443359375 524 -244.555664062 481.098632812 -244.555664062 387 c 0
 -244.555664062 375.040039062 -245.44140625 364.26171875 -247 354 c 1
 -278.379882812 379 l 1
 -278.47265625 381.637695312 -278.555664062 384.229492188 -278.555664062 387 c 0
168 329 m 2
 124.826171875 329 80.3115234375 301.954101562 80.3115234375 202 c 0
 80.3115234375 145.87109375 103.400390625 40 251 40 c 0
 378.865234375 40 452 150.518554688 452 354 c 0
 452 634.014648438 361.22265625 712 250 712 c 0
 179.127929688 712 121.32421875 665.926757812 98 605 c 1
 64 618 l 1
 102 716 189.967773438 749 250 749 c 0
 382.145507812 749 490 662.955078125 490 354 c 0
 490 126.541015625 403.0390625 3 251 3 c 0
 74 3 46.3115234375 133.05078125 46.3115234375 202 c 0
 46.3115234375 328.833984375 107.889648438 363 168 363 c 2
 293 363 l 1
 295.837890625 352.543945312 309.26953125 340.360351562 312 329 c 1
 168 329 l 2
275 336 m 1
 290.0234375 448.077148438 239.44140625 491 182 491 c 0
 138.821289062 491 106.446289062 452.01171875 106.446289062 410.092773438 c 0
 106.446289062 390.849609375 113.268554688 370.989257812 129 354 c 1
 105 332 l 1
 82.6953125 354.647460938 72.0478515625 384.361328125 72.0478515625 413.624023438 c 0
 72.0478515625 469.63671875 111.060546875 524 182 524 c 0
 262.294921875 524 333 470 312 329 c 1
 275 336 l 1
EndSplineSet
EndChar

StartChar: si_I
Encoding: 7 3465 12
Width: 513
VWidth: 0
Flags: HW
LayerCount: 4
Fore
SplineSet
107 -137.540039062 m 1
 135 -114 l 1
 162.146484375 -148.369140625 195.619140625 -163.338867188 226.709960938 -163.338867188 c 0
 285.534179688 -163.338867188 320 -121.751953125 320 -70 c 0
 320 -27.8623046875 309.139648438 19.8720703125 225 27.0712890625 c 0
 217.872070312 27.6806640625 210.217773438 28 202 28 c 1
 225 56 l 1
 271 45 l 1
 314 43 357 6 357 -70 c 0
 357 -142.266601562 308.68359375 -200.338867188 226.709960938 -200.338867188 c 0
 186.126953125 -200.338867188 142.434570312 -181.28515625 107 -137.540039062 c 1
33 375 m 0
 33 476.044921875 101.125 591 251 591 c 0
 372.700195312 591 480 515.1953125 480 322 c 0
 480 174.28515625 404.95703125 84.6435546875 304 47.572265625 c 0
 272.073242188 35.8486328125 237.555664062 29.3828125 202 28 c 1
 200.999023438 65.7744140625 l 1
 304 65.7744140625 443 136.21875 443 322 c 0
 443 488.622070312 353.037109375 554 251 554 c 0
 133.62109375 554 67 467.325195312 67 375 c 0
 67 302.069335938 102 248 102 248 c 1
 114 218 l 1
 80 223 l 1
 49 260 33 307 33 375 c 0
88.0986328125 299.95703125 m 0
 88.0986328125 251.448242188 127.188476562 212.306640625 175.749023438 212.306640625 c 0
 224.25390625 212.306640625 263.401367188 251.393554688 263.401367188 299.95703125 c 0
 263.401367188 348.465820312 224.310546875 387.611328125 175.749023438 387.611328125 c 0
 127.240234375 387.611328125 88.0986328125 348.517578125 88.0986328125 299.95703125 c 0
56.8564453125 275.715820312 m 0
 56.8564453125 283.541992188 58 291.634765625 58 300 c 1
 58 367.724609375 104 423.869140625 176 423.869140625 c 0
 202.995117188 423.869140625 227.884765625 414.98046875 248.057617188 400 c 0
 278.49609375 377.397460938 298.198242188 340.927734375 298.198242188 300.198242188 c 0
 298.198242188 232.473632812 243.724609375 178 176 178 c 0
 122.373046875 178 76.130859375 212.155273438 59.203125 260 c 0
 57.3935546875 265.114257812 56.8564453125 270.352539062 56.8564453125 275.715820312 c 0
EndSplineSet
Layer: 2
SplineSet
176.901367188 10.439453125 m 5
 175 106 l 5
 263 106 382 129 382 297.078125 c 4
 382 416 318.379882812 482 241.098632812 482 c 4
 154.098632812 482 113 429.325195312 113 374 c 5
 92.0986328125 285 l 5
 47.0986328125 233 l 5
 -31.9013671875 382 52.0986328125 594 241.098632812 594 c 4
 381.48046875 594 496.999023438 496 496.999023438 297.078125 c 4
 496.999023438 130 392.424804688 44.45703125 313.999023438 34 c 4
 283.999023438 30 282.607421875 15.373046875 256.999023438 11.3408203125 c 4
 244.46875 9.3671875 230.819335938 31 217.999023438 31 c 4
 204.008789062 31 191.999023438 23 176.900390625 10.439453125 c 5
 176.901367188 10.439453125 l 5
32.11328125 298.48828125 m 5
 32.11328125 335.545898438 62.423828125 359.978515625 106 387 c 5
 146 450 246.926757812 444 288.81640625 398 c 4
 312.639648438 371.838867188 327.098632812 336.970703125 327.098632812 298.48828125 c 4
 327.098632812 216.549804688 261.54296875 151 179.6015625 151 c 4
 97.6630859375 151 32.11328125 216.549804688 32.11328125 298.48828125 c 5
 32.11328125 298.48828125 l 5
134.140625 294.859375 m 4
 134.140625 270.4921875 153.633789062 251 178 251 c 4
 202.3671875 251 221.861328125 270.4921875 221.861328125 294.859375 c 4
 221.861328125 319.2265625 202.3671875 338.720703125 178 338.720703125 c 4
 153.633789062 338.720703125 134.140625 319.2265625 134.140625 294.859375 c 4
152.0546875 -57.5634765625 m 5
 208 -133 273.833984375 -94 273.833984375 -46.205078125 c 4
 273.833984375 -19 260.901367188 22.439453125 176.901367188 10.439453125 c 5
 190 69 l 5
 300 54 l 6
 351 47.986328125 380.674804688 0 380.674804688 -50.5830078125 c 4
 380.674804688 -210 177 -269.397460938 75.0546875 -109.563476562 c 5
 152.0546875 -57.5634765625 l 5
EndSplineSet
Layer: 3
SplineSet
226.709960938 -200.338867188 m 4
 186.126953125 -200.338867188 142.434570312 -181.28515625 107 -137.540039062 c 5
 135 -114 l 5
 162.146484375 -148.369140625 195.619140625 -163.338867188 226.709960938 -163.338867188 c 4
 281.841796875 -163.338867188 314.14453125 -121.751953125 314.14453125 -70 c 4
 314.14453125 -24.29296875 286.555664062 25.775390625 202 28 c 5
 225 56 l 5
 271 43 l 5
 307 32 351.14453125 0 351.14453125 -70 c 4
 351.14453125 -142.266601562 305.171875 -200.338867188 226.709960938 -200.338867188 c 4
251 591 m 4
 372.700195312 591 480 515.1953125 480 322 c 4
 480 127.572265625 349.991210938 33.755859375 202 28 c 5
 200.999023438 65.7744140625 l 5
 304 65.7744140625 443 136.21875 443 322 c 4
 443 488.622070312 353.037109375 554 251 554 c 4
 133.62109375 554 67 467.325195312 67 375 c 4
 67 302.069335938 102 248 102 248 c 5
 80 223 l 5
 49 260 33 307 33 375 c 4
 33 476.044921875 101.125 591 251 591 c 4
58 300 m 4
 58 367.724609375 104 423.869140625 176 423.869140625 c 4
 202.995117188 423.869140625 227.884765625 414.98046875 248.057617188 400 c 4
 278.49609375 377.397460938 298.198242188 340.927734375 298.198242188 300.198242188 c 4
 298.198242188 232.473632812 243.724609375 178 176 178 c 4
 122.373046875 178 76.130859375 212.155273438 59.203125 260 c 4
 57.3935546875 265.114257812 56.8564453125 270.352539062 56.8564453125 275.715820312 c 4
 56.8564453125 283.541992188 58 291.634765625 58 300 c 4
88.0986328125 299.95703125 m 4
 88.0986328125 251.448242188 127.188476562 212.306640625 175.749023438 212.306640625 c 4
 224.25390625 212.306640625 263.401367188 251.393554688 263.401367188 299.95703125 c 4
 263.401367188 348.465820312 224.310546875 387.611328125 175.749023438 387.611328125 c 4
 127.240234375 387.611328125 88.0986328125 348.517578125 88.0986328125 299.95703125 c 4
EndSplineSet
EndChar

StartChar: si_Ii
Encoding: 8 3466 13
Width: 497
VWidth: 0
Flags: HW
LayerCount: 4
Fore
SplineSet
182 745 m 0
 182 761 195 774 211 774 c 0
 227 774 240 761 240 745 c 0
 240 729 227 716 211 716 c 0
 195 716 182 729 182 745 c 0
406 680 m 0
 406 696 419 709 435 709 c 0
 451 709 464 696 464 680 c 0
 464 664 451 651 435 651 c 0
 419 651 406 664 406 680 c 0
EndSplineSet
Refer: 46 3515 N 1 0 0 1 11 -4 2
EndChar

StartChar: si_vocalicR
Encoding: 11 3469 15
Width: 815
VWidth: 0
Flags: HW
LayerCount: 4
Fore
SplineSet
268.977539062 454 m 0
 268.977539062 466.185546875 269.982421875 477.512695312 271.872070312 488 c 0
 284.568359375 558.491210938 337.2265625 591 393.422851562 591 c 0
 450.12890625 591 509.731445312 553 509.731445312 474 c 0
 509.731445312 429.732421875 489.4140625 385.565429688 457.8671875 361 c 1
 431.8671875 382 l 1
 458.8671875 402 476.255859375 437.958984375 476.255859375 474 c 0
 476.255859375 530.04296875 433.807617188 557 393.422851562 557 c 0
 345.060546875 557 302.978515625 524.74609375 302.978515625 454 c 0
 302.978515625 435 302.978515625 416 302.978515625 402 c 1
 285.978515625 369 l 1
 276.26171875 397.663085938 268.977539062 421.383789062 268.977539062 454 c 0
70 194.102539062 m 0
 70 107.481445312 101.954101562 40 167.978515625 40 c 0
 259.14453125 40 265.736328125 148.885742188 268.978515625 224.5 c 1
 302.978515625 224.5 l 1
 306.220703125 148.885742188 312.8125 40 403.978515625 40 c 0
 470.002929688 40 501.95703125 107.481445312 501.95703125 194.102539062 c 0
 501.95703125 252 491.14453125 369 406.978515625 369 c 2
 164.978515625 369 l 2
 81.1298828125 369 70 252 70 194.102539062 c 0
33 194.102539062 m 0
 33 255.3515625 45.7001953125 336.482421875 91.1103515625 378 c 0
 109.384765625 394.708007812 133.14453125 405 163.12890625 405 c 2
 408.828125 405 l 2
 439.14453125 405 462.572265625 394.708007812 480.846679688 378 c 0
 526.256835938 336.482421875 538.95703125 255.3515625 538.95703125 194.102539062 c 0
 538.95703125 86.68359375 494.935546875 3 403.978515625 3 c 0
 308.8125 3 289.8125 85 285.978515625 115 c 1
 282.14453125 85 263.14453125 3 167.978515625 3 c 0
 77.021484375 3 33 86.68359375 33 194.102539062 c 0
62.224609375 474 m 0
 62.224609375 553 121.827148438 591 178.533203125 591 c 0
 234.729492188 591 287.391601562 558.491210938 300.084960938 488 c 0
 301.973632812 477.513671875 302.977539062 466.185546875 302.977539062 454 c 0
 302.977539062 421.383789062 295.693359375 397.663085938 285.977539062 369 c 1
 268.977539062 402 l 1
 268.977539062 416 268.977539062 435 268.977539062 454 c 0
 268.977539062 524.74609375 226.895507812 557 178.533203125 557 c 0
 138.1484375 557 95.7001953125 530.04296875 95.7001953125 474 c 0
 95.7001953125 437.958984375 113.088867188 402 140.088867188 382 c 1
 114.088867188 361 l 1
 82.5419921875 385.565429688 62.224609375 429.732421875 62.224609375 474 c 0
EndSplineSet
Refer: 56 3544 N 1 0 0 1 516.145 0 2
EndChar

StartChar: si_vocalicL
Encoding: 13 3471 17
Width: 860
VWidth: 0
Flags: HW
LayerCount: 4
Fore
SplineSet
658.359375 95.1298828125 m 0
 658.359375 64.166015625 683.099609375 38.5673828125 714.359375 38.5673828125 c 0
 745.640625 38.5673828125 770.359375 64.171875 770.359375 95.1298828125 c 0
 770.359375 126.092773438 745.620117188 151.692382812 714.359375 151.692382812 c 0
 683.077148438 151.692382812 658.359375 126.086914062 658.359375 95.1298828125 c 0
622.836914062 94.9384765625 m 0
 622.836914062 145.556640625 664.157226562 185.844726562 714.775390625 185.844726562 c 0
 765.393554688 185.844726562 805.681640625 145.556640625 805.681640625 94.9384765625 c 0
 805.681640625 44.3203125 765.393554688 3 714.775390625 3 c 0
 664.157226562 3 622.836914062 44.3203125 622.836914062 94.9384765625 c 0
790.887695312 284.5625 m 0
 790.887695312 447.6484375 759.854492188 542.5625 710.887695312 542.5625 c 0
 679.786132812 542.5625 655.538085938 522.220703125 654.196289062 474.563476562 c 1
 620.720703125 474.563476562 l 1
 620.720703125 534.5625 649.881835938 579.5625 710.887695312 579.5625 c 0
 767.629882812 579.5625 827.887695312 517.551757812 827.887695312 284.5625 c 0
 827.887695312 86.2939453125 804.359375 3 714.775390625 3 c 1
 714.359375 38.5673828125 l 1
 753.255859375 38.5673828125 778.359375 60 779.359375 123 c 1
 786.705078125 163.74609375 790.887695312 215.384765625 790.887695312 284.5625 c 0
413.443359375 454 m 0
 413.443359375 466.185546875 414.448242188 477.512695312 416.337890625 488 c 0
 429.034179688 558.491210938 481.692382812 591 537.888671875 591 c 0
 594.594726562 591 654.197265625 553 654.197265625 474 c 0
 654.197265625 429.732421875 633.879882812 385.565429688 602.333007812 361 c 1
 576.333007812 382 l 1
 603.333007812 402 620.721679688 437.958984375 620.721679688 474 c 0
 620.721679688 530.04296875 578.2734375 557 537.888671875 557 c 0
 489.526367188 557 447.444335938 524.74609375 447.444335938 454 c 0
 447.444335938 435 447.444335938 416 447.444335938 402 c 1
 430.444335938 369 l 1
 420.727539062 397.663085938 413.443359375 421.383789062 413.443359375 454 c 0
211.611328125 224.436523438 m 0
 211.611328125 107.2421875 297.635742188 30 430.4453125 30 c 0
 563.254882812 30 649.279296875 107.2421875 649.279296875 224.436523438 c 0
 649.279296875 299.84375 610.802734375 365 526.611328125 365 c 2
 334.279296875 365 l 2
 250.087890625 365 211.611328125 299.84375 211.611328125 224.436523438 c 0
174.611328125 224.436523438 m 0
 174.611328125 319.693359375 228 402 334.279296875 402 c 2
 526.611328125 402 l 2
 633 402 686.279296875 319.693359375 686.279296875 224.436523438 c 0
 686.279296875 189.749023438 680.075195312 158.001953125 668.362304688 129.877929688 c 1
 664.415039062 125.640625 661.333984375 121.161132812 659.40234375 116 c 0
 658.397460938 113.315429688 657.704101562 110.447265625 657.362304688 107.33203125 c 1
 616.98046875 35.8125 536.559570312 -7 430.4453125 -7 c 0
 324.331054688 -7 243.91015625 35.8125 203.528320312 107.33203125 c 1
 203.186523438 110.447265625 202.493164062 113.315429688 201.48828125 116 c 0
 199.556640625 121.161132812 196.475585938 125.640625 192.528320312 129.877929688 c 1
 180.815429688 158.001953125 174.611328125 189.749023438 174.611328125 224.436523438 c 0
206.690429688 474 m 0
 206.690429688 553 266.29296875 591 322.999023438 591 c 0
 379.1953125 591 431.857421875 558.491210938 444.55078125 488 c 0
 446.439453125 477.513671875 447.443359375 466.185546875 447.443359375 454 c 0
 447.443359375 421.383789062 440.159179688 397.663085938 430.443359375 369 c 1
 413.443359375 402 l 1
 413.443359375 416 413.443359375 435 413.443359375 454 c 0
 413.443359375 524.74609375 371.361328125 557 322.999023438 557 c 0
 282.614257812 557 240.166015625 530.04296875 240.166015625 474 c 0
 240.166015625 437.958984375 257.5546875 402 284.5546875 382 c 1
 258.5546875 361 l 1
 227.0078125 385.565429688 206.690429688 429.732421875 206.690429688 474 c 0
33 284.5625 m 0
 33 517.551757812 93.2578125 579.5625 150 579.5625 c 0
 211.005859375 579.5625 240.166992188 534.5625 240.166992188 474.563476562 c 1
 206.69140625 474.563476562 l 1
 205.349609375 522.220703125 181.1015625 542.5625 150 542.5625 c 0
 101.033203125 542.5625 70 447.6484375 70 284.5625 c 0
 70 215.384765625 74.1826171875 163.74609375 81.5283203125 123 c 1
 82.5283203125 60 107.631835938 38.5673828125 146.528320312 38.5673828125 c 1
 146.112304688 3 l 1
 56.5283203125 3 33 86.2939453125 33 284.5625 c 0
90.5283203125 95.1298828125 m 0
 90.5283203125 64.171875 115.247070312 38.5673828125 146.528320312 38.5673828125 c 0
 177.788085938 38.5673828125 202.528320312 64.166015625 202.528320312 95.1298828125 c 0
 202.528320312 126.086914062 177.810546875 151.692382812 146.528320312 151.692382812 c 0
 115.267578125 151.692382812 90.5283203125 126.092773438 90.5283203125 95.1298828125 c 0
55.2060546875 94.9384765625 m 0
 55.2060546875 145.556640625 95.494140625 185.844726562 146.112304688 185.844726562 c 0
 196.73046875 185.844726562 238.05078125 145.556640625 238.05078125 94.9384765625 c 0
 238.05078125 44.3203125 196.73046875 3 146.112304688 3 c 0
 95.494140625 3 55.2060546875 44.3203125 55.2060546875 94.9384765625 c 0
EndSplineSet
Layer: 2
SplineSet
370.934570312 392 m 1
 380.690429688 417 l 2
 382.944335938 422.776367188 382.254882812 429.211914062 382.254882812 434.875 c 0
 382.254882812 472.5078125 360.025390625 496.563476562 331.499023438 496.563476562 c 0
 302.143554688 496.563476562 286.315429688 475.563476562 286.315429688 451.727539062 c 0
 286.315429688 439.671875 292.951171875 420.124023438 300.934570312 411 c 1
 222.934570312 371 l 1
 203.625 396.20703125 192.83984375 429.16796875 192.83984375 456.970703125 c 0
 192.83984375 532.700195312 244.939453125 594.563476562 331.499023438 594.563476562 c 0
 398.62109375 594.563476562 461.490234375 551.494140625 476.50390625 468.000976562 c 1
 461.416992188 448.000976562 466.416992188 423.000976562 478.521484375 403.000976562 c 1
 475.951171875 377.439453125 469.831054688 348.913085938 460.934570312 320.000976562 c 1
 370.934570312 392 l 1
488.459960938 392 m 1
 398.459960938 320 l 1
 389.91015625 347.786132812 383.924804688 375.215820312 381.189453125 400 c 1
 405.416992188 420 417.416992188 456 385.69140625 481 c 1
 404.615234375 555.9609375 464.348632812 594.563476562 527.895507812 594.563476562 c 0
 614.455078125 594.563476562 666.553710938 532.69921875 666.553710938 456.969726562 c 0
 666.553710938 429.166992188 655.768554688 396.206054688 636.458984375 370.999023438 c 1
 558.458984375 410.999023438 l 1
 566.442382812 420.123046875 573.078125 439.670898438 573.078125 451.7265625 c 0
 573.078125 475.5625 557.25 496.5625 527.89453125 496.5625 c 0
 499.368164062 496.5625 477.138671875 472.506835938 477.138671875 434.874023438 c 0
 477.138671875 429.2109375 476.448242188 422.775390625 478.703125 416.999023438 c 2
 488.459960938 392 l 1
769.459960938 280 m 0
 769.4609375 421.659179688 724.665039062 479.84375 681.087890625 479.84375 c 0
 639.459960938 479.84375 624.63671875 442.4296875 619.459960938 425.84375 c 1
 565.459960938 486.84375 l 1
 573.938476562 527.423828125 611.768554688 583.84375 681.087890625 583.84375 c 0
 785.186523438 583.84375 870.366210938 506.41796875 870.366210938 283.84375 c 0
 870.366210938 46.1201171875 779.458984375 0 711.977539062 0 c 1
 707.366210938 79 l 1
 757.458984375 79 769.458984375 117.15625 769.459960938 280 c 0
750.502929688 129.615234375 m 0
 750.502929688 151.865234375 732.870117188 169.790039062 710.981445312 169.790039062 c 0
 689.092773438 169.790039062 671.459960938 151.865234375 671.459960938 129.615234375 c 0
 671.459960938 107.364257812 689.092773438 89.4404296875 710.981445312 89.4404296875 c 0
 732.870117188 89.4404296875 750.502929688 107.364257812 750.502929688 129.615234375 c 0
818.459960938 130 m 0
 818.459960938 58 770.953125 0 711.978515625 0 c 0
 639.978515625 0 581.978515625 58 581.978515625 130 c 0
 581.978515625 202 639.978515625 260 703.459960938 260 c 0
 787.459960938 260 818.459960938 176 818.459960938 130 c 0
89.9345703125 280 m 1
 89.9345703125 117.15625 101.934570312 79 152.02734375 79 c 1
 147.416015625 0 l 1
 79.9345703125 0 -10.97265625 46.1201171875 -10.97265625 283.84375 c 0
 -10.97265625 506.41796875 74.2080078125 583.84375 178.305664062 583.84375 c 0
 247.625976562 583.84375 285.455078125 527.424804688 293.93359375 486.84375 c 1
 239.93359375 425.84375 l 1
 234.756835938 442.4296875 219.93359375 479.84375 178.305664062 479.84375 c 0
 134.728515625 479.84375 89.93359375 421.659179688 89.93359375 280 c 1
 89.9345703125 280 l 1
108.891601562 129.615234375 m 0
 108.891601562 107.364257812 126.524414062 89.4404296875 148.413085938 89.4404296875 c 0
 170.301757812 89.4404296875 187.934570312 107.364257812 187.934570312 129.615234375 c 0
 187.934570312 151.865234375 170.301757812 169.790039062 148.413085938 169.790039062 c 0
 126.524414062 169.790039062 108.891601562 151.865234375 108.891601562 129.615234375 c 0
40.9345703125 130 m 0
 40.9345703125 176 71.9345703125 260 155.934570312 260 c 0
 219.416015625 260 277.416015625 202 277.416015625 130 c 0
 277.416015625 58 219.416015625 0 147.416015625 0 c 0
 88.44140625 0 40.9345703125 58 40.9345703125 130 c 0
510.977539062 417 m 1
 633.360351562 417 694.416992188 330.65234375 694.416992188 225 c 0
 694.416992188 208.430664062 692.951171875 192.732421875 690.17578125 177.905273438 c 1
 673.934570312 170 645.934570312 150 668.22265625 114.922851562 c 1
 578.004882812 -53.455078125 280.787109375 -53.3046875 190.934570312 115.368164062 c 1
 213.934570312 150 187.934570312 166 171.934570312 165.331054688 c 1
 167.40625 183.776367188 164.977539062 203.666015625 164.977539062 225 c 0
 164.977539062 330.65234375 226.034179688 417 348.416015625 417 c 2
 379.177734375 417 l 1
 480.21484375 417 l 1
 510.9765625 417 l 1
 510.977539062 417 l 1
504.977539062 319 m 1
 354.416992188 319 l 2
 299.416992188 319 271.977539062 276.725585938 271.977539062 225 c 0
 271.977539062 64.9228515625 587.416015625 65.5234375 587.416015625 225 c 0
 587.416015625 276.725585938 504.9765625 319 504.9765625 319 c 2
 504.977539062 319 l 1
EndSplineSet
EndChar

StartChar: si_E
Encoding: 15 3473 19
Width: 535
VWidth: 0
Flags: HW
LayerCount: 4
Fore
SplineSet
282.826171875 603 m 0
 282.826171875 667.297851562 325.309570312 706.649414062 325.309570312 740.684570312 c 0
 325.309570312 754.21875 318.591796875 766.912109375 299.814453125 780 c 1
 363.423828125 761 l 1
 361.079101562 749.58984375 357.5234375 726.290039062 357.5234375 726.290039062 c 1
 357.5234375 693.052734375 318.814453125 661.163085938 318.814453125 603 c 0
 318.814453125 561.561523438 360.560546875 524.958984375 423.783203125 524.958984375 c 0
 432.240234375 524.958984375 441.081054688 525.614257812 450.2578125 527 c 1
 473.423828125 522 l 1
 458.2578125 494 l 1
 446.009765625 492.012695312 434.2109375 491.073242188 422.923828125 491.073242188 c 0
 338.54296875 491.073242188 282.826171875 543.567382812 282.826171875 603 c 0
47.2431640625 207 m 0
 47.2431640625 309.341796875 97.2431640625 349 106.243164062 354 c 1
 33 354 l 1
 33 389 l 1
 305.51953125 389 l 1
 313.243164062 354 l 1
 183.243164062 354 l 2
 132.243164062 354 83.2431640625 296.708984375 83.2431640625 208 c 0
 83.2431640625 142.71484375 115.393554688 40 252.243164062 40 c 0
 390.424804688 40 465.409179688 150.385742188 465.409179688 342 c 0
 465.409179688 410.758789062 461.174804688 471.186523438 450.283203125 524 c 1
 429.10546875 608.981445312 396.073242188 674.717773438 356.244140625 724 c 1
 338.619140625 745.807617188 319.663085938 764.393554688 299.814453125 780 c 1
 322.814453125 807 l 1
 441.823242188 715.40234375 502.409179688 562.866210938 502.409179688 342 c 0
 502.409179688 126.91015625 414.409179688 3 252.243164062 3 c 0
 86.2431640625 3 47.2431640625 127.725585938 47.2431640625 207 c 0
81.2431640625 420 m 0
 81.2431640625 488 132.586914062 524 191.243164062 524 c 0
 255.799804688 524 315.6875 481.098632812 315.6875 387 c 0
 315.6875 375.040039062 314.801757812 364.26171875 313.243164062 354 c 1
 281.86328125 379 l 1
 281.770507812 381.637695312 281.6875 384.229492188 281.6875 387 c 0
 281.6875 457.74609375 239.60546875 490 191.243164062 490 c 0
 149.286132812 490 114.71875 467 114.71875 420 c 0
 114.71875 406.329101562 117.708007812 394.165039062 122.624023438 384 c 0
 93.75390625 370 l 0
 86.400390625 384.3203125 81.2431640625 401.845703125 81.2431640625 420 c 0
EndSplineSet
Layer: 2
SplineSet
252.243164062 115 m 0
 356.6953125 115 411.243164062 181.017578125 411.243164062 340 c 0
 411.243164062 521.698242188 364.243164062 668 253.243164062 735 c 1
 325.243164062 819 l 1
 463.243164062 728 526.243164062 555.741210938 526.243164062 340 c 0
 526.243164062 104 432.243164062 0 252.243164062 0 c 0
 74.2431640625 0 24.7900390625 133.561523438 34.8349609375 223 c 0
 38.451171875 255.19921875 49.2431640625 286 64.2431640625 306 c 1
 27.4814453125 306 l 1
 27.4814453125 393 l 1
 292.34765625 390 l 1
 326.1875 306 l 1
 219.243164062 306 l 2
 162.458007812 306 142.224609375 261.911132812 142.224609375 214.068359375 c 0
 142.224609375 166.573242188 171.55859375 115 252.243164062 115 c 0
172.243164062 356 m 1
 92.2431640625 318.563476562 l 1
 72.2431640625 351 61.779296875 380.620117188 61.779296875 409.272460938 c 0
 61.779296875 481.53515625 110.75 531.563476562 185.051757812 531.563476562 c 0
 262.038085938 531.563476562 333.436523438 474.899414062 333.436523438 365.563476562 c 0
 333.436523438 351 330.243164062 325 326.1875 306 c 1
 326.1875 306 234.7421875 366.313476562 235.807617188 371.875 c 0
 242.34765625 406 226.34765625 444 185.051757812 444 c 0
 160.251953125 444 151.259765625 426.133789062 151.259765625 404.787109375 c 0
 151.259765625 386.79296875 163.544921875 370.325195312 172.243164062 356 c 1
388.243164062 559 m 1
 398.243164062 578 404.891601562 611.987304688 392.243164062 626 c 0
 386.045898438 632.865234375 351.243164062 658 340.243164062 654 c 1
 298.243164062 636 304.243164062 565 388.243164062 559 c 1
253.243164062 735 m 1
 319.243164062 783 l 1
 362.243164062 766 l 1
 412.149414062 738.635742188 482.612304688 493.768554688 404.243164062 463 c 1
 326.623046875 465.250976562 228.359375 527 228.359375 613.133789062 c 0
 228.359375 688.51171875 301.151367188 699.581054688 253.243164062 735 c 1
EndSplineSet
EndChar

StartChar: si_Ee
Encoding: 16 3474 20
Width: 535
VWidth: 0
Flags: HW
LayerCount: 4
Fore
SplineSet
470 638 m 5
 477 672 l 5
 484.01953125 670.73828125 496.298828125 667.194335938 514 667.194335938 c 4
 549.927734375 667.194335938 581 688 581 749 c 4
 581 828.297851562 521.5 829 496 829 c 4
 492.98046875 829 487 829 487 829 c 5
 469 848 l 5
 496 863 l 5
 532 863 616 862 616 749 c 4
 616 664 568.6953125 632.194335938 514 632.194335938 c 4
 499.591796875 632.194335938 484.754882812 634.109375 470 638 c 5
461 863 m 5
 496 863 l 5
 496 855 l 5
 492 839 l 5
 492 662 l 5
 496 642 l 5
 496 459 l 5
 461 459 l 5
 461 863 l 5
282.826171875 603 m 0
 282.826171875 667.297851562 325.309570312 706.649414062 325.309570312 740.684570312 c 0
 325.309570312 754.21875 318.591796875 766.912109375 299.814453125 780 c 1
 299.814453125 780 363.423828125 761 363.423828125 761 c 1
 361.079101562 749.58984375 357.5234375 726.290039062 357.5234375 726.290039062 c 1
 357.5234375 693.052734375 318.814453125 661.163085938 318.814453125 603 c 0
 318.814453125 561.561523438 360.560546875 524.958984375 423.783203125 524.958984375 c 0
 432.240234375 524.958984375 441.081054688 525.614257812 450.2578125 527 c 1
 473.423828125 522 l 1
 458.2578125 494 l 1
 446.009765625 492.012695312 434.2109375 491.073242188 422.923828125 491.073242188 c 0
 338.54296875 491.073242188 282.826171875 543.567382812 282.826171875 603 c 0
47.2431640625 207 m 4
 47.2431640625 309.341796875 97.2431640625 349 106.243164062 354 c 5
 33 354 l 5
 33 389 l 5
 305.51953125 389 l 5
 313.243164062 354 l 5
 183.243164062 354 l 6
 132.243164062 354 83.2431640625 296.708984375 83.2431640625 208 c 4
 83.2431640625 142.71484375 115.393554688 40 252.243164062 40 c 4
 390.424804688 40 465.409179688 150.385742188 465.409179688 342 c 4
 465.409179688 410.758789062 461.174804688 471.186523438 450.283203125 524 c 5
 429.10546875 608.981445312 396.073242188 674.717773438 356.244140625 724 c 5
 338.619140625 745.807617188 319.663085938 764.393554688 299.814453125 780 c 5
 322.814453125 807 l 5
 441.823242188 715.40234375 502.409179688 562.866210938 502.409179688 342 c 4
 502.409179688 126.91015625 414.409179688 3 252.243164062 3 c 4
 86.2431640625 3 47.2431640625 127.725585938 47.2431640625 207 c 4
81.2431640625 420 m 0
 81.2431640625 488 132.586914062 524 191.243164062 524 c 0
 255.799804688 524 315.6875 481.098632812 315.6875 387 c 0
 315.6875 375.040039062 314.801757812 364.26171875 313.243164062 354 c 1
 281.86328125 379 l 1
 281.770507812 381.637695312 281.6875 384.229492188 281.6875 387 c 0
 281.6875 457.74609375 239.60546875 490 191.243164062 490 c 0
 149.286132812 490 114.71875 467 114.71875 420 c 0
 114.71875 406.329101562 117.708007812 394.165039062 122.624023438 384 c 0
 93.75390625 370 l 0
 86.400390625 384.3203125 81.2431640625 401.845703125 81.2431640625 420 c 0
EndSplineSet
EndChar

StartChar: si_Os
Encoding: 18 3476 22
Width: 561
VWidth: 0
Flags: HW
LayerCount: 4
Fore
SplineSet
33 250.999023438 m 4
 33 390.37109375 64.0126953125 523.999023438 151.638671875 523.999023438 c 4
 217 523.999023438 241 474 241 426 c 5
 206 419 l 5
 206 470.220703125 181.700195312 489 152 489 c 4
 92 489 70 368 70 250.999023438 c 4
 70 167.890625 73.716796875 40 155.596679688 40 c 4
 246.762695312 40 253.354492188 148.885742188 256.596679688 224.5 c 5
 290.596679688 224.5 l 5
 293.838867188 148.885742188 300.430664062 40 391.596679688 40 c 4
 484.330078125 40 491.153320312 164 491.153320312 293 c 4
 491.153320312 576.88671875 416.702148438 712 263.596679688 712 c 4
 192.724609375 712 124.248046875 665.926757812 100.923828125 605 c 5
 66.923828125 618 l 5
 95.123046875 692.592773438 177.911132812 749 263.596679688 749 c 4
 441.596679688 749 528.153320312 601.955078125 528.153320312 293 c 4
 528.153320312 145.134765625 518.793945312 3 391.596679688 3 c 4
 296.430664062 3 277.430664062 85 273.596679688 115 c 5
 269.762695312 85 250.762695312 3 155.596679688 3 c 4
 41 3 33 153.317382812 33 250.999023438 c 4
203 370 m 4
 203 385.758789062 206 397 206 419 c 5
 241 426 l 5
 241 415.9765625 239 386.337890625 239 370 c 4
 239 346 245.225585938 317 282 317 c 4
 325.1953125 317 326 381.9609375 326 402 c 4
 326 422.0390625 325.1953125 487 282 487 c 4
 258.225585938 487 242 470 238 441 c 5
 207 444 l 5
 212 486 234 523 282 523 c 4
 360.537109375 523 362 430.526367188 362 402 c 4
 362 373.473632812 360.537109375 281 282 281 c 4
 225.008789062 281 203 322.965820312 203 370 c 4
EndSplineSet
Layer: 2
SplineSet
170.80859375 114.651367188 m 5
 212.984375 114.651367188 227.990234375 179.676757812 227.990234375 249.499023438 c 5
 323.901367188 249.499023438 l 5
 323.901367188 176.749023438 339.369140625 114.999023438 382.359375 114.999023438 c 4
 439.115234375 114.999023438 439.115234375 239.95703125 439.115234375 292.999023438 c 4
 439.115234375 522.795898438 396.115234375 639.883789062 258.115234375 639.883789062 c 4
 217.01171875 639.883789062 169.352539062 618.958984375 152.296875 576.854492188 c 5
 43.2646484375 613.028320312 l 5
 79.2490234375 707.8671875 171.39453125 755 258.116210938 755 c 4
 475.116210938 755 554.116210938 599.055664062 554.116210938 293 c 4
 554.116210938 181.995117188 553.116210938 0 382.360351562 0 c 4
 326.440429688 0 288.41796875 33.1435546875 273.596679688 79.0302734375 c 5
 257.451171875 31.6025390625 218.0390625 0 165.360351562 0 c 4
 52.3603515625 0 18.3603515625 115 18.3603515625 253 c 4
 18.3603515625 389 51.3603515625 527 166.647460938 527 c 4
 230.647460938 527 270.360351562 481 271.360351562 438 c 5
 189.360351562 413 l 5
 189.360351562 423.389648438 179.360351562 429 172.360351562 429 c 4
 136.647460938 429 125.033203125 348 125.033203125 265.911132812 c 4
 125.033203125 202.999023438 130.293945312 114.651367188 170.809570312 114.651367188 c 5
 170.80859375 114.651367188 l 5
267.359375 437.999023438 m 1
 226.359375 497.999023438 l 1
 238.359375 512.999023438 256.584960938 525.999023438 289.584960938 525.999023438 c 0
 349.584960938 525.999023438 380.359375 479.904296875 380.359375 403.999023438 c 0
 380.359375 326.904296875 364.359375 274.999023438 283.359375 274.999023438 c 0
 210.833007812 274.999023438 186.418945312 316.837890625 186.418945312 374.955078125 c 0
 186.418945312 387.01171875 189.359375 402.999023438 189.359375 412.999023438 c 1
 271.359375 437.999023438 l 1
 266.359375 383.999023438 270.359375 363.999023438 288.359375 363.999023438 c 0
 299.182617188 363.999023438 305.359375 373.999023438 305.359375 404.01953125 c 0
 305.359375 425.853515625 302.750976562 446.86328125 286.359375 446.86328125 c 0
 279.359375 446.86328125 272.359375 444.999023438 267.359375 437.999023438 c 1
EndSplineSet
EndChar

StartChar: si_Oo
Encoding: 19 3477 23
Width: 561
VWidth: 0
Flags: HW
LayerCount: 4
Fore
SplineSet
67.853515625 746 m 4
 67.853515625 795.265625 111.36328125 864 271.853515625 864 c 4
 397.415039062 864 499.762695312 801.028320312 499.762695312 712 c 4
 499.762695312 659 465.515625 621 416.762695312 602 c 5
 386.762695312 611 l 5
 408.762695312 636 l 5
 440.481445312 649.126953125 462.762695312 675.381835938 462.762695312 712 c 4
 462.762695312 779.357421875 377.030273438 827 271.853515625 827 c 4
 140.471679688 827 104.853515625 779.817382812 104.853515625 746 c 4
 104.853515625 712.767578125 132.037109375 683.518554688 157.853515625 668 c 5
 158.853515625 637 l 5
 130.853515625 646 l 5
 100.166992188 665.895507812 67.853515625 703.39453125 67.853515625 746 c 4
33 250.999023438 m 0
 33 390.37109375 64.0126953125 523.999023438 151.638671875 523.999023438 c 0
 217 523.999023438 241 474 241 426 c 1
 206 419 l 1
 206 470.220703125 181.700195312 489 152 489 c 0
 92 489 70 368 70 250.999023438 c 0
 70 167.890625 73.716796875 40 155.596679688 40 c 0
 246.762695312 40 253.354492188 148.885742188 256.596679688 224.5 c 1
 290.596679688 224.5 l 1
 293.838867188 148.885742188 300.430664062 40 391.596679688 40 c 0
 484.330078125 40 491.153320312 164 491.153320312 293 c 0
 491.153320312 582 363.693359375 651 244.853515625 651 c 0
 174.9140625 651 133.3671875 621.4765625 94.853515625 591 c 1
 70.853515625 620 l 1
 119.412109375 663.098632812 188.694335938 688 244.853515625 688 c 0
 381.545898438 688 528.153320312 611.869140625 528.153320312 293 c 0
 528.153320312 145.134765625 518.793945312 3 391.596679688 3 c 0
 296.430664062 3 277.430664062 85 273.596679688 115 c 1
 269.762695312 85 250.762695312 3 155.596679688 3 c 0
 41 3 33 153.317382812 33 250.999023438 c 0
203 370 m 0
 203 385.758789062 206 397 206 419 c 1
 241 426 l 1
 241 415.9765625 239 386.337890625 239 370 c 0
 239 346 245.225585938 317 282 317 c 0
 325.1953125 317 326 381.9609375 326 402 c 0
 326 422.0390625 325.1953125 487 282 487 c 0
 258.225585938 487 242 470 238 441 c 1
 207 444 l 1
 212 486 234 523 282 523 c 0
 360.537109375 523 362 430.526367188 362 402 c 0
 362 373.473632812 360.537109375 281 282 281 c 0
 225.008789062 281 203 322.965820312 203 370 c 0
EndSplineSet
Layer: 2
SplineSet
553.599609375 293 m 2
 553.115234375 181.99609375 542.115234375 0 384.359375 0 c 0
 328.439453125 0 288.416992188 33.14453125 273.596679688 79.0302734375 c 1
 257.451171875 31.6025390625 214.279296875 0 161.599609375 0 c 0
 49.599609375 0 18.599609375 115 18.599609375 253 c 0
 18.599609375 389 62.88671875 527 166.88671875 527 c 0
 230.88671875 527 270.599609375 481 271.599609375 438 c 1
 183.305664062 412.546875 l 1
 182.9609375 422.934570312 179.794921875 429 168.88671875 429 c 0
 136.88671875 429 125.272460938 348 125.272460938 265.912109375 c 0
 125.272460938 202 129.599609375 115 169.115234375 115 c 0
 215.815429688 115 227.990234375 176.75 227.990234375 249.5 c 1
 323.901367188 249.5 l 1
 323.901367188 176.75 337.244140625 115 380.234375 115 c 0
 432.446289062 115 438.599609375 239.959960938 438.599609375 293 c 0
 438.599609375 527 346.920898438 581 226.409179688 581 c 0
 188.8671875 581 136.653320312 564.03125 107.409179688 538 c 1
 44.4091796875 620 l 1
 112.409179688 684 191.409179688 690.975585938 242.409179688 690.975585938 c 0
 431.698242188 690.975585938 553.599609375 587 553.599609375 293 c 2
 553.599609375 293 l 2
383.84375 565 m 1
 383.844726562 565.000976562 l 1
 434.497070312 565.000976562 523.716796875 607.000976562 523.716796875 701.000976562 c 0
 523.716796875 790.409179688 434.10546875 871.000976562 270.170898438 871.000976562 c 0
 116.620117188 871.000976562 55.40625 811.694335938 55.40625 743.688476562 c 0
 55.40625 713.359375 69.4091796875 680 96.4091796875 656 c 1
 179.409179688 649 l 1
 183.409179688 682 l 1
 171.409179688 697 162.4296875 705.181640625 162.4296875 724.96484375 c 0
 162.4296875 747.772460938 186.224609375 771 270.170898438 771 c 0
 372.734375 771 408.715820312 733.87890625 408.715820312 701 c 0
 408.715820312 676.732421875 396.84375 655 370.715820312 648 c 1
 350.84375 607 l 1
 383.84375 565 l 1
262.599609375 440 m 1
 226.599609375 498 l 1
 238.599609375 513 252.599609375 526 285.599609375 526 c 0
 345.599609375 526 375.599609375 469.645507812 375.599609375 412.094726562 c 0
 375.599609375 347.137695312 364.599609375 275 278.599609375 275 c 0
 191.026367188 275 177.599609375 346 183.305664062 412.546875 c 1
 271.599609375 438 l 1
 268.599609375 399 266.599609375 364 284.599609375 364 c 0
 295.422851562 364 301.741210938 382.995117188 301.741210938 404.020507812 c 0
 301.741210938 425.854492188 298.765625 446.864257812 282.374023438 446.864257812 c 0
 277.21875 446.864257812 268.599609375 446 262.599609375 440 c 1
EndSplineSet
EndChar

StartChar: si_Ka
Encoding: 21 3482 25
Width: 688
VWidth: 0
Flags: HW
LayerCount: 4
Fore
SplineSet
33 184 m 5
 251 458 l 6
 306.471679688 527.721679688 372.541992188 582 450 582 c 4
 559.393554688 582 655 496.280273438 655 263 c 4
 655 90.4228515625 606.35546875 3 504 3 c 4
 434.809570312 3 399.421875 40.7275390625 390 86 c 5
 424 95 l 5
 430.611328125 65 455.4453125 40 504 40 c 4
 567.107421875 40 618 98.990234375 618 263 c 4
 618 469.22265625 539.649414062 545 450 545 c 4
 381.790039062 545 326.78515625 494.647460938 278 433 c 6
 84.90625 189 l 5
 58 155 l 5
 33 184 l 5
74 105 m 0
 74 110.7109375 74.8017578125 120.668945312 74.8017578125 130.404296875 c 0
 74.8017578125 144.301757812 73.16796875 157.747070312 65.2373046875 157.747070312 c 0
 63.24609375 157.747070312 60.8583984375 156.900390625 58 155 c 1
 65 184 l 1
 82 190 l 17
 83.640625 190.4609375 85.109375 190.739257812 87.0009765625 190.739257812 c 0
 105.916015625 190.739257812 108.250976562 155.333007812 108.250976562 127.893554688 c 0
 108.250976562 118.895507812 108 110.754882812 108 105 c 0
 108 68.7001953125 118.004882812 40 158 40 c 0
 209.7578125 40 223.23046875 100.280273438 223.87890625 159 c 2
 224 170 l 1
 260 170 l 1
 260.12109375 159 l 2
 260.76953125 100.280273438 274.2421875 40 326 40 c 0
 402.448242188 40 405 157.619140625 405 196 c 0
 405 336.163085938 353.232421875 387.666992188 294 387.666992188 c 0
 255 387.666992188 236 375 219 360 c 1
 205 382 l 1
 228 402 257 424.666992188 294 424.666992188 c 0
 373 424.666992188 442.04296875 363.220703125 442.04296875 196 c 0
 442.04296875 123.088867188 429.498046875 3 326 3 c 0
 267.939453125 3 243 48 242 79 c 1
 242 48 219.14453125 3 158 3 c 0
 90.80859375 3 74 48.037109375 74 105 c 0
36.2470703125 474 m 0
 36.2470703125 553 95.849609375 591 152.555664062 591 c 0
 217.112304688 591 277 548.098632812 277 454 c 9
 243 402 l 1
 243 416 243 435 243 454 c 0
 243 524.74609375 200.91796875 557 152.555664062 557 c 0
 112.169921875 557 69.72265625 530.04296875 69.72265625 474 c 0
 69.72265625 407.775390625 113 368 190 356 c 1
 182 325 l 1
 95 338 36.2470703125 390.377929688 36.2470703125 474 c 0
EndSplineSet
Layer: 2
SplineSet
32 126 m 5
 71.3720703125 214 l 5
 117 206 l 5
 123 197 130.459960938 191.751953125 130.459960938 156 c 4
 130.459960938 138.591796875 132.092773438 109 155.372070312 109 c 4
 174.029296875 109 190.372070312 119 190.372070312 160 c 6
 190.372070312 227 l 5
 280.372070312 227 l 5
 280.372070312 160 l 6
 280.372070312 122 292.372070312 109 318.372070312 109 c 4
 353.372070312 109 358.459960938 165.987304688 358.459960938 210 c 4
 358.459960938 335.987304688 278.372070312 364 227.372070312 346 c 5
 300.372070312 426 l 5
 322.813476562 437 465.459960938 431 465.459960938 210 c 4
 465.459960938 112.106445312 425.415039062 0 319.415039062 0 c 4
 280.415039062 0 245.415039062 29 236 52 c 5
 227.415039062 31 196.415039062 0 160 0 c 4
 3 0 95.5400390625 165 32 126 c 5
449.459960938 585 m 5
 567.087890625 585 677.087890625 486 677.087890625 263 c 4
 677.087890625 58 603.971679688 0 500.372070312 0 c 4
 424.458007812 0 395.657226562 58.021484375 386.372070312 94 c 5
 454.372070312 158 l 5
 455.372070312 134 458.744140625 103 500.372070312 103 c 4
 543.474609375 103 566.087890625 137 566.087890625 263 c 4
 566.087890625 399.940429688 514.3125 473.228515625 439.731445312 473.228515625 c 4
 386.731445312 473.228515625 358.950195312 457.000976562 319.373046875 415.999023438 c 4
 317.063476562 413.606445312 208.614257812 290.752929688 124.62890625 205.999023438 c 4
 79.0146484375 159.96875 34.9775390625 128.701171875 32.0009765625 125.999023438 c 6
 28.0009765625 231.999023438 l 5
 92.0107421875 297.919921875 171.924804688 405.91015625 247.4609375 488.999023438 c 4
 297.514648438 544.057617188 359.4609375 584.999023438 449.4609375 584.999023438 c 5
 449.459960938 585 l 5
159.987304688 594 m 4
 236.977539062 594 308.372070312 537.3359375 308.372070312 428 c 4
 308.372070312 396.735351562 297.459960938 389.899414062 272.459960938 369.899414062 c 5
 209.178710938 416.436523438 l 5
 210.240234375 422.678710938 210.743164062 428.6484375 210.743164062 434.311523438 c 4
 210.743164062 471.944335938 186.8984375 496 158.372070312 496 c 4
 130.538085938 496 116.947265625 475.012695312 116.947265625 451.903320312 c 4
 116.947265625 411.899414062 144.170898438 394.899414062 174.170898438 387.899414062 c 5
 114.459960938 327.899414062 l 5
 69.1708984375 344.899414062 24.3720703125 391.899414062 24.3720703125 461.536132812 c 4
 24.3720703125 532.131835938 72.3720703125 594 159.987304688 594 c 4
EndSplineSet
Layer: 3
SplineSet
927 3 m 0
 863.008789062 3 836.758789062 53.53515625 847 115 c 0
 850.131835938 133.795898438 852.262695312 166.778320312 827 155 c 1
 851 190 l 1
 882 194 889 164 883 110 c 0
 878.70703125 71.361328125 891.8046875 40 927 40 c 0
 982 40 993 108.077148438 993 170 c 1
 1029 170 l 1
 1029 108.077148438 1040 40 1095 40 c 0
 1171.44824219 40 1174 157.619140625 1174 196 c 0
 1174 336.163085938 1122.23242188 387.666992188 1063 387.666992188 c 0
 1024 387.666992188 1005 375 988 360 c 1
 974 382 l 1
 997 402 1026 424.666992188 1063 424.666992188 c 0
 1142 424.666992188 1211.04296875 363.220703125 1211.04296875 196 c 0
 1211.04296875 123.088867188 1198.49804688 3 1095 3 c 0
 1036.93945312 3 1012 48 1011 79 c 1
 1011 48 988.14453125 3 927 3 c 0
1193 95 m 1
 1199.61132812 65 1224.4453125 40 1273 40 c 0
 1336.10742188 40 1387 98.990234375 1387 263 c 0
 1387 469.22265625 1308.64941406 545 1219 545 c 0
 1150.79003906 545 1095.78515625 494.647460938 1047 433 c 2
 827 155 l 1
 802 184 l 1
 1020 458 l 2
 1075.47167969 527.721679688 1141.54199219 582 1219 582 c 0
 1328.39355469 582 1424 496.280273438 1424 263 c 0
 1424 90.4228515625 1375.35546875 3 1273 3 c 0
 1203.80957031 3 1168.421875 40.7275390625 1159 86 c 1
 1193 95 l 1
838.72265625 474 m 0
 838.72265625 407.775390625 882 368 959 356 c 1
 951 325 l 1
 864 338 805.247070312 390.377929688 805.247070312 474 c 0
 805.247070312 553 864.849609375 591 921.555664062 591 c 0
 986.112304688 591 1046 548.098632812 1046 454 c 0
 1012 402 l 1
 1012 416 1012 435 1012 454 c 0
 1012 524.74609375 969.91796875 557 921.555664062 557 c 0
 881.169921875 557 838.72265625 530.04296875 838.72265625 474 c 0
158 3 m 0
 90.80859375 3 74 48.037109375 74 105 c 0
 74 120.909179688 80.22265625 169.772460938 58 155 c 1
 82 190 l 1
 112.642578125 198.607421875 108 129.747070312 108 105 c 0
 108 68.7001953125 118.004882812 40 158 40 c 0
 213 40 224 108.077148438 224 170 c 1
 260 170 l 1
 260 108.077148438 271 40 326 40 c 0
 402.448242188 40 405 157.619140625 405 196 c 0
 405 350 347.872070312 387.666992188 294 387.666992188 c 0
 255 387.666992188 236 375 219 360 c 1
 205 382 l 1
 228 402 257 424.666992188 294 424.666992188 c 0
 366.522460938 424.666992188 442.04296875 376 442.04296875 196 c 0
 442.04296875 123.088867188 429.498046875 3 326 3 c 0
 267.939453125 3 243 48 242 79 c 1
 242 48 219.14453125 3 158 3 c 0
424 95 m 1
 430.611328125 65 455.4453125 40 504 40 c 0
 567.107421875 40 618 98.990234375 618 263 c 0
 618 469.22265625 539.649414062 545 450 545 c 0
 381.790039062 545 326.78515625 494.647460938 278 433 c 2
 58 155 l 1
 33 184 l 1
 251 458 l 2
 306.471679688 527.721679688 372.541992188 582 450 582 c 0
 559.393554688 582 655 496.280273438 655 263 c 0
 655 90.4228515625 606.35546875 3 504 3 c 0
 434.809570312 3 399.421875 40.7275390625 390 86 c 1
 424 95 l 1
69.72265625 474 m 0
 69.72265625 407.775390625 113 368 190 356 c 1
 182 325 l 1
 95 338 36.2470703125 390.377929688 36.2470703125 474 c 0
 36.2470703125 553 95.849609375 591 152.555664062 591 c 0
 217.112304688 591 277 548.098632812 277 454 c 0
 243 402 l 1
 243 416 243 435 243 454 c 0
 243 524.74609375 200.91796875 557 152.555664062 557 c 0
 112.169921875 557 69.72265625 530.04296875 69.72265625 474 c 0
-528.903320312 435.973632812 m 1
 -536.486328125 484.956054688 -561.279296875 528.100585938 -610.47265625 528.100585938 c 0
 -657.74609375 528.100585938 -682.087890625 494.33984375 -682.087890625 459.63671875 c 0
 -682.087890625 397 -636 366 -596 359 c 1
 -574.081054688 382.533203125 -551.15625 410.056640625 -528.903320312 435.973632812 c 1
-719 176 m 1
 -741.118164062 204.9296875 l 1
 -682.64453125 264.844726562 -661.560546875 287.268554688 -618 333.658203125 c 1
 -662 347 -716.087890625 383.25 -716.087890625 459.63671875 c 0
 -716.087890625 511 -681.084960938 562.100585938 -610.47265625 562.100585938 c 0
 -551.4609375 562.100585938 -513 522 -500 466 c 1
 -453.421875 508.260742188 -398.431640625 564 -321 564 c 0
 -223.196289062 564 -123.372070312 491.522460938 -123.372070312 279 c 0
 -123.372070312 64.125 -195 30 -270 30 c 0
 -320 30 -350 48 -365.28515625 70.796875 c 1
 -381 50 -404 30 -445.95703125 30 c 0
 -504.017578125 30 -529 69 -532 105 c 1
 -536 69 -551.85546875 30 -613 30 c 0
 -683 30 -703 88.4228515625 -703 145 c 0
 -703 169.341796875 -697 202 -688 212 c 1
 -637 265 l 1
 -654.918945312 235.013671875 -669 186 -669 145 c 0
 -669 108.700195312 -657 67 -613 67 c 0
 -558.877929688 67 -545 130.14453125 -545 197 c 1
 -515 197 l 1
 -515 135.077148438 -510.225585938 67 -445.95703125 67 c 0
 -374.388671875 67 -372 174.817382812 -372 210 c 0
 -372 364 -460 400 -526 380 c 1
 -584.698242188 318.954101562 -657.052734375 240.625 -719 176 c 1
-270 67 m 0
 -189.9609375 67 -160.372070312 139.780273438 -160.372070312 279 c 0
 -160.372070312 424 -219 527 -321 527 c 0
 -381.481445312 527 -450.838867188 456.368164062 -499.104492188 411.403320312 c 1
 -449 429 -335 401 -335 210 c 0
 -335 176.396484375 -339.741210938 133.131835938 -347 104 c 1
 -339.532226562 82.1279296875 -312.127929688 67 -270 67 c 0
EndSplineSet
EndChar

StartChar: si_Kha
Encoding: 22 3483 26
Width: 555
VWidth: 0
Flags: HW
LayerCount: 4
Fore
SplineSet
241 165 m 5
 269 181 l 5
 286.529296875 157.5 294.723632812 126.219726562 306.586914062 99 c 4
 320.9609375 66.01953125 340.721679688 39 389 39 c 4
 447 39 485.619140625 145.85546875 485.619140625 293 c 4
 485.619140625 576.88671875 411.16796875 712 258.0625 712 c 4
 187.190429688 712 118.713867188 665.926757812 95.3896484375 605 c 5
 61.3896484375 618 l 5
 89.5888671875 692.592773438 172.376953125 749 258.0625 749 c 4
 436.0625 749 522.619140625 601.955078125 522.619140625 293 c 4
 522.619140625 125 487 3 389 3 c 4
 319.668945312 3 293.229492188 42.7158203125 276.731445312 84 c 4
 263.959960938 115.958007812 257.14453125 148.85546875 241 165 c 5
33 220 m 4
 33 419.133789062 108.666015625 486 196.060546875 486 c 4
 294.920898438 486 331 437.556640625 331 344 c 4
 331 268 302.764648438 243.095703125 277.41015625 198 c 4
 258.293945312 164 255 135.525390625 255 79 c 4
 255 46 259.533203125 -11 272 -53 c 5
 235 -56 l 5
 225 -12 219.114257812 46.5048828125 219.114257812 79 c 4
 219.114257812 131.212890625 228.666015625 167.631835938 241.682617188 203 c 4
 260.49609375 254.120117188 295 280.6796875 295 344 c 4
 295 414.005859375 270.720703125 450 196.060546875 450 c 4
 128.497070312 450 70 392.18359375 70 220 c 4
 70 105.193359375 93.6552734375 39 148 39 c 4
 199.447265625 39 225.37109375 96.3681640625 233 148 c 5
 258 141 l 5
 247.814453125 67.400390625 225.327148438 3 148 3 c 4
 67.876953125 3 33 82.359375 33 220 c 4
EndSplineSet
Layer: 2
SplineSet
550.734375 293 m 1
 550.25 181.99609375 533.619140625 0 392.619140625 0 c 0
 330.494140625 0 307.493164062 30 290.494140625 74 c 0
 279.235351562 103.141601562 268.494140625 152 268.494140625 152 c 1
 328.494140625 226 l 1
 328.494140625 199.778320312 331.765625 179.732421875 337.337890625 165 c 0
 346.216796875 141.52734375 360.9375 131.5390625 377.575195312 131.5390625 c 0
 404.849609375 131.5390625 435.734375 171.640625 435.734375 293 c 0
 435.734375 522.796875 392.734375 639.884765625 254.734375 639.884765625 c 0
 213.630859375 639.884765625 165.971679688 618.959960938 148.916015625 576.85546875 c 1
 39.884765625 613.029296875 l 1
 75.869140625 707.868164062 168.014648438 755.000976562 254.735351562 755.000976562 c 0
 471.735351562 755.000976562 550.735351562 599.056640625 550.735351562 293.000976562 c 1
 550.734375 293 l 1
18.494140625 220 m 1
 18.494140625 425.889648438 94.494140625 488.874023438 198.6796875 488.874023438 c 0
 306.186523438 488.874023438 367.619140625 430 367.619140625 324 c 0
 367.619140625 271.69921875 351.139648438 232.28515625 327.494140625 191 c 0
 302.396484375 147.1796875 295.766601562 102.9140625 295.766601562 34.439453125 c 0
 295.766601562 -4.3896484375 297.97265625 -43.310546875 301.494140625 -75 c 1
 194.494140625 -75 l 1
 190.78125 -50.400390625 188.077148438 -14.6318359375 188.077148438 25.65234375 c 0
 188.077148438 72.16015625 191.680664062 124.6875 201.494140625 173 c 0
 214.494140625 237 255.619140625 264 255.619140625 324 c 0
 255.619140625 354 240.185546875 376.432617188 197.494140625 376.432617188 c 0
 157.666992188 376.432617188 125.494140625 339.788085938 125.494140625 220 c 0
 125.494140625 128 146.494140625 106 167.494140625 106 c 0
 187.494140625 106 204.494140625 120 220.494140625 156 c 1
 276.494140625 73 l 1
 234.383789062 36.5576171875 190.961914062 3.0615234375 145.217773438 3.0615234375 c 0
 50.064453125 3.0615234375 18.494140625 101.451171875 18.494140625 219.999023438 c 1
 18.494140625 220 l 1
EndSplineSet
EndChar

StartChar: si_Ga
Encoding: 23 3484 27
Width: 636
VWidth: 0
Flags: HW
LayerCount: 4
Fore
SplineSet
229 276 m 5
 273.565429688 295.977539062 279.831054688 338.024414062 279.831054688 369.950195312 c 4
 279.831054688 382.439453125 278.872070312 393.379882812 278.872070312 400.84375 c 4
 278.872070312 512.850585938 348 581 428 581 c 4
 520.438476562 581 603.372070312 528 603.372070312 292 c 4
 603.372070312 57 521.041015625 3 435 3 c 4
 379.235351562 3 342.760742188 31.681640625 324 70.796875 c 4
 347.372070312 123 l 5
 350.372070312 83 382.372070312 40 435 40 c 4
 501.877929688 40 565.872070312 87.0869140625 565.872070312 292 c 4
 565.872070312 497.78515625 501.701171875 544 428 544 c 4
 352.452148438 544 315.872070312 474.38671875 315.872070312 400.84375 c 4
 315.872070312 392.559570312 316.45703125 382.064453125 316.45703125 370.387695312 c 4
 316.45703125 328.727539062 309.012695312 272.025390625 241 247 c 5
 229 276 l 5
33 276 m 4
 33 524.010742188 115.331054688 581 201.372070312 581 c 4
 275 581 315 531 325 473 c 5
 289 461 l 5
 286 501 254 544 201.372070312 544 c 4
 134.494140625 544 70.5 493.923828125 70.5 276 c 4
 70.5 83.2802734375 144.298828125 40 218 40 c 4
 304.76953125 40 337.127929688 111.732421875 337.127929688 174 c 4
 337.127929688 224.729492188 313.17578125 268.541015625 276 272 c 5
 293 301 l 5
 329 298.771484375 374.127929688 249.75390625 374.127929688 174 c 4
 374.127929688 94.5390625 331.719726562 3 218 3 c 4
 125.561523438 3 33 53.0654296875 33 276 c 4
EndSplineSet
Layer: 2
SplineSet
218.372070312 107 m 5
 279.372070312 107 298 146.15625 298 184.15625 c 4
 298 219.15625 282.262695312 231.250976562 270 236.15625 c 5
 333 306.15625 l 5
 369 294.44921875 400 243.15625 400 189.15625 c 4
 400 94.73046875 348.932617188 0 218.372070312 0 c 4
 111.373046875 0 13.3720703125 57.625 13.3720703125 292 c 4
 13.3720703125 514.57421875 98.14453125 584 201.744140625 584 c 4
 277.658203125 584 319.086914062 533.978515625 328.372070312 498 c 5
 263.372070312 426 l 5
 258.1953125 442.5859375 243.372070312 478 201.744140625 478 c 4
 158.641601562 478 122.372070312 433.659179688 122.372070312 292 c 4
 122.372070312 144.453125 168.787109375 107 218.372070312 107 c 5
 218.372070312 107 l 5
422.372070312 584.15625 m 4
 529.37109375 584.15625 627.372070312 526.53125 627.372070312 292.15625 c 4
 627.372070312 69.58203125 542.599609375 0.15625 439 0.15625 c 4
 363.0859375 0.15625 321.657226562 50.177734375 312.372070312 86.15625 c 5
 377.372070312 158.15625 l 5
 382.548828125 141.5703125 397.372070312 106.15625 439 106.15625 c 4
 482.102539062 106.15625 518.372070312 150.497070312 518.372070312 292.15625 c 4
 518.372070312 439.703125 471.95703125 477.15625 422.372070312 477.15625 c 4
 370.561523438 477.15625 359.372070312 438 359.372070312 362 c 4
 359.372070312 286.15625 314.372070312 254 254.372070312 220 c 5
 208 300.15625 l 5
 260 333.15625 257.372070312 369 257.372070312 401 c 4
 257.372070312 527 342.46484375 584.15625 422.372070312 584.15625 c 4
EndSplineSet
Layer: 3
SplineSet
316.244140625 400.84375 m 4
 316.244140625 363 328.446289062 279.0390625 241.372070312 247 c 5
 229.372070312 276 l 5
 291.372070312 303.79296875 279.244140625 374.302734375 279.244140625 400.84375 c 4
 279.244140625 512.850585938 348.372070312 581 428.372070312 581 c 4
 520.810546875 581 603.744140625 528 603.744140625 292 c 4
 603.744140625 57 521.413085938 3 435.372070312 3 c 4
 379.607421875 3 343.1328125 31.681640625 324.372070312 70.796875 c 4
 347.744140625 123 l 5
 350.744140625 83 382.744140625 40 435.372070312 40 c 4
 502.25 40 566.244140625 87.0869140625 566.244140625 292 c 4
 566.244140625 497.78515625 502.073242188 544 428.372070312 544 c 4
 352.82421875 544 316.244140625 474.38671875 316.244140625 400.84375 c 4
218.372070312 40 m 4
 305.141601562 40 337.5 111.732421875 337.5 174 c 4
 337.5 224.729492188 313.547851562 268.541015625 276.372070312 272 c 5
 293.372070312 301 l 5
 329.372070312 298.771484375 374.5 249.75390625 374.5 174 c 4
 374.5 94.5390625 332.091796875 3 218.372070312 3 c 4
 125.93359375 3 33.3720703125 56 33.3720703125 292 c 4
 33.3720703125 527 115.703125 581 201.744140625 581 c 4
 275.372070312 581 315.372070312 531 325.372070312 473 c 5
 289.372070312 461 l 5
 286.372070312 501 254.372070312 544 201.744140625 544 c 4
 134.866210938 544 70.8720703125 496.913085938 70.8720703125 292 c 4
 70.8720703125 86.21484375 144.670898438 40 218.372070312 40 c 4
EndSplineSet
EndChar

StartChar: si_Gha
Encoding: 24 3485 28
Width: 581
VWidth: 0
Flags: HW
LayerCount: 4
Fore
SplineSet
278.721679688 454 m 4
 278.721679688 466.185546875 279.7265625 477.512695312 281.616210938 488 c 4
 294.3125 558.491210938 346.970703125 591 403.166992188 591 c 4
 459.873046875 591 519.475585938 553 519.475585938 474 c 4
 519.475585938 429.732421875 499.158203125 385.565429688 467.611328125 361 c 5
 441.611328125 382 l 5
 468.611328125 402 486 437.958984375 486 474 c 4
 486 530.04296875 443.551757812 557 403.166992188 557 c 4
 354.8046875 557 312.72265625 524.74609375 312.72265625 454 c 4
 312.72265625 435 312.72265625 416 312.72265625 402 c 5
 295.72265625 369 l 5
 286.005859375 397.663085938 278.721679688 421.383789062 278.721679688 454 c 4
79.744140625 189.102539062 m 4
 79.744140625 102.481445312 111.698242188 35 177.72265625 35 c 4
 205.600585938 35 225.888671875 57.185546875 225.888671875 85 c 4
 225.888671875 124 204.888671875 135 204.888671875 171 c 4
 204.888671875 225.030273438 243.3984375 239 295.72265625 239 c 4
 348.046875 239 386.556640625 225.030273438 386.556640625 171 c 4
 386.556640625 135 365.556640625 124 365.556640625 85 c 4
 365.556640625 57.185546875 385.844726562 35 413.72265625 35 c 4
 479.747070312 35 511.701171875 102.481445312 511.701171875 189.102539062 c 4
 511.701171875 247 500.571289062 364 416.72265625 364 c 6
 190.572265625 364 l 6
 92.796875 364 79.744140625 246.16796875 79.744140625 189.102539062 c 4
42.744140625 194.102539062 m 4
 42.744140625 263 62.72265625 342 96.72265625 369 c 5
 33 369 l 5
 33 405 l 5
 418.572265625 405 l 6
 448.888671875 405 472.31640625 394.708007812 490.590820312 378 c 4
 536.000976562 336.482421875 548.701171875 255.3515625 548.701171875 194.102539062 c 4
 548.701171875 86.68359375 504.6796875 3 413.72265625 3 c 4
 364.4296875 3 328.556640625 41.6025390625 328.556640625 90 c 4
 328.556640625 131 349.556640625 147 349.556640625 172 c 4
 349.556640625 200.920898438 324.646484375 207 295.72265625 207 c 4
 266.798828125 207 241.888671875 200.920898438 241.888671875 172 c 4
 241.888671875 147 262.888671875 131 262.888671875 90 c 4
 262.888671875 41.6025390625 227.015625 3 177.72265625 3 c 4
 86.765625 3 42.744140625 86.68359375 42.744140625 194.102539062 c 4
71.9697265625 474 m 4
 71.9697265625 553 131.572265625 591 188.278320312 591 c 4
 244.474609375 591 297.133789062 558.491210938 309.830078125 488 c 4
 311.71875 477.512695312 312.723632812 466.185546875 312.723632812 454 c 4
 312.723632812 421.383789062 305.439453125 397.663085938 295.72265625 369 c 5
 278.72265625 402 l 5
 278.72265625 416 278.72265625 435 278.72265625 454 c 4
 278.72265625 524.74609375 236.640625 557 188.278320312 557 c 4
 147.892578125 557 105.4453125 530.04296875 105.4453125 474 c 4
 105.4453125 432 124.4453125 406 134.4453125 396 c 5
 112.4453125 376 l 5
 100.4453125 387 71.9697265625 419 71.9697265625 474 c 4
EndSplineSet
Layer: 2
SplineSet
391.923828125 495.969726562 m 1
 369.185546875 495.969726562 340.359375 481 340.359375 434.311523438 c 0
 340.359375 428.6484375 340.862304688 422.2421875 341.923828125 416 c 2
 295.423828125 318.40625 l 1
 281.084960938 365.0078125 244.176757812 444.209960938 254.559570312 482.969726562 c 0
 274.188476562 556.24609375 333.278320312 593.969726562 396.096679688 593.969726562 c 0
 482.65625 593.969726562 534.755859375 532.106445312 534.755859375 456.376953125 c 0
 534.755859375 428.57421875 523.970703125 395.61328125 504.661132812 370.40625 c 1
 426.661132812 410.40625 l 1
 434.64453125 419.530273438 441.280273438 439.078125 441.280273438 451.1328125 c 0
 441.280273438 474.96875 427.067382812 495.96875 391.923828125 495.96875 c 1
 391.923828125 495.969726562 l 1
194.750976562 593.969726562 m 1
 257.569335938 593.969726562 316.66015625 556.247070312 336.288085938 482.969726562 c 0
 346.670898438 444.208984375 309.762695312 365.0078125 295.423828125 318.407226562 c 1
 248.923828125 416.000976562 l 2
 249.985351562 422.243164062 250.48828125 428.649414062 250.48828125 434.3125 c 0
 250.48828125 481.000976562 221.662109375 495.970703125 198.923828125 495.970703125 c 0
 149.255859375 495.970703125 140.775390625 443.811523438 165.135742188 413.407226562 c 1
 89.4248046875 375.407226562 l 1
 68.3984375 403.20703125 59.1357421875 433.065429688 59.1357421875 461.506835938 c 0
 59.1357421875 532.102539062 107.135742188 593.970703125 194.75 593.970703125 c 1
 194.750976562 593.969726562 l 1
560.143554688 207 m 1
 560.143554688 95.095703125 522.037109375 0 410.423828125 0 c 0
 343.94921875 0 311.423828125 54 311.423828125 94 c 0
 311.423828125 125 317.423828125 141.673828125 317.423828125 158 c 0
 317.423828125 171.092773438 312.423828125 180 295.423828125 180 c 0
 278.423828125 180 273.423828125 171.092773438 273.423828125 158 c 0
 273.423828125 141.673828125 279.423828125 125 279.423828125 94 c 0
 279.423828125 54 246.8984375 0 180.423828125 0 c 0
 68.810546875 0 30.7041015625 95.095703125 30.7041015625 207 c 0
 30.7041015625 248.30078125 42.1865234375 294 56.1865234375 319.563476562 c 1
 15.3701171875 319.666992188 l 1
 15.3701171875 416 l 1
 250.94140625 416 l 1
 345.94140625 416 l 1
 410.185546875 416 l 2
 451.185546875 416 487.096679688 393.522460938 511.185546875 368.23828125 c 0
 545.012695312 332.731445312 560.142578125 278.352539062 560.142578125 207 c 1
 560.143554688 207 l 1
295.423828125 258 m 0
 366.423828125 258 398.423828125 236.994140625 398.423828125 189 c 0
 398.423828125 152.00390625 382.423828125 115 410.423828125 115 c 0
 445.717773438 115 453.143554688 157.264648438 453.143554688 207 c 0
 453.143554688 258.725585938 433.186523438 318 392.905273438 318 c 2
 197.942382812 318 l 2
 157.186523438 318 137.704101562 258.08984375 137.704101562 207 c 0
 137.704101562 157.264648438 145.129882812 115 180.423828125 115 c 0
 208.423828125 115 192.423828125 152.00390625 192.423828125 189 c 0
 192.423828125 236.994140625 224.423828125 258 295.423828125 258 c 0
EndSplineSet
EndChar

StartChar: si_Nga
Encoding: 25 3486 29
Width: 608
VWidth: 0
Flags: HW
LayerCount: 4
Fore
SplineSet
33 405.150390625 m 0
 33 433.760742188 45.8603515625 459.216796875 66.150390625 476.083007812 c 0
 86.150390625 492.708007812 150.151367188 501.668945312 180.451171875 479 c 0
 202.862304688 462.232421875 217.298828125 435.461914062 217.298828125 405.150390625 c 0
 217.298828125 354.041015625 176.256835938 313 125.150390625 313 c 0
 74.041015625 313 33 354.041015625 33 405.150390625 c 0
69.56640625 405.129882812 m 0
 69.56640625 374.171875 94.28515625 348.567382812 125.56640625 348.567382812 c 0
 156.826171875 348.567382812 181.56640625 374.166015625 181.56640625 405.129882812 c 0
 181.56640625 436.086914062 156.848632812 461.692382812 125.56640625 461.692382812 c 0
 94.3056640625 461.692382812 69.56640625 436.092773438 69.56640625 405.129882812 c 0
538.541015625 293 m 0
 538.541015625 576.88671875 464.08984375 712 310.984375 712 c 0
 240.112304688 712 171.635742188 665.926757812 148.311523438 605 c 1
 114.311523438 618 l 1
 142.510742188 692.592773438 225.298828125 749 310.984375 749 c 0
 488.984375 749 575.541015625 601.955078125 575.541015625 293 c 0
 575.541015625 145.134765625 566.181640625 3 438.984375 3 c 0
 343.818359375 3 324.818359375 85 320.984375 115 c 1
 317.150390625 85 298.150390625 3 202.984375 3 c 0
 114.384765625 3 79.541015625 81.4208984375 79.541015625 179.102539062 c 0
 79.541015625 362.020507812 199.729492188 378 227.150390625 378 c 0
 295.150390625 378 291.150390625 362 341.150390625 362 c 0
 366.822265625 362 390.150390625 381.764648438 390.150390625 418 c 0
 390.150390625 485.913085938 294.526367188 506 229.150390625 506 c 0
 191.208984375 506 72.150390625 501.454101562 72.150390625 436 c 1
 33.150390625 415 l 1
 47.150390625 513.637695312 137.962890625 539.02734375 229.150390625 539.02734375 c 0
 342.303710938 539.02734375 427.150390625 503.184570312 427.150390625 418 c 0
 427.150390625 347.448242188 378.384765625 325 341.150390625 325 c 0
 283.150390625 325 281.150390625 341 227.150390625 341 c 0
 172.1875 341 116.541015625 298.715820312 116.541015625 180.102539062 c 0
 116.541015625 102.389648438 140.940429688 40 202.984375 40 c 0
 294.150390625 40 300.7421875 148.885742188 303.984375 224.5 c 1
 337.984375 224.5 l 1
 341.2265625 148.885742188 347.818359375 40 438.984375 40 c 0
 531.717773438 40 538.541015625 164 538.541015625 293 c 0
EndSplineSet
Layer: 2
SplineSet
23.63671875 411.650390625 m 0
 23.63671875 476.809570312 76.126953125 529.298828125 141.287109375 529.298828125 c 0
 206.446289062 529.298828125 258.935546875 476.80859375 258.935546875 411.650390625 c 0
 258.935546875 346.490234375 206.4453125 294 141.287109375 294 c 0
 76.126953125 294 23.63671875 346.490234375 23.63671875 411.650390625 c 0
102.622070312 411.301757812 m 0
 102.622070312 389.05078125 120.254882812 371.126953125 142.143554688 371.126953125 c 0
 164.032226562 371.126953125 181.665039062 389.05078125 181.665039062 411.301757812 c 0
 181.665039062 433.551757812 164.032226562 451.4765625 142.143554688 451.4765625 c 0
 120.254882812 451.4765625 102.622070312 433.551757812 102.622070312 411.301757812 c 0
102.622070312 411.301757812 m 1
 23.287109375 420 l 1
 34.287109375 527 132.287109375 551.563476562 215.287109375 551.563476562 c 0
 303.790039062 551.563476562 437.56640625 540 437.56640625 416.01171875 c 0
 437.56640625 344.387695312 375.552734375 282.552734375 288.287109375 310 c 0
 222.904296875 330.564453125 174.8046875 292.291015625 174.8046875 193.4375 c 0
 174.8046875 156.329101562 180.478515625 114.653320312 217.736328125 114.653320312 c 0
 259.912109375 114.653320312 274.91796875 179.678710938 274.91796875 249.500976562 c 1
 370.829101562 249.500976562 l 1
 370.829101562 176.750976562 386.296875 115.000976562 429.287109375 115.000976562 c 0
 486.04296875 115.000976562 486.04296875 239.958984375 486.04296875 293.000976562 c 0
 486.04296875 522.797851562 443.04296875 639.885742188 305.04296875 639.885742188 c 0
 263.939453125 639.885742188 216.280273438 618.9609375 199.225585938 576.856445312 c 1
 90.193359375 613.030273438 l 1
 126.177734375 707.869140625 218.323242188 755.001953125 305.043945312 755.001953125 c 0
 522.043945312 755.001953125 601.043945312 599.057617188 601.043945312 293.001953125 c 0
 601.043945312 181.997070312 600.043945312 0.001953125 429.288085938 0.001953125 c 0
 373.368164062 0.001953125 335.345703125 33.146484375 320.525390625 79.0322265625 c 1
 304.379882812 31.6044921875 264.967773438 0.001953125 212.288085938 0.001953125 c 0
 96.48828125 0.001953125 67.806640625 105.455078125 67.806640625 193.438476562 c 0
 67.806640625 384.001953125 220.288085938 408.002929688 305.288085938 389.001953125 c 0
 327.799804688 383.969726562 342.216796875 403.6484375 342.216796875 421.37109375 c 0
 342.216796875 466.967773438 279.526367188 472.549804688 227.288085938 464.001953125 c 1
 168.288085938 464.001953125 102.623046875 460.001953125 102.623046875 411.303710938 c 1
 102.622070312 411.301757812 l 1
EndSplineSet
Layer: 3
SplineSet
54.541015625 417.150390625 m 4
 54.541015625 468.2578125 95.58203125 509.298828125 146.69140625 509.298828125 c 4
 197.798828125 509.298828125 238.83984375 468.2578125 238.83984375 417.150390625 c 4
 238.83984375 366.041015625 197.797851562 325 146.69140625 325 c 4
 95.58203125 325 54.541015625 366.041015625 54.541015625 417.150390625 c 4
91.107421875 417.129882812 m 4
 91.107421875 386.171875 115.826171875 360.567382812 147.107421875 360.567382812 c 4
 178.3671875 360.567382812 203.107421875 386.166015625 203.107421875 417.129882812 c 4
 203.107421875 448.086914062 178.389648438 473.692382812 147.107421875 473.692382812 c 4
 115.846679688 473.692382812 91.107421875 448.092773438 91.107421875 417.129882812 c 4
538.08203125 293 m 4
 538.08203125 576.88671875 463.630859375 712 310.525390625 712 c 4
 239.653320312 712 171.176757812 665.926757812 147.852539062 605 c 5
 113.852539062 618 l 5
 142.051757812 692.592773438 224.83984375 749 310.525390625 749 c 4
 488.525390625 749 575.08203125 601.955078125 575.08203125 293 c 4
 575.08203125 145.134765625 565.72265625 3 438.525390625 3 c 4
 343.359375 3 324.359375 85 320.525390625 115 c 5
 316.69140625 85 297.69140625 3 202.525390625 3 c 4
 113.92578125 3 79.08203125 81.4208984375 79.08203125 179.102539062 c 4
 79.08203125 362.020507812 199.270507812 378 226.69140625 378 c 4
 286.69140625 378 300.370117188 357 333.69140625 357 c 4
 365.125976562 357 393.69140625 379.94140625 393.69140625 422 c 4
 393.69140625 505.265625 304.600585938 514 243.69140625 514 c 4
 206.716796875 514 90.69140625 509 90.69140625 437 c 5
 56.69140625 437 l 5
 76.0361328125 524 156.69140625 547.02734375 243.69140625 547.02734375 c 4
 350.55859375 547.02734375 430.69140625 518.174804688 430.69140625 422 c 4
 430.69140625 344.62109375 375.688476562 320 333.69140625 320 c 4
 300.890625 320 272.306640625 341 226.69140625 341 c 4
 171.728515625 341 116.08203125 298.715820312 116.08203125 180.102539062 c 4
 116.08203125 102.389648438 140.481445312 40 202.525390625 40 c 4
 293.69140625 40 300.283203125 148.885742188 303.525390625 224.5 c 5
 337.525390625 224.5 l 5
 340.767578125 148.885742188 347.359375 40 438.525390625 40 c 4
 531.258789062 40 538.08203125 164 538.08203125 293 c 4
EndSplineSet
EndChar

StartChar: si_Nnga
Encoding: 26 3487 30
Width: 787
VWidth: 0
Flags: HW
LayerCount: 4
Fore
SplineSet
380 276 m 5
 424.565429688 295.977539062 430.831054688 338.025390625 430.831054688 369.950195312 c 4
 430.831054688 382.439453125 429.872070312 393.379882812 429.872070312 400.84375 c 4
 429.872070312 512.850585938 499 581 579 581 c 4
 671.438476562 581 754.372070312 528 754.372070312 292 c 4
 754.372070312 57 672.041015625 3 586 3 c 4
 530.235351562 3 493.760742188 31.681640625 475 70.796875 c 4
 498.372070312 123 l 5
 501.372070312 83 533.372070312 40 586 40 c 4
 652.877929688 40 716.872070312 87.0869140625 716.872070312 292 c 4
 716.872070312 497.78515625 652.701171875 544 579 544 c 4
 503.452148438 544 466.872070312 474.38671875 466.872070312 400.84375 c 4
 466.872070312 392.55859375 467.45703125 382.064453125 467.45703125 370.387695312 c 4
 467.45703125 328.727539062 460.012695312 272.025390625 392 247 c 5
 380 276 l 5
184 276 m 4
 184 524.009765625 266.331054688 581 352.372070312 581 c 4
 426 581 466 531 476 473 c 5
 440 461 l 5
 437 501 405 544 352.372070312 544 c 4
 285.494140625 544 221.5 493.923828125 221.5 276 c 4
 221.5 83.2802734375 295.298828125 40 369 40 c 4
 455.76953125 40 488.127929688 111.732421875 488.127929688 174 c 4
 488.127929688 224.729492188 464.17578125 268.541015625 427 272 c 5
 444 301 l 5
 480 298.771484375 525.127929688 249.754882812 525.127929688 174 c 4
 525.127929688 94.5390625 482.719726562 3 369 3 c 4
 276.561523438 3 184 53.0654296875 184 276 c 4
33 281 m 4
 33 513.989257812 99.1767578125 576 161.493164062 576 c 4
 221.020507812 576 249.475585938 531 249.475585938 471.000976562 c 5
 216 471.000976562 l 5
 214.709960938 518.658203125 191.396484375 539 161.493164062 539 c 4
 117.12109375 539 70 484.766601562 70 281 c 4
 70 111.294921875 103.9375 47.2626953125 145 40 c 5
 145 3 l 5
 83.6806640625 11.3779296875 33 85.240234375 33 281 c 4
EndSplineSet
Layer: 2
SplineSet
96.3720703125 284 m 5
 96.3720703125 131.65625 120.151367188 102 153.372070312 102 c 5
 153.372070312 0 l 5
 58.3720703125 0 -9.6279296875 46.27734375 -9.6279296875 284 c 4
 -9.6279296875 506.57421875 75.552734375 584 179.651367188 584 c 4
 248.970703125 584 286.80078125 527.581054688 295.279296875 487 c 5
 241.279296875 426 l 5
 236.102539062 442.5859375 221.279296875 480 179.651367188 480 c 4
 136.07421875 480 96.3720703125 425.659179688 96.3720703125 284 c 5
 96.3720703125 284 l 5
367.372070312 106 m 4
 317.787109375 106 268.372070312 136.453125 268.372070312 284 c 4
 268.372070312 425.659179688 307.641601562 480 350.744140625 480 c 4
 392.372070312 480 407.1953125 442.5859375 412.372070312 426 c 5
 477.372070312 498 l 5
 468.086914062 533.978515625 426.658203125 584 350.744140625 584 c 4
 247.14453125 584 162.372070312 506.57421875 162.372070312 284 c 4
 162.372070312 49.625 260.373046875 0 367.372070312 0 c 4
 497.932617188 0 551.364257812 104.57421875 551.364257812 199 c 4
 551.364257812 255.70703125 527.372070312 330 457.372070312 350 c 5
 390.372070312 280 l 5
 402.634765625 275.094726562 448.372070312 249 448.372070312 199 c 4
 448.372070312 155.278320312 428.372070312 106 367.372070312 106 c 4
571.279296875 0.15625 m 4
 678.278320312 0.15625 776.279296875 51.625 776.279296875 286 c 4
 776.279296875 520.375 678.278320312 584 571.279296875 584 c 4
 491.372070312 584 406.372070312 527 406.372070312 401 c 4
 406.372070312 369 402.372070312 344 350.372070312 311 c 5
 403.372070312 220 l 5
 463.372070312 254 508.372070312 306.241210938 508.372070312 362 c 4
 508.372070312 438 523.8671875 478 571.279296875 478 c 5
 620.864257812 478 670.279296875 433.546875 670.279296875 286 c 4
 670.279296875 136.084960938 620.859375 104 571.279296875 104 c 5
 529.651367188 104 514.828125 141.5703125 509.651367188 158.15625 c 5
 444.651367188 86.15625 l 5
 453.936523438 50.1787109375 495.365234375 0.15625 571.279296875 0.15625 c 4
EndSplineSet
EndChar

StartChar: si_Ca
Encoding: 27 3488 31
Width: 524
VWidth: 0
Flags: HW
LayerCount: 4
Fore
SplineSet
47.2431640625 207 m 4
 47.2431640625 309.341796875 97.2431640625 349 106.243164062 354 c 5
 33 354 l 5
 33 389 l 5
 305.51953125 389 l 5
 313.243164062 354 l 5
 183.243164062 354 l 6
 132.243164062 354 83.2431640625 296.708984375 83.2431640625 208 c 4
 83.2431640625 142.71484375 115.393554688 40 252.243164062 40 c 4
 380.108398438 40 453.243164062 150.518554688 453.243164062 354 c 4
 453.243164062 634.014648438 362.465820312 712 251.243164062 712 c 4
 180.37109375 712 122.567382812 665.926757812 99.2431640625 605 c 5
 65.2431640625 618 l 5
 103.243164062 716 191.2109375 749 251.243164062 749 c 4
 383.388671875 749 491.243164062 662.955078125 491.243164062 354 c 4
 491.243164062 126.541015625 404.282226562 3 252.243164062 3 c 4
 86.2431640625 3 47.2431640625 127.725585938 47.2431640625 207 c 4
81.2431640625 420 m 4
 81.2431640625 488 132.586914062 524 191.243164062 524 c 4
 255.799804688 524 315.6875 481.098632812 315.6875 387 c 4
 315.6875 375.040039062 314.801757812 364.26171875 313.243164062 354 c 5
 281.86328125 379 l 5
 281.770507812 381.637695312 281.6875 384.229492188 281.6875 387 c 4
 281.6875 457.74609375 239.60546875 490 191.243164062 490 c 4
 149.286132812 490 114.71875 467 114.71875 420 c 4
 114.71875 406.329101562 117.708007812 394.165039062 122.624023438 384 c 4
 93.75390625 370 l 4
 86.400390625 384.3203125 81.2431640625 401.845703125 81.2431640625 420 c 4
EndSplineSet
Layer: 2
SplineSet
151.502929688 404.787109375 m 6
 151.502929688 391.465820312 156.01953125 377.438476562 164.927734375 366.3203125 c 5
 89.216796875 328.3203125 l 5
 68.1904296875 356.120117188 58.927734375 385.978515625 58.927734375 414.419921875 c 4
 58.927734375 486.68359375 110.993164062 531.563476562 185.293945312 531.563476562 c 4
 262.280273438 531.563476562 333.6796875 474.899414062 333.6796875 365.563476562 c 4
 333.6796875 351 330.486328125 325 326.430664062 306 c 5
 326.430664062 306 234.985351562 366.313476562 236.05078125 371.875 c 4
 242.590820312 406 226.590820312 444 185.294921875 444 c 4
 160.495117188 444 151.502929688 426.133789062 151.502929688 404.787109375 c 6
 151.502929688 404.787109375 l 6
252.486328125 0 m 5
 74.486328125 0 25.033203125 133.560546875 35.078125 223 c 4
 38.6943359375 255.19921875 49.486328125 286 64.486328125 306 c 5
 27.7255859375 306 l 5
 27.7255859375 393 l 5
 292.590820312 390 l 5
 326.430664062 306 l 5
 219.487304688 306 l 6
 162.702148438 306 142.46875 261.911132812 142.46875 214.068359375 c 4
 142.46875 166.573242188 171.802734375 115 252.487304688 115 c 4
 356.939453125 115 398.487304688 195.017578125 398.487304688 354 c 4
 398.487304688 583 327.166992188 640 244.341796875 640 c 4
 203.23828125 640 163.15234375 618.959960938 146.09765625 576.85546875 c 5
 37.0654296875 613.029296875 l 5
 73.0498046875 707.868164062 157.62109375 755 244.340820312 755 c 4
 383.813476562 755 514.487304688 675.859375 514.487304688 354 c 4
 513.487304688 118 432.487304688 0 252.487304688 0 c 5
 252.486328125 0 l 5
EndSplineSet
EndChar

StartChar: si_Cha
Encoding: 28 3489 32
Width: 602
VWidth: 0
Flags: HW
LayerCount: 4
Fore
SplineSet
412.864257812 575 m 4
 484.497070312 647.765625 533 705.78125 533 776 c 5
 569 776 l 5
 569 698.186523438 518.716796875 632.517578125 441.609375 553 c 4
 412.864257812 575 l 4
271.833984375 454 m 4
 271.833984375 466.185546875 272.837890625 477.513671875 274.7265625 488 c 4
 287.419921875 558.491210938 340.08203125 591 396.278320312 591 c 4
 491 591 526 505 526 426 c 4
 526 296.291992188 465.155273438 196 368 196 c 4
 300.65625 196 267.956054688 247.021484375 267.956054688 298.337890625 c 4
 267.956054688 338.4609375 287.947265625 378.764648438 327 395 c 5
 347 366 l 5
 320.153320312 355.845703125 305.698242188 326.09375 305.698242188 296.997070312 c 4
 305.698242188 263.052734375 325.372070312 230 368 230 c 4
 438 230 492.524414062 322 492.524414062 426 c 4
 492.524414062 482.04296875 463 557 396.278320312 557 c 4
 347.916015625 557 305.833984375 524.74609375 305.833984375 454 c 4
 305.833984375 435 305.833984375 416 305.833984375 402 c 5
 288.833984375 369 l 5
 279.118164062 397.663085938 271.833984375 421.383789062 271.833984375 454 c 4
70 224.436523438 m 4
 70 107.2421875 156.024414062 30 288.833984375 30 c 4
 421.643554688 30 507.66796875 106.805664062 507.66796875 224 c 4
 507.66796875 299.407226562 469.19140625 365 385 365 c 6
 192.66796875 365 l 6
 108.4765625 365 70 299.84375 70 224.436523438 c 4
33 224.436523438 m 4
 33 319.693359375 85.9033203125 402 192.66796875 402 c 6
 385 402 l 6
 491.764648438 402 544.66796875 319.256835938 544.66796875 224 c 4
 544.66796875 84.5048828125 444.33984375 -7 288.833984375 -7 c 4
 133.328125 -7 33 84.94140625 33 224.436523438 c 4
65.080078125 474 m 4
 65.080078125 553 124.682617188 591 181.388671875 591 c 4
 237.584960938 591 290.247070312 558.491210938 302.940429688 488 c 4
 304.829101562 477.513671875 305.833007812 466.185546875 305.833007812 454 c 4
 305.833007812 421.383789062 298.548828125 397.663085938 288.833007812 369 c 5
 271.833007812 402 l 5
 271.833007812 416 271.833984375 435 271.833984375 454 c 4
 271.833984375 524.74609375 229.750976562 557 181.388671875 557 c 4
 141.00390625 557 98.5556640625 530.04296875 98.5556640625 474 c 4
 98.5556640625 437.958984375 115.944335938 402 142.944335938 382 c 5
 116.944335938 361 l 5
 85.3974609375 385.565429688 65.080078125 429.732421875 65.080078125 474 c 4
EndSplineSet
Layer: 2
SplineSet
228.435546875 391.436523438 m 5
 238.19140625 416.436523438 l 5
 239.252929688 422.678710938 239.755859375 428.6484375 239.755859375 434.311523438 c 4
 239.755859375 471.944335938 217.526367188 496 189 496 c 4
 159.64453125 496 143.81640625 475 143.81640625 451.1640625 c 4
 143.81640625 439.108398438 150.452148438 419.560546875 158.435546875 410.436523438 c 5
 80.435546875 370.436523438 l 5
 61.1259765625 395.643554688 50.3408203125 428.604492188 50.3408203125 456.407226562 c 4
 50.3408203125 532.13671875 102.440429688 594 189 594 c 4
 240.045898438 594 288.631835938 569.090820312 315.580078125 520.436523438 c 5
 329.27734375 495.708007812 318.478515625 463.28125 318.478515625 426.436523438 c 4
 318.478515625 395.171875 330.435546875 358.436523438 318.435546875 319.436523438 c 5
 228.435546875 391.436523438 l 5
327.478515625 530.436523438 m 1
 327.478515625 530.436523438 314.719726562 532.9921875 358.478515625 576.436523438 c 0
 489.192382812 706.2109375 494.478515625 744.436523438 494.478515625 803.436523438 c 0
 610.478515625 803.436523438 l 0
 610.478515625 738.436523438 614.477539062 687.4375 509.478515625 574.436523438 c 0
 499.2578125 563.436523438 446.478515625 488.436523438 446.478515625 488.436523438 c 1
 369.478515625 520.436523438 l 1
 327.478515625 530.436523438 l 1
368.478515625 416.436523438 m 16
 490.861328125 416.436523438 551.91796875 330.088867188 551.91796875 224.436523438 c 0
 551.91796875 -90.5634765625 22.478515625 -90.5595703125 22.478515625 224.436523438 c 0
 22.478515625 330.088867188 83.53515625 416.436523438 205.91796875 416.436523438 c 0
 225.400390625 416.436523438 236.6796875 416.436523438 236.6796875 416.436523438 c 2
 269.91796875 416.436523438 303.91796875 416.436523438 337.716796875 416.436523438 c 2
 337.716796875 416.436523438 343.435546875 416.436523438 368.478515625 416.436523438 c 16
362.478515625 318.436523438 m 0
 342.478515625 318.436523438 l 1
 211.91796875 318.436523438 l 0
 156.91796875 318.436523438 129.478515625 276.162109375 129.478515625 224.436523438 c 0
 129.478515625 64.359375 444.91796875 64.9599609375 444.91796875 224.436523438 c 0
 444.91796875 253.267578125 436.393554688 279.162109375 419.323242188 296.436523438 c 1
 405.767578125 310.154296875 386.822265625 318.436523438 362.478515625 318.436523438 c 0
228.435546875 391.436523438 m 1
 238.19140625 416.436523438 l 1
 239.252929688 422.678710938 239.755859375 428.6484375 239.755859375 434.311523438 c 0
 239.755859375 471.944335938 217.526367188 496 189 496 c 0
 159.64453125 496 143.81640625 475 143.81640625 451.1640625 c 0
 143.81640625 439.108398438 150.452148438 419.560546875 158.435546875 410.436523438 c 1
 80.435546875 370.436523438 l 1
 61.1259765625 395.643554688 50.3408203125 428.604492188 50.3408203125 456.407226562 c 0
 50.3408203125 532.13671875 102.440429688 594 189 594 c 0
 240.045898438 594 288.631835938 569.090820312 315.580078125 520.436523438 c 1
 329.27734375 495.708007812 318.478515625 463.28125 318.478515625 426.436523438 c 0
 318.478515625 395.171875 330.435546875 358.436523438 318.435546875 319.436523438 c 1
 228.435546875 391.436523438 l 1
345.9609375 391.436523438 m 1
 255.9609375 319.436523438 l 1
 243.9609375 358.436523438 237.01171875 396.735351562 237.01171875 428 c 0
 237.01171875 537.3359375 308.40625 594 385.396484375 594 c 0
 471.956054688 594 534.954101562 538.436523438 534.954101562 408.6796875 c 0
 534.954101562 262.436523438 456.478515625 191.436523438 358.478515625 191.436523438 c 0
 263.478515625 191.436523438 234.478515625 274.436523438 261.478515625 319.436523438 c 1
 350.478515625 318.436523438 l 1
 327.478515625 312.436523438 331.478515625 277.943359375 363.49609375 277.943359375 c 0
 404.478515625 277.943359375 441.478515625 302.436523438 441.478515625 403.436523438 c 0
 441.478515625 474.436523438 414.751953125 496 385.396484375 496 c 0
 356.870117188 496 334.640625 471.944335938 334.640625 434.311523438 c 0
 334.640625 428.6484375 335.143554688 422.678710938 336.205078125 416.436523438 c 1
 345.9609375 391.436523438 l 1
EndSplineSet
EndChar

StartChar: si_Ja
Encoding: -1 3490 33
Width: 594
VWidth: 0
Flags: HW
LayerCount: 4
Fore
SplineSet
574 776 m 1
 574 677.844938508 525.442698279 629.109691011 450.590130411 556 c 0
 421.907458872 578 l 0
 491.541315806 644.760334741 538 687.527365415 538 776 c 1
 574 776 l 1
EndSplineSet
EndChar

StartChar: si_Jha
Encoding: 30 3491 34
Width: 1013
VWidth: 0
Flags: HW
LayerCount: 4
Fore
SplineSet
481.37109375 214.000976562 m 4
 481.37109375 266.264648438 492.341796875 312.663085938 510.478515625 350.000976562 c 4
 539.598632812 409.94921875 587.19140625 446.5390625 637.508789062 446.5390625 c 4
 656.413085938 446.5390625 674.756835938 441.80078125 694.508789062 432.000976562 c 5
 678.508789062 400.000976562 l 5
 664.30078125 407.104492188 651.106445312 410.5390625 637.508789062 410.5390625 c 4
 598.73828125 410.5390625 563.616210938 379.614257812 541.713867188 331.000976562 c 4
 527.099609375 298.564453125 518.37109375 258.25390625 518.37109375 214.000976562 c 4
 518.37109375 130.796875 540.763671875 40.0009765625 608.205078125 40.0009765625 c 4
 699.37109375 40.0009765625 705.962890625 148.88671875 709.205078125 224.500976562 c 5
 743.205078125 224.500976562 l 5
 746.447265625 148.88671875 753.0390625 40.0009765625 844.205078125 40.0009765625 c 4
 936.938476562 40.0009765625 943.76171875 164.000976562 943.76171875 293.000976562 c 4
 943.76171875 576.887695312 869.310546875 712.000976562 716.205078125 712.000976562 c 4
 645.333007812 712.000976562 576.856445312 665.927734375 553.532226562 605.000976562 c 5
 519.532226562 618.000976562 l 5
 547.731445312 692.59375 630.51953125 749.000976562 716.205078125 749.000976562 c 4
 894.205078125 749.000976562 980.76171875 601.956054688 980.76171875 293.000976562 c 4
 980.76171875 145.135742188 971.40234375 3.0009765625 844.205078125 3.0009765625 c 4
 749.0390625 3.0009765625 730.0390625 85.0009765625 726.205078125 115.000976562 c 5
 722.37109375 85.0009765625 703.37109375 3.0009765625 608.205078125 3.0009765625 c 4
 510.209960938 3.0009765625 481.37109375 115.607421875 481.37109375 214.000976562 c 4
33 184 m 5
 251 458 l 6
 302.665039062 522.936523438 366.434570312 572 440 572 c 4
 526.536132812 572 600.353515625 525.958007812 635.959960938 420 c 5
 601.251953125 406 l 5
 573.510742188 492.6875 511.049804688 535 440 535 c 4
 375.755859375 535 323.030273438 489.90234375 278 433 c 6
 84.90625 189 l 5
 58 155 l 5
 33 184 l 5
73.9990234375 105 m 4
 73.9990234375 110.7109375 74.80078125 120.66796875 74.80078125 130.404296875 c 4
 74.80078125 144.301757812 73.1669921875 157.747070312 65.236328125 157.747070312 c 4
 63.2451171875 157.747070312 60.857421875 156.899414062 57.9990234375 155 c 5
 64.9990234375 184 l 5
 81.9990234375 190 l 5
 83.6396484375 190.4609375 85.109375 190.739257812 87 190.739257812 c 4
 105.915039062 190.739257812 108.25 155.333007812 108.25 127.893554688 c 4
 108.25 118.896484375 107.999023438 110.754882812 107.999023438 105 c 4
 107.999023438 68.7001953125 118.00390625 40 157.999023438 40 c 4
 209.756835938 40 223.231445312 100.280273438 223.877929688 159 c 6
 223.999023438 170 l 5
 259.999023438 170 l 5
 260.120117188 159 l 6
 260.766601562 100.280273438 274.241210938 40 325.999023438 40 c 4
 402.447265625 40 404.999023438 157.619140625 404.999023438 196 c 4
 404.999023438 336.163085938 353.231445312 387.666992188 293.999023438 387.666992188 c 4
 254.999023438 387.666992188 235.999023438 375 218.999023438 360 c 5
 204.999023438 382 l 5
 227.999023438 402 256.999023438 424.666992188 293.999023438 424.666992188 c 4
 372.999023438 424.666992188 442.041992188 363.220703125 442.041992188 196 c 4
 442.041992188 123.088867188 429.497070312 3 325.999023438 3 c 4
 267.938476562 3 242.999023438 48 241.999023438 79 c 5
 241.999023438 48 219.143554688 3 157.999023438 3 c 4
 90.8076171875 3 73.9990234375 48.037109375 73.9990234375 105 c 4
36.24609375 474 m 4
 36.24609375 553 95.8486328125 591 152.5546875 591 c 4
 217.111328125 591 276.999023438 548.098632812 276.999023438 454 c 4
 242.999023438 402 l 5
 242.999023438 416 242.999023438 435 242.999023438 454 c 4
 242.999023438 524.74609375 200.916992188 557 152.5546875 557 c 4
 112.168945312 557 69.7216796875 530.04296875 69.7216796875 474 c 4
 69.7216796875 407.775390625 112.999023438 368 189.999023438 356 c 5
 181.999023438 325 l 5
 94.9990234375 338 36.24609375 390.377929688 36.24609375 474 c 4
EndSplineSet
Layer: 2
SplineSet
495.674804688 231.204101562 m 1
 495.674804688 277.470703125 501.935546875 319.594726562 509.802734375 345 c 0
 533.872070312 422.728515625 589.25390625 472 661.352539062 472 c 0
 689.119140625 472 718.150390625 465.063476562 746.524414062 445.2578125 c 1
 708.659179688 345 l 1
 694.811523438 352.989257812 682.141601562 356.607421875 670.795898438 356.607421875 c 0
 644.012695312 356.607421875 623.971679688 336.647460938 614.5390625 306 c 0
 610.107421875 291.600585938 606.622070312 261.723632812 606.622070312 229.770507812 c 0
 606.622070312 175.234375 616.775390625 114.65234375 649.712890625 114.65234375 c 0
 691.888671875 114.65234375 706.89453125 179.677734375 706.89453125 249.5 c 1
 802.805664062 249.5 l 1
 802.805664062 176.75 818.2734375 115 861.263671875 115 c 0
 918.01953125 115 918.01953125 239.958007812 918.01953125 293 c 0
 918.01953125 522.796875 875.01953125 639.885742188 737.01953125 639.885742188 c 0
 695.916015625 639.885742188 648.256835938 618.9609375 631.202148438 576.856445312 c 1
 522.169921875 613.030273438 l 1
 558.154296875 707.869140625 650.299804688 755.000976562 737.020507812 755.000976562 c 0
 954.020507812 755.000976562 1033.02050781 599.056640625 1033.02050781 293.000976562 c 0
 1033.02050781 181.997070312 1032.02050781 0.0009765625 861.264648438 0.0009765625 c 0
 805.344726562 0.0009765625 767.322265625 33.1455078125 752.501953125 79.03125 c 1
 736.356445312 31.603515625 696.944335938 0.0009765625 644.264648438 0.0009765625 c 0
 527.65625 0.0009765625 495.67578125 126.225585938 495.67578125 231.205078125 c 1
 495.674804688 231.204101562 l 1
31.7607421875 126 m 1
 71.1328125 214 l 1
 116.760742188 206 l 1
 122.760742188 197 130.220703125 191.751953125 130.220703125 156 c 0
 130.220703125 138.591796875 131.853515625 109 155.1328125 109 c 0
 173.790039062 109 190.1328125 119 190.1328125 160 c 2
 190.1328125 227 l 1
 280.1328125 227 l 1
 280.1328125 160 l 2
 280.1328125 122 292.1328125 109 318.1328125 109 c 0
 353.1328125 109 358.220703125 165.987304688 358.220703125 210 c 0
 358.220703125 335.987304688 278.1328125 364 227.1328125 346 c 1
 300.1328125 426 l 1
 322.57421875 437 465.220703125 431 465.220703125 210 c 0
 465.220703125 112.106445312 425.17578125 0 319.17578125 0 c 0
 280.17578125 0 245.17578125 29 235.760742188 52 c 1
 227.17578125 31 196.17578125 0 159.760742188 0 c 0
 2.7607421875 0 95.30078125 165 31.7607421875 126 c 1
27.7607421875 232 m 1
 91.7705078125 297.920898438 173.806640625 404.030273438 247.220703125 489 c 0
 295.868164062 545.3046875 348.1328125 585 438.1328125 585 c 0
 530.866210938 585 612.76953125 536.659179688 652.106445312 428 c 1
 549.657226562 383 l 1
 529.663085938 441.520507812 491.615234375 473 438.1328125 473 c 0
 385.1328125 473 358.7109375 457.000976562 319.1328125 416 c 0
 316.823242188 413.607421875 208.374023438 290.752929688 124.388671875 206 c 0
 78.7744140625 159.96875 31.7607421875 126 31.7607421875 126 c 2
 27.7607421875 232 l 1
159.748046875 594 m 0
 236.73828125 594 308.1328125 537.3359375 308.1328125 428 c 0
 308.1328125 396.735351562 297.220703125 389.899414062 272.220703125 369.899414062 c 1
 208.939453125 416.436523438 l 1
 210.000976562 422.678710938 210.50390625 428.6484375 210.50390625 434.311523438 c 0
 210.50390625 471.944335938 186.659179688 496 158.1328125 496 c 0
 130.298828125 496 116.708007812 475.012695312 116.708007812 451.903320312 c 0
 116.708007812 411.899414062 143.931640625 394.899414062 173.931640625 387.899414062 c 1
 114.220703125 327.899414062 l 1
 68.931640625 344.899414062 24.1328125 391.899414062 24.1328125 461.536132812 c 0
 24.1328125 532.131835938 72.1328125 594 159.748046875 594 c 0
EndSplineSet
Layer: 3
SplineSet
507.66796875 214.000976562 m 4
 507.66796875 350.177734375 582.149414062 446.5390625 663.805664062 446.5390625 c 4
 682.709960938 446.5390625 701.053710938 441.80078125 720.805664062 432.000976562 c 5
 704.805664062 400.000976562 l 5
 690.59765625 407.104492188 677.403320312 410.5390625 663.805664062 410.5390625 c 4
 599.166992188 410.5390625 544.66796875 324.577148438 544.66796875 214.000976562 c 4
 544.66796875 130.796875 567.060546875 40.0009765625 634.501953125 40.0009765625 c 4
 725.66796875 40.0009765625 732.259765625 148.88671875 735.501953125 224.500976562 c 5
 769.501953125 224.500976562 l 5
 772.744140625 148.88671875 779.3359375 40.0009765625 870.501953125 40.0009765625 c 4
 963.235351562 40.0009765625 970.05859375 164.000976562 970.05859375 293.000976562 c 4
 970.05859375 576.887695312 895.607421875 712.000976562 742.501953125 712.000976562 c 4
 671.629882812 712.000976562 603.153320312 665.927734375 579.829101562 605.000976562 c 5
 545.829101562 618.000976562 l 5
 574.028320312 692.59375 656.81640625 749.000976562 742.501953125 749.000976562 c 4
 920.501953125 749.000976562 1007.05859375 601.956054688 1007.05859375 293.000976562 c 4
 1007.05859375 145.135742188 997.69921875 3.0009765625 870.501953125 3.0009765625 c 4
 775.3359375 3.0009765625 756.3359375 85.0009765625 752.501953125 115.000976562 c 5
 748.66796875 85.0009765625 729.66796875 3.0009765625 634.501953125 3.0009765625 c 4
 536.506835938 3.0009765625 507.66796875 115.607421875 507.66796875 214.000976562 c 4
441.803710938 196 m 4
 441.803710938 123.088867188 429.258789062 3 325.760742188 3 c 4
 267.700195312 3 242.760742188 48 241.760742188 79 c 5
 241.760742188 48 218.905273438 3 157.760742188 3 c 4
 90.5693359375 3 73.7607421875 48.037109375 73.7607421875 105 c 4
 73.7607421875 120.909179688 79.9833984375 169.772460938 57.7607421875 155 c 5
 81.7607421875 190 l 5
 112.403320312 198.607421875 107.760742188 129.747070312 107.760742188 105 c 4
 107.760742188 68.7001953125 117.765625 40 157.760742188 40 c 4
 212.760742188 40 223.760742188 108.077148438 223.760742188 170 c 5
 259.760742188 170 l 5
 259.760742188 108.077148438 270.760742188 40 325.760742188 40 c 4
 402.208984375 40 404.760742188 157.619140625 404.760742188 196 c 4
 404.760742188 336.163085938 352.993164062 387.666992188 293.760742188 387.666992188 c 4
 254.760742188 387.666992188 235.760742188 375 218.760742188 360 c 5
 204.760742188 382 l 5
 227.760742188 402 256.760742188 424.666992188 293.760742188 424.666992188 c 4
 372.760742188 424.666992188 441.803710938 363.220703125 441.803710938 196 c 4
601.013671875 406 m 4
 573.29296875 505.51953125 514.469726562 545 449.760742188 545 c 4
 381.55078125 545 326.545898438 494.647460938 277.760742188 433 c 6
 57.7607421875 155 l 5
 32.7607421875 184 l 5
 250.760742188 458 l 6
 306.232421875 527.721679688 372.302734375 582 449.760742188 582 c 4
 529.825195312 582 602.505859375 536.08203125 635.721679688 420 c 4
 601.013671875 406 l 4
69.4833984375 474 m 4
 69.4833984375 407.775390625 112.760742188 368 189.760742188 356 c 5
 181.760742188 325 l 5
 94.7607421875 338 36.0078125 390.377929688 36.0078125 474 c 4
 36.0078125 553 95.6103515625 591 152.31640625 591 c 4
 216.873046875 591 276.760742188 548.098632812 276.760742188 454 c 4
 242.760742188 402 l 5
 242.760742188 416 242.760742188 435 242.760742188 454 c 4
 242.760742188 524.74609375 200.678710938 557 152.31640625 557 c 4
 111.930664062 557 69.4833984375 530.04296875 69.4833984375 474 c 4
EndSplineSet
EndChar

StartChar: si_Ttha
Encoding: 35 3496 35
Width: 565
VWidth: 0
Flags: HW
LayerCount: 4
Fore
SplineSet
302.40234375 603 m 4
 302.40234375 667.297851562 344.885742188 706.649414062 344.885742188 740.684570312 c 4
 344.885742188 754.21875 338.16796875 766.912109375 319.390625 780 c 5
 319.390625 780 383 761 383 761 c 5
 380.655273438 749.58984375 377.099609375 726.290039062 377.099609375 726.290039062 c 5
 377.099609375 693.052734375 338.390625 661.163085938 338.390625 603 c 4
 338.390625 561.561523438 380.13671875 524.958984375 443.359375 524.958984375 c 4
 451.81640625 524.958984375 460.657226562 525.614257812 469.833984375 527 c 5
 493 522 l 5
 477.833984375 494 l 5
 465.5859375 492.012695312 453.787109375 491.073242188 442.5 491.073242188 c 4
 358.119140625 491.073242188 302.40234375 543.567382812 302.40234375 603 c 4
33 214 m 4
 33 266.263671875 43.970703125 312.662109375 62.107421875 350 c 4
 91.2275390625 409.948242188 138.8203125 446.538085938 189.137695312 446.538085938 c 4
 208.041992188 446.538085938 226.385742188 441.799804688 246.137695312 432 c 5
 230.137695312 400 l 5
 215.9296875 407.103515625 202.735351562 410.538085938 189.137695312 410.538085938 c 4
 150.3671875 410.538085938 115.245117188 379.61328125 93.3427734375 331 c 4
 78.728515625 298.563476562 70 258.252929688 70 214 c 4
 70 130.795898438 92.392578125 40 159.833984375 40 c 4
 251 40 257.591796875 148.885742188 260.833984375 224.5 c 5
 294.833984375 224.5 l 5
 298.076171875 148.885742188 304.66796875 40 395.833984375 40 c 4
 488.567382812 40 495.390625 164 495.390625 293 c 4
 495.390625 382.18359375 486.118164062 458.762695312 469.859375 524 c 5
 448.681640625 608.981445312 415.649414062 674.717773438 375.8203125 724 c 5
 358.1953125 745.807617188 339.239257812 764.393554688 319.390625 780 c 5
 342.390625 807 l 5
 404.940429688 758.918945312 459.276367188 684.03515625 493.633789062 576 c 4
 518.0625 499.186523438 532.390625 405.61328125 532.390625 293 c 4
 532.390625 145.134765625 523.03125 3 395.833984375 3 c 4
 300.66796875 3 281.66796875 85 277.833984375 115 c 5
 274 85 255 3 159.833984375 3 c 4
 61.8388671875 3 33 115.606445312 33 214 c 4
EndSplineSet
Layer: 2
SplineSet
386.596679688 0 m 0
 330.676757812 0 292.654296875 33.14453125 277.833984375 79.0302734375 c 1
 261.688476562 31.6025390625 222.276367188 0 169.596679688 0 c 0
 1.5966796875 0 9.0029296875 258 34.8818359375 341 c 0
 60.1875 422.157226562 119.76171875 474.71484375 186.685546875 474.71484375 c 0
 214.452148438 474.71484375 243.484375 465.66796875 271.857421875 445.862304688 c 1
 233.9921875 345.604492188 l 1
 220.145507812 353.59375 207.474609375 357.211914062 196.12890625 357.211914062 c 0
 168.58984375 357.211914062 148.856445312 335.891601562 139.041015625 304 c 0
 127.045898438 265.024414062 121.59765625 124 169.596679688 115 c 0
 215.497070312 106.393554688 232.227539062 176.75 232.227539062 249.5 c 1
 328.138671875 249.5 l 1
 328.138671875 176.75 343.606445312 115 386.596679688 115 c 0
 443.352539062 115 443.352539062 239.958007812 443.352539062 293 c 0
 443.352539062 384.547851562 428.490234375 481.404296875 409.850585938 545 c 1
 404.112304688 579 386.112304688 628 364.029296875 648 c 1
 341.291992188 683.220703125 312.791992188 712.00390625 278.0078125 733 c 1
 350.0078125 817 l 1
 428.985351562 764.920898438 483.396484375 686.227539062 515.495117188 588 c 0
 539.483398438 514.590820312 558.352539062 410 558.352539062 293 c 0
 558.352539062 181.99609375 557.352539062 0 386.596679688 0 c 0
412.112304688 546 m 1
 422.112304688 565 429.65625 609.987304688 417.0078125 624 c 0
 410.810546875 630.865234375 376.112304688 651 365.112304688 647 c 0
 348.733398438 639.98046875 339.112304688 621.141601562 339.112304688 605 c 0
 339.112304688 584 361.112304688 554 412.112304688 546 c 1
278.0078125 733 m 1
 344.0078125 781 l 1
 387.0078125 764 l 1
 436.9140625 736.635742188 507.376953125 491.768554688 429.0078125 461 c 1
 351.387695312 463.250976562 253.124023438 525 253.124023438 611.133789062 c 0
 253.124023438 686.51171875 325.916015625 697.581054688 278.0078125 733 c 1
EndSplineSet
Layer: 3
SplineSet
338.390625 603 m 0
 338.390625 556.018554688 392.051757812 515.25390625 469.833984375 527 c 1
 480.974609375 541.603515625 481.580078125 561.625 483.833984375 563 c 1
 483.833984375 563 500.060546875 504.630859375 477.833984375 494 c 1
 374.021484375 477.154296875 302.40234375 535.618164062 302.40234375 603 c 0
 302.40234375 692.866210938 385.390625 734 319.390625 780 c 1
 344.390625 785 383.390625 758 383.390625 758 c 1
 376.833984375 731 l 1
 380.833984375 696 338.390625 663.903320312 338.390625 603 c 0
532.390625 293 m 0
 532.390625 145.134765625 523.03125 3 395.833984375 3 c 0
 300.66796875 3 281.66796875 85 277.833984375 115 c 1
 274 85 255 3 159.833984375 3 c 0
 71.234375 3 36.390625 129.318359375 36.390625 227 c 0
 36.390625 287.844726562 54.5380859375 470 188 470 c 0
 225 470 245 458 264 447 c 1
 251 414 l 1
 232 425 217 433 183.280273438 433 c 0
 98 433 73.390625 277.34765625 73.390625 227 c 0
 73.390625 149.841796875 97.791015625 40 159.833984375 40 c 0
 251 40 257.591796875 148.885742188 260.833984375 224.5 c 1
 294.833984375 224.5 l 1
 298.076171875 148.885742188 304.66796875 40 395.833984375 40 c 0
 488.567382812 40 495.390625 164 495.390625 293 c 0
 495.390625 549.764648438 418.528320312 702.053710938 319.390625 780 c 1
 342.390625 807 l 1
 449.4140625 724.732421875 532.390625 564 532.390625 293 c 0
EndSplineSet
EndChar

StartChar: anusvara
Encoding: 1 3458 37
Width: 272
VWidth: 0
Flags: HW
LayerCount: 4
Fore
SplineSet
62.1005859375 265.612304688 m 0
 62.1005859375 217.12109375 74.4677734375 149.975585938 136.05078125 149.975585938 c 0
 197.6328125 149.975585938 210 217.12109375 210 265.612304688 c 0
 210 314.103515625 197.6328125 381.249023438 136.05078125 381.249023438 c 0
 74.4677734375 381.249023438 62.1005859375 314.103515625 62.1005859375 265.612304688 c 0
25.1005859375 265.612304688 m 0
 25.1005859375 357.278320312 66.216796875 418.249023438 136.05078125 418.249023438 c 0
 205.885742188 418.249023438 247 357.279296875 247 265.612304688 c 0
 247 172.620117188 215.063476562 113 136.05078125 113 c 0
 57.0380859375 113 25.1005859375 172.62109375 25.1005859375 265.612304688 c 0
EndSplineSet
Layer: 2
SplineSet
83.9208984375 265.543945312 m 0
 83.9208984375 211.90625 98.0673828125 168.388671875 135.8984375 168.388671875 c 0
 173.73046875 168.388671875 187.876953125 211.90625 187.876953125 265.543945312 c 0
 187.876953125 319.181640625 173.73046875 362.698242188 135.8984375 362.698242188 c 0
 98.0673828125 362.698242188 83.9208984375 319.181640625 83.9208984375 265.543945312 c 0
-13.59765625 265.543945312 m 0
 -13.59765625 375.155273438 37.49609375 464.086914062 135.899414062 464.086914062 c 0
 234.302734375 464.086914062 285.396484375 375.155273438 285.396484375 265.543945312 c 0
 285.396484375 155.930664062 244.709960938 67 135.899414062 67 c 0
 27.0888671875 67 -13.59765625 155.930664062 -13.59765625 265.543945312 c 0
EndSplineSet
EndChar

StartChar: visarga
Encoding: 2 3459 38
Width: 226
VWidth: 0
Flags: HW
LayerCount: 4
Fore
SplineSet
67.4931640625 152.197265625 m 0
 67.4931640625 127.950195312 89.046875 106.395507812 113.294921875 106.395507812 c 0
 137.543945312 106.395507812 159.09765625 127.950195312 159.09765625 152.197265625 c 0
 159.09765625 176.446289062 137.543945312 198 113.294921875 198 c 0
 89.046875 198 67.4931640625 176.446289062 67.4931640625 152.197265625 c 0
33 152.197265625 m 0
 33 196.668945312 68.82421875 232.4921875 113.294921875 232.4921875 c 0
 157.765625 232.4921875 193.58984375 196.668945312 193.58984375 152.197265625 c 0
 193.58984375 107.7265625 157.765625 71.90234375 113.294921875 71.90234375 c 0
 68.82421875 71.90234375 33 107.7265625 33 152.197265625 c 0
67.4931640625 405 m 0
 67.4931640625 380.752929688 89.046875 359.198242188 113.294921875 359.198242188 c 0
 137.543945312 359.198242188 159.09765625 380.752929688 159.09765625 405 c 0
 159.09765625 429.249023438 137.543945312 450.802734375 113.294921875 450.802734375 c 0
 89.046875 450.802734375 67.4931640625 429.249023438 67.4931640625 405 c 0
33 405 m 0
 33 449.471679688 68.82421875 485.294921875 113.294921875 485.294921875 c 0
 157.765625 485.294921875 193.58984375 449.471679688 193.58984375 405 c 0
 193.58984375 360.529296875 157.765625 324.705078125 113.294921875 324.705078125 c 0
 68.82421875 324.705078125 33 360.529296875 33 405 c 0
EndSplineSet
Layer: 2
SplineSet
7.552734375 141.037109375 m 0
 7.552734375 201.427734375 56.2001953125 250.075195312 116.58984375 250.075195312 c 0
 176.979492188 250.075195312 225.626953125 201.427734375 225.626953125 141.037109375 c 0
 225.626953125 80.6474609375 176.979492188 32 116.58984375 32 c 0
 56.2001953125 32 7.552734375 80.6474609375 7.552734375 141.037109375 c 0
88.072265625 141.037109375 m 0
 88.072265625 125.940429688 101.4921875 112.51953125 116.58984375 112.51953125 c 0
 131.6875 112.51953125 145.107421875 125.940429688 145.107421875 141.037109375 c 0
 145.107421875 156.134765625 131.6875 169.5546875 116.58984375 169.5546875 c 0
 101.4921875 169.5546875 88.072265625 156.134765625 88.072265625 141.037109375 c 0
4.552734375 418.037109375 m 0
 4.552734375 478.427734375 53.2001953125 527.075195312 113.58984375 527.075195312 c 0
 173.979492188 527.075195312 222.626953125 478.427734375 222.626953125 418.037109375 c 0
 222.626953125 357.647460938 173.979492188 309 113.58984375 309 c 0
 53.2001953125 309 4.552734375 357.647460938 4.552734375 418.037109375 c 0
85.072265625 418.037109375 m 0
 85.072265625 402.940429688 98.4921875 389.51953125 113.58984375 389.51953125 c 0
 128.6875 389.51953125 142.107421875 402.940429688 142.107421875 418.037109375 c 0
 142.107421875 433.134765625 128.6875 446.5546875 113.58984375 446.5546875 c 0
 98.4921875 446.5546875 85.072265625 433.134765625 85.072265625 418.037109375 c 0
EndSplineSet
EndChar

StartChar: si_Tha
Encoding: 41 3502 39
Width: 525
VWidth: 0
Flags: HW
LayerCount: 4
Fore
SplineSet
272.583007812 603 m 4
 272.583007812 667.297851562 315.06640625 706.649414062 315.06640625 740.684570312 c 4
 315.06640625 754.21875 308.348632812 766.912109375 289.571289062 780 c 5
 353.180664062 761 l 5
 350.8359375 749.58984375 347.280273438 726.290039062 347.280273438 726.290039062 c 5
 347.280273438 693.052734375 308.571289062 661.163085938 308.571289062 603 c 4
 308.571289062 561.561523438 350.317382812 524.958984375 413.540039062 524.958984375 c 4
 421.997070312 524.958984375 430.837890625 525.614257812 440.014648438 527 c 5
 463.180664062 522 l 5
 448.014648438 494 l 5
 435.766601562 492.012695312 423.967773438 491.073242188 412.680664062 491.073242188 c 4
 328.299804688 491.073242188 272.583007812 543.567382812 272.583007812 603 c 4
33 235 m 4
 33 371.176757812 102.645507812 446.538085938 179 446.538085938 c 4
 197.904296875 446.538085938 216.248046875 441.799804688 236 432 c 5
 220 400 l 5
 205.791992188 407.103515625 192.59765625 410.538085938 179 410.538085938 c 4
 119.861328125 410.538085938 70 345.575195312 70 235 c 4
 70 145.521484375 119.591796875 40 242 40 c 4
 380.181640625 40 455.166015625 150.385742188 455.166015625 342 c 4
 455.166015625 410.758789062 450.931640625 471.186523438 440.040039062 524 c 5
 418.862304688 608.981445312 385.830078125 674.717773438 346.000976562 724 c 5
 328.375976562 745.807617188 309.419921875 764.393554688 289.571289062 780 c 5
 312.571289062 807 l 5
 431.580078125 715.40234375 492.166015625 562.866210938 492.166015625 342 c 4
 492.166015625 126.91015625 404.166015625 3 242 3 c 4
 93.259765625 3 33 128.543945312 33 235 c 4
EndSplineSet
Layer: 2
SplineSet
520.619140625 548 m 1
 530.619140625 567 538.163085938 611.987304688 525.514648438 626 c 0
 519.317382812 632.865234375 484.619140625 653 473.619140625 649 c 0
 457.240234375 641.98046875 447.619140625 623.141601562 447.619140625 607 c 0
 447.619140625 586 469.619140625 556 520.619140625 548 c 1
386.514648438 735 m 1
 452.514648438 783 l 1
 495.514648438 766 l 1
 545.420898438 738.635742188 615.883789062 493.768554688 537.514648438 463 c 1
 459.89453125 465.250976562 361.630859375 527 361.630859375 613.133789062 c 0
 361.630859375 688.51171875 434.422851562 699.581054688 386.514648438 735 c 1
377 0 m 1
 199 0 146.853515625 136.287109375 146.853515625 252.396484375 c 0
 146.853515625 421.91015625 277.58203125 528.416992188 396.71875 445.2578125 c 1
 358.853515625 345 l 1
 295.553710938 381.518554688 256.853515625 326.717773438 256.853515625 252.395507812 c 0
 256.853515625 189.243164062 284.079101562 114.999023438 376.999023438 114.999023438 c 0
 481.451171875 114.999023438 535.999023438 181.017578125 535.999023438 339.999023438 c 0
 535.999023438 415.911132812 534.274414062 486.645507812 518.357421875 546.999023438 c 0
 512.607421875 580.997070312 494.604492188 629.989257812 472.536132812 649.999023438 c 1
 451.037109375 684.764648438 420.969726562 714.202148438 386.514648438 734.999023438 c 1
 458.514648438 818.999023438 l 1
 596.514648438 727.999023438 650.999023438 555.740234375 650.999023438 339.999023438 c 0
 650.999023438 103.999023438 556.999023438 -0.0009765625 376.999023438 -0.0009765625 c 1
 377 0 l 1
EndSplineSet
EndChar

StartChar: si_Dha
Encoding: 43 3504 40
Width: 565
VWidth: 0
Flags: HW
LayerCount: 4
Fore
SplineSet
33 214 m 4
 33 266.263671875 43.970703125 312.662109375 62.107421875 350 c 4
 91.2275390625 409.948242188 138.8203125 446.538085938 189.137695312 446.538085938 c 4
 208.041992188 446.538085938 226.385742188 441.799804688 246.137695312 432 c 5
 230.137695312 400 l 5
 215.9296875 407.103515625 202.735351562 410.538085938 189.137695312 410.538085938 c 4
 150.3671875 410.538085938 115.245117188 379.61328125 93.3427734375 331 c 4
 78.728515625 298.563476562 70 258.252929688 70 214 c 4
 70 130.795898438 92.392578125 40 159.833984375 40 c 4
 251 40 257.591796875 148.885742188 260.833984375 224.5 c 5
 294.833984375 224.5 l 5
 298.076171875 148.885742188 304.66796875 40 395.833984375 40 c 4
 488.567382812 40 495.390625 164 495.390625 293 c 4
 495.390625 576.88671875 420.939453125 712 267.833984375 712 c 4
 196.961914062 712 128.485351562 665.926757812 105.161132812 605 c 5
 71.1611328125 618 l 5
 99.3603515625 692.592773438 182.1484375 749 267.833984375 749 c 4
 445.833984375 749 532.390625 601.955078125 532.390625 293 c 4
 532.390625 145.134765625 523.03125 3 395.833984375 3 c 4
 300.66796875 3 281.66796875 85 277.833984375 115 c 5
 274 85 255 3 159.833984375 3 c 4
 61.8388671875 3 33 115.606445312 33 214 c 4
EndSplineSet
Layer: 2
SplineSet
139.872070312 306 m 5
 139.87109375 306 l 5
 127.875976562 267.0234375 122.809570312 114.651367188 175.044921875 114.651367188 c 4
 217.220703125 114.651367188 232.2265625 179.677734375 232.2265625 249.5 c 5
 328.137695312 249.5 l 5
 328.137695312 176.75 343.60546875 115 386.595703125 115 c 4
 443.3515625 115 443.3515625 239.958007812 443.3515625 293 c 4
 443.3515625 522.796875 400.3515625 639.884765625 262.3515625 639.884765625 c 4
 221.249023438 639.884765625 173.58984375 618.959960938 156.534179688 576.85546875 c 5
 47.501953125 613.029296875 l 5
 83.4873046875 707.868164062 175.631835938 755 262.352539062 755 c 4
 479.352539062 755 558.352539062 599.056640625 558.352539062 293 c 4
 558.352539062 181.99609375 557.352539062 0 386.596679688 0 c 4
 330.676757812 0 292.654296875 33.14453125 277.833984375 79.0302734375 c 5
 261.688476562 31.6025390625 222.276367188 0 169.596679688 0 c 4
 1.5966796875 0 9.4169921875 261.950195312 35.1357421875 345 c 4
 59.2060546875 422.728515625 114.586914062 472 186.685546875 472 c 4
 214.452148438 472 243.483398438 465.063476562 271.857421875 445.2578125 c 5
 233.9921875 345 l 5
 220.14453125 352.989257812 207.474609375 356.607421875 196.12890625 356.607421875 c 4
 169.345703125 356.607421875 149.946289062 336.442382812 139.872070312 306 c 5
EndSplineSet
EndChar

StartChar: si_Pa
Encoding: 46 3508 41
Width: 577
VWidth: 0
Flags: HW
LayerCount: 4
Fore
SplineSet
271.833007812 454 m 4
 271.833007812 466.185546875 272.837890625 477.512695312 274.727539062 488 c 4
 287.423828125 558.491210938 340.08203125 591 396.278320312 591 c 4
 452.984375 591 512.586914062 553 512.586914062 474 c 4
 512.586914062 429.732421875 492.26953125 385.565429688 460.72265625 361 c 5
 434.72265625 382 l 5
 461.72265625 402 479.111328125 437.958984375 479.111328125 474 c 4
 479.111328125 530.04296875 436.663085938 557 396.278320312 557 c 4
 347.916015625 557 305.833984375 524.74609375 305.833984375 454 c 4
 305.833984375 435 305.833984375 416 305.833984375 402 c 5
 288.833984375 369 l 5
 279.1171875 397.663085938 271.833007812 421.383789062 271.833007812 454 c 4
70 224.436523438 m 4
 70 107.2421875 156.024414062 30 288.833984375 30 c 4
 421.643554688 30 507.66796875 106.805664062 507.66796875 224 c 4
 507.66796875 299.407226562 469.19140625 365 385 365 c 6
 192.66796875 365 l 6
 108.4765625 365 70 299.84375 70 224.436523438 c 4
33 224.436523438 m 4
 33 319.693359375 85.9033203125 402 192.66796875 402 c 6
 385 402 l 6
 491.764648438 402 544.66796875 319.256835938 544.66796875 224 c 4
 544.66796875 84.5048828125 444.33984375 -7 288.833984375 -7 c 4
 133.328125 -7 33 84.94140625 33 224.436523438 c 4
65.080078125 474 m 4
 65.080078125 553 124.682617188 591 181.388671875 591 c 4
 237.584960938 591 290.247070312 558.491210938 302.940429688 488 c 4
 304.829101562 477.513671875 305.833007812 466.185546875 305.833007812 454 c 4
 305.833007812 421.383789062 298.548828125 397.663085938 288.833007812 369 c 5
 271.833007812 402 l 5
 271.833007812 416 271.833007812 435 271.833007812 454 c 4
 271.833007812 524.74609375 229.750976562 557 181.388671875 557 c 4
 141.00390625 557 98.5556640625 530.04296875 98.5556640625 474 c 4
 98.5556640625 437.958984375 115.944335938 402 142.944335938 382 c 5
 116.944335938 361 l 5
 85.3974609375 385.565429688 65.080078125 429.732421875 65.080078125 474 c 4
EndSplineSet
Layer: 2
SplineSet
369.478515625 416.436523438 m 6
 491.862304688 416.436523438 552.91796875 330.088867188 552.91796875 224.436523438 c 4
 552.91796875 -90.5634765625 23.478515625 -90.5595703125 23.478515625 224.436523438 c 4
 23.478515625 330.088867188 84.53515625 416.436523438 206.91796875 416.436523438 c 6
 237.6796875 416.436523438 l 5
 338.716796875 416.436523438 l 5
 369.478515625 416.436523438 l 5
 369.478515625 416.436523438 l 6
363.478515625 318.436523438 m 5
 212.91796875 318.436523438 l 6
 157.91796875 318.436523438 130.478515625 276.162109375 130.478515625 224.436523438 c 4
 130.478515625 64.359375 445.916992188 64.9599609375 445.916992188 224.436523438 c 4
 445.916992188 276.162109375 418.477539062 318.436523438 363.477539062 318.436523438 c 6
 363.478515625 318.436523438 l 5
229.435546875 391.436523438 m 5
 239.19140625 416.436523438 l 6
 240.252929688 422.678710938 240.755859375 428.6484375 240.755859375 434.311523438 c 4
 240.755859375 471.944335938 218.526367188 496 190 496 c 4
 160.64453125 496 144.81640625 475 144.81640625 451.1640625 c 4
 144.81640625 439.108398438 151.452148438 419.560546875 159.435546875 410.436523438 c 5
 81.435546875 370.436523438 l 5
 62.1259765625 395.643554688 51.3408203125 428.604492188 51.3408203125 456.407226562 c 4
 51.3408203125 532.13671875 103.440429688 594 190 594 c 4
 257.123046875 594 319.9921875 550.930664062 335.004882812 467.4375 c 5
 319.91796875 447.4375 324.91796875 422.4375 337.0234375 402.4375 c 5
 334.452148438 376.875976562 328.33203125 348.349609375 319.435546875 319.4375 c 5
 229.435546875 391.436523438 l 5
346.9609375 391.436523438 m 5
 256.9609375 319.436523438 l 5
 248.411132812 347.22265625 242.42578125 374.65234375 239.690429688 399.436523438 c 5
 263.91796875 419.436523438 275.91796875 455.436523438 244.192382812 480.436523438 c 5
 263.116210938 555.397460938 322.850585938 594.000976562 386.396484375 594.000976562 c 4
 472.956054688 594.000976562 525.0546875 532.137695312 525.0546875 456.407226562 c 4
 525.0546875 428.604492188 514.26953125 395.643554688 494.959960938 370.436523438 c 5
 416.959960938 410.436523438 l 5
 424.943359375 419.560546875 431.579101562 439.108398438 431.579101562 451.1640625 c 4
 431.579101562 475 415.750976562 496 386.395507812 496 c 4
 357.869140625 496 335.639648438 471.944335938 335.639648438 434.311523438 c 4
 335.639648438 428.6484375 336.142578125 422.678710938 337.204101562 416.436523438 c 6
 346.9609375 391.436523438 l 5
EndSplineSet
Layer: 3
SplineSet
627.412109375 474 m 0
 627.412109375 553 687.014648438 591 743.720703125 591 c 0
 808.27734375 591 868.165039062 548.098632812 868.165039062 454 c 0
 868.165039062 421.383789062 860.880859375 397.663085938 851.165039062 369 c 1
 834.165039062 402 l 1
 834.165039062 416 834.165039062 435 834.165039062 454 c 0
 834.165039062 524.74609375 792.083007812 557 743.720703125 557 c 0
 703.3359375 557 660.887695312 530.04296875 660.887695312 474 c 0
 660.887695312 437.958984375 678.276367188 402 705.276367188 382 c 1
 679.276367188 361 l 1
 647.729492188 385.565429688 627.412109375 429.732421875 627.412109375 474 c 0
1074.91894531 474 m 0
 1074.91894531 429.732421875 1054.6015625 385.565429688 1023.0546875 361 c 1
 997.0546875 382 l 1
 1024.0546875 402 1041.44335938 437.958984375 1041.44335938 474 c 0
 1041.44335938 530.04296875 998.995117188 557 958.610351562 557 c 0
 910.248046875 557 868.166015625 524.74609375 868.166015625 454 c 0
 868.166015625 435 868.166015625 416 868.166015625 402 c 1
 851.166015625 369 l 1
 841.450195312 397.663085938 834.166015625 421.383789062 834.166015625 454 c 0
 834.166015625 548.098632812 894.053710938 591 958.610351562 591 c 0
 1015.31640625 591 1074.91894531 553 1074.91894531 474 c 0
755 365 m 0
 670.80859375 365 642.33203125 299.84375 642.33203125 224.436523438 c 0
 642.33203125 107.2421875 718.356445312 30 851.166015625 30 c 0
 983.975585938 30 1060 107.2421875 1060 224.436523438 c 0
 1060 299.84375 1031.5234375 365 947.33203125 365 c 0
 947.33203125 365 910.97265625 365 851.166015625 365 c 0
 791.359375 365 755 365 755 365 c 0
755 402 m 0
 851.166015625 402 l 0
 947.33203125 402 l 0
 1054.09667969 402 1097 319.693359375 1097 224.436523438 c 0
 1097 84.94140625 1006.671875 -7 851.166015625 -7 c 0
 695.66015625 -7 605.33203125 84.94140625 605.33203125 224.436523438 c 0
 605.33203125 319.693359375 648.235351562 402 755 402 c 0
337.22265625 402 m 1
 337.22265625 368 l 1
 294.16796875 368 288.858398438 368 288.858398438 368 c 1
 279.858398438 397 273.111328125 421 273.111328125 454 c 0
 273.111328125 548.098632812 334.400390625 591 388.858398438 591 c 0
 449.114257812 591 502.858398438 547.701171875 502.858398438 474 c 0
 502.858398438 408 463.22265625 376 451.22265625 365 c 1
 429.22265625 385 l 1
 439.22265625 395 469.3828125 419 469.3828125 474 c 0
 469.3828125 530.225585938 433.815429688 557 388.858398438 557 c 0
 336.09375 557 307.111328125 511 307.111328125 454 c 0
 307.111328125 435 307.111328125 416 307.111328125 402 c 1
 330.913085938 402 312.942382812 402 337.22265625 402 c 1
288.833984375 30 m 0
 421.643554688 30 497.66796875 107.2421875 497.66796875 224.436523438 c 0
 497.66796875 299.84375 451.53125 365 367.33984375 365 c 0
 367.33984375 365 348.640625 365 288.833984375 365 c 0
 229.02734375 365 210.328125 365 210.328125 365 c 0
 126.13671875 365 80 299.84375 80 224.436523438 c 0
 80 107.2421875 156.024414062 30 288.833984375 30 c 0
367.33984375 402 m 0
 474.104492188 402 534.66796875 319.693359375 534.66796875 224.436523438 c 0
 534.66796875 84.94140625 444.33984375 -7 288.833984375 -7 c 0
 133.328125 -7 43 84.94140625 43 224.436523438 c 0
 43 319.693359375 103.563476562 402 210.328125 402 c 0
 288.833984375 402 l 0
 367.33984375 402 l 0
243 402 m 1
 267.280273438 402 249.309570312 402 273.111328125 402 c 1
 273.111328125 416 273.111328125 435 273.111328125 454 c 0
 273.111328125 511 244.12890625 557 191.364257812 557 c 0
 146.407226562 557 110.83984375 530.225585938 110.83984375 474 c 0
 110.83984375 419 141 395 151 385 c 1
 129 365 l 1
 117 376 77.3642578125 408 77.3642578125 474 c 0
 77.3642578125 547.701171875 131.108398438 591 191.364257812 591 c 0
 245.822265625 591 307.111328125 548.098632812 307.111328125 454 c 0
 307.111328125 421 300.364257812 397 291.364257812 368 c 1
 291.364257812 368 286.0546875 368 243 368 c 1
 243 402 l 1
EndSplineSet
EndChar

StartChar: si_Pha
Encoding: 47 3509 42
Width: 534
VWidth: 0
Flags: HW
LayerCount: 4
Fore
SplineSet
281.583007812 603 m 4
 281.583007812 667.297851562 324.06640625 706.649414062 324.06640625 740.684570312 c 4
 324.06640625 754.21875 317.348632812 766.912109375 298.571289062 780 c 5
 362.180664062 761 l 5
 359.8359375 749.58984375 356.280273438 726.290039062 356.280273438 726.290039062 c 5
 356.280273438 693.052734375 317.571289062 661.163085938 317.571289062 603 c 4
 317.571289062 561.561523438 359.317382812 524.958984375 422.540039062 524.958984375 c 4
 430.997070312 524.958984375 439.837890625 525.614257812 449.014648438 527 c 5
 472.180664062 522 l 5
 457.014648438 494 l 5
 444.766601562 492.012695312 432.967773438 491.073242188 421.680664062 491.073242188 c 4
 337.299804688 491.073242188 281.583007812 543.567382812 281.583007812 603 c 4
33 219 m 4
 33 284.815429688 54.0517578125 335.01171875 90.4033203125 363 c 4
 111.493164062 379.237304688 137.733398438 388 168 388 c 4
 217 388 285 388 285 388 c 5
 304 354 l 5
 168 354 l 6
 105.041015625 354 69 298.873046875 69 219 c 4
 69 154.403320312 99.046875 40 251 40 c 4
 389.181640625 40 464.166015625 150.385742188 464.166015625 342 c 4
 464.166015625 410.758789062 459.931640625 471.186523438 449.040039062 524 c 5
 427.862304688 608.981445312 394.830078125 674.717773438 355.000976562 724 c 5
 337.375976562 745.807617188 318.419921875 764.393554688 298.571289062 780 c 5
 321.571289062 807 l 5
 440.580078125 715.40234375 501.166015625 562.866210938 501.166015625 342 c 4
 501.166015625 126.91015625 413.166015625 3 251 3 c 4
 68.990234375 3 33 141.05078125 33 219 c 4
72 420 m 4
 72 488 123.34375 524 182 524 c 4
 246.555664062 524 306.444335938 481.098632812 306.444335938 387 c 4
 306.444335938 375.040039062 305.55859375 364.26171875 304 354 c 5
 272.620117188 379 l 5
 272.52734375 381.637695312 272.444335938 384.229492188 272.444335938 387 c 4
 272.444335938 457.74609375 230.362304688 490 182 490 c 4
 140.04296875 490 105.475585938 467 105.475585938 420 c 4
 105.475585938 395.599609375 115 376 128 364 c 13
 103.818359375 344 l 21
 88 358 72 388.0234375 72 420 c 4
EndSplineSet
Layer: 2
SplineSet
367.346679688 755 m 5
 348.125 647 l 5
 331.74609375 639.98046875 322.125 621.141601562 322.125 605 c 4
 322.125 584 344.125 554 395.125 546 c 5
 479.346679688 524 l 5
 412.020507812 461 l 5
 334.400390625 463.250976562 236.13671875 525 236.13671875 611.133789062 c 4
 236.13671875 686.51171875 308.928710938 697.581054688 261.020507812 733 c 5
 367.346679688 755 l 5
60.7021484375 409.272460938 m 5
 60.7021484375 481.53515625 109.672851562 531.563476562 183.974609375 531.563476562 c 4
 260.959960938 531.563476562 332.359375 474.8984375 332.359375 365.563476562 c 4
 332.359375 350.999023438 329.166015625 324.999023438 325.110351562 305.999023438 c 5
 234.73046875 371.874023438 l 5
 241.270507812 405.999023438 225.270507812 443.999023438 183.974609375 443.999023438 c 4
 159.174804688 443.999023438 150.182617188 426.1328125 150.182617188 404.786132812 c 4
 150.182617188 386.79296875 162.467773438 370.32421875 171.166015625 355.999023438 c 5
 91.166015625 318.563476562 l 5
 71.166015625 350.999023438 60.7021484375 380.619140625 60.7021484375 409.272460938 c 5
 60.7021484375 409.272460938 l 5
251.166015625 0 m 5
 73.166015625 0 20.9775390625 137 20.9775390625 218.826171875 c 4
 20.9775390625 279.354492188 40.8759765625 335.661132812 71.35546875 362 c 4
 92.375 380.1640625 120.452148438 391 157.053710938 391 c 6
 263.166015625 391 l 5
 303.360351562 373 325.110351562 306 325.110351562 306 c 5
 200.052734375 306 l 6
 144.052734375 306 131.65234375 270.6015625 131.65234375 226.6015625 c 4
 131.65234375 174 158.245117188 115 251.166015625 115 c 4
 355.6171875 115 410.166015625 181.017578125 410.166015625 340 c 4
 410.166015625 415.912109375 408.780273438 484.645507812 392.86328125 545 c 4
 387.11328125 578.997070312 369.110351562 627.989257812 347.041992188 648 c 5
 325.54296875 682.765625 295.475585938 712.203125 261.020507812 733 c 5
 333.020507812 817 l 5
 471.020507812 726 525.166015625 555.740234375 525.166015625 340 c 4
 525.166015625 104 431.166015625 0 251.166015625 0 c 5
 251.166015625 0 l 5
EndSplineSet
EndChar

StartChar: si_Ba
Encoding: 48 3510 43
Width: 555
VWidth: 0
Flags: HW
LayerCount: 4
Fore
SplineSet
33 220 m 4
 33 419.133789062 108.666015625 486 196.060546875 486 c 4
 287.594726562 486 331 436.897460938 331 344 c 4
 331 247 257 228 257 137 c 4
 257 65.1298828125 303.974609375 39 357 39 c 4
 458.697265625 39 485.619140625 145.85546875 485.619140625 293 c 4
 485.619140625 576.88671875 411.16796875 712 258.0625 712 c 4
 187.190429688 712 118.713867188 665.926757812 95.3896484375 605 c 5
 61.3896484375 618 l 5
 89.5888671875 692.592773438 172.376953125 749 258.0625 749 c 4
 436.0625 749 522.619140625 601.955078125 522.619140625 293 c 4
 522.619140625 125 487.952148438 3 357 3 c 4
 262.842773438 3 221.114257812 58.3154296875 221.114257812 137 c 4
 221.114257812 241 295 258 295 344 c 4
 295 413.345703125 263.174804688 450 196.060546875 450 c 4
 128.497070312 450 70 392.18359375 70 220 c 4
 70 105.193359375 95.7783203125 39 155 39 c 4
 193.884765625 39 220.538085938 79 227 115 c 5
 257 108 l 5
 247.555664062 52 216.124023438 3 155 3 c 4
 70 3 33 82.359375 33 220 c 4
EndSplineSet
Layer: 2
SplineSet
433.115234375 293 m 5
 433.11328125 293 l 5
 433.11328125 522.796875 390.11328125 639.884765625 252.11328125 639.884765625 c 4
 211.010742188 639.884765625 163.3515625 618.959960938 146.295898438 576.85546875 c 5
 37.263671875 613.029296875 l 5
 73.2490234375 707.868164062 165.393554688 755 252.114257812 755 c 4
 469.114257812 755 548.114257812 599.056640625 548.114257812 293 c 4
 547.630859375 181.99609375 515.755859375 0 358 0 c 4
 233.697265625 0 205.461914062 87.4052734375 205.461914062 177 c 4
 205.461914062 237 253 264 253 324 c 4
 253 354 237.56640625 376.432617188 194.875 376.432617188 c 4
 155.047851562 376.432617188 125.875 339.788085938 125.875 220 c 4
 125.875 128 143.875 110 164.875 110 c 4
 184.875 110 201.875 120 217.875 156 c 5
 273.875 73 l 5
 244.875 28 217.353515625 0 164.875 0 c 4
 59.875 0 15.875 79 15.875 220 c 4
 15.875 425.889648438 91.875 488.874023438 196.060546875 488.874023438 c 4
 303.56640625 488.874023438 365 430 365 324 c 4
 365 251 314.358398438 228 314.358398438 177 c 4
 314.358398438 142.7578125 327.602539062 115 353.875 115 c 4
 406.086914062 115 433.115234375 190 433.115234375 293 c 5
EndSplineSet
EndChar

StartChar: si_Bha
Encoding: 49 3511 44
Width: 648
Flags: HW
LayerCount: 4
Fore
SplineSet
238.2421875 238 m 5
 286.270507812 264.463867188 291.52734375 324.424804688 291.52734375 368.48046875 c 4
 291.52734375 478.833007812 322.920898438 580.84375 440.2421875 580.84375 c 4
 532.680664062 580.84375 615.614257812 527.84375 615.614257812 291.84375 c 4
 615.614257812 56.84375 533.283203125 2.84375 447.2421875 2.84375 c 4
 391.477539062 2.84375 355.002929688 31.525390625 336.2421875 70.640625 c 5
 359.614257812 122.84375 l 5
 362.614257812 82.84375 394.614257812 39.84375 447.2421875 39.84375 c 4
 514.120117188 39.84375 578.114257812 86.9306640625 578.114257812 291.84375 c 4
 578.114257812 497.62890625 513.943359375 543.84375 440.2421875 543.84375 c 4
 345.830078125 543.84375 328.72265625 455.2578125 328.72265625 362.739257812 c 4
 328.72265625 310.831054688 320.979492188 240.181640625 250.2421875 209 c 5
 238.2421875 238 l 5
43.1123046875 200.987304688 m 4
 43.1123046875 222.74609375 45.4638671875 245.831054688 50.3251953125 270 c 4
 59.0576171875 313.411132812 75.0390625 351.780273438 96.72265625 369 c 5
 33 369 l 5
 33 405 l 5
 318.2421875 405 l 5
 318.2421875 369 l 5
 190.572265625 369 l 6
 124.947265625 369 97.0380859375 316.258789062 86.5263671875 264 c 4
 82.3583984375 243.278320312 80.349609375 223.495117188 80.349609375 204.875 c 4
 80.349609375 106.0703125 136.892578125 40 227.2421875 40 c 4
 316.103515625 40 349.2421875 103.166992188 349.2421875 158 c 4
 349.2421875 200.668945312 333.837890625 231.955078125 304.765625 231.955078125 c 4
 295.598632812 231.955078125 285.072265625 228.844726562 273.2421875 222 c 5
 264.2421875 249 l 5
 281.735351562 257.28515625 297.866210938 261.202148438 312.278320312 261.202148438 c 4
 357.848632812 261.202148438 386.2421875 222.041015625 386.2421875 158 c 4
 386.2421875 85.9736328125 343.053710938 3 227.2421875 3 c 4
 113.146484375 3 43.1123046875 82.228515625 43.1123046875 200.987304688 c 4
73.69140625 474 m 4
 73.69140625 553 133.293945312 591 190 591 c 4
 252.061523438 591 309.737304688 555.986328125 320.763671875 480 c 4
 321.951171875 471.8125 322.573242188 463.1484375 322.573242188 454 c 4
 322.573242188 422.53515625 319 399 310 372 c 5
 288.573242188 402 l 5
 288.573242188 416 288.573242188 435 288.573242188 454 c 4
 288.573242188 523.372070312 242.708984375 555 190 555 c 4
 150.844726562 555 109.69140625 528.692382812 109.69140625 474 c 4
 109.69140625 432 127.037109375 406 136.166992188 396 c 5
 114.166992188 376 l 5
 102.166992188 387 73.69140625 419 73.69140625 474 c 4
EndSplineSet
Layer: 2
SplineSet
37.626953125 454 m 5
 37.626953125 532.131835938 87.689453125 594 179.069335938 594 c 4
 243.353515625 594 304.249023438 556.409179688 323.91015625 483 c 4
 325.161132812 478.329101562 325.725585938 473.071289062 325.725585938 467.353515625 c 4
 325.725585938 425.625 295.657226562 359.422851562 283.045898438 318.436523438 c 5
 232.696289062 403.030273438 l 5
 233.7578125 409.272460938 238.110351562 420 238.110351562 434.341796875 c 4
 238.110351562 481.030273438 207.4375 496 183.2421875 496 c 4
 147.22265625 496 130.47265625 474.291992188 130.47265625 443 c 4
 130.47265625 414 143.997070312 397.28125 161.2421875 392 c 5
 109.53125 326.71875 l 5
 74.7216796875 347 37.626953125 398 37.626953125 454 c 5
 37.626953125 454 l 5
209.2421875 0 m 5
 84.8251953125 0 9.666015625 98.4755859375 9.666015625 210.498046875 c 4
 9.666015625 229.7421875 11.884765625 249.38671875 16.4521484375 269 c 4
 21.076171875 288.856445312 27.46484375 306.7421875 34.486328125 319.563476562 c 5
 -6.330078125 319.666992188 l 5
 -6.330078125 408 l 5
 303.669921875 408 l 5
 303.669921875 319 l 5
 176.241210938 318 l 6
 150.748046875 317.799804688 133.506835938 294.194335938 124.21484375 264 c 4
 120.235351562 251.068359375 118.01171875 235.897460938 118.01171875 220.209960938 c 4
 118.01171875 167.96484375 142.673828125 110 209.241210938 110 c 4
 281.198242188 110 299.241210938 142.338867188 299.241210938 170 c 4
 299.241210938 180.208984375 297.391601562 195.96875 284.973632812 195.96875 c 4
 281.578125 195.96875 272.241210938 192 272.241210938 192 c 6
 330.241210938 286 l 5
 389.241210938 272 405.241210938 217 405.241210938 167 c 4
 405.241210938 99 359.241210938 0 209.241210938 0 c 5
 209.2421875 0 l 5
434.2421875 478 m 4
 302.2421875 478 392.2421875 256.15625 255.2421875 181.15625 c 5
 196.2421875 255.15625 l 5
 308.2421875 331.15625 197.2421875 584 434.2421875 584 c 4
 541.241210938 584 639.2421875 526.375 639.2421875 292 c 4
 639.2421875 69.42578125 554.469726562 0 450.870117188 0 c 4
 374.956054688 0 333.52734375 50.021484375 324.2421875 86 c 5
 389.2421875 158 l 5
 394.418945312 141.4140625 409.2421875 104 450.870117188 104 c 4
 493.97265625 104 533.2421875 150.340820312 533.2421875 292 c 4
 533.2421875 439.546875 483.827148438 478 434.2421875 478 c 4
EndSplineSet
EndChar

StartChar: si_Mba
Encoding: 51 3513 45
Width: 561
VWidth: 0
Flags: HW
LayerCount: 4
Fore
SplineSet
33 250.999023438 m 4
 33 390.37109375 64.0126953125 523.999023438 151.638671875 523.999023438 c 4
 217 523.999023438 241 474 241 426 c 5
 206 419 l 5
 206 470.220703125 181.700195312 489 152 489 c 4
 92 489 70 368 70 250.999023438 c 4
 70 167.890625 73.716796875 40 155.596679688 40 c 4
 183.474609375 40 203.762695312 62.185546875 203.762695312 90 c 4
 203.762695312 129 182.762695312 140 182.762695312 176 c 4
 182.762695312 230.030273438 221.272460938 244 273.596679688 244 c 4
 325.920898438 244 364.430664062 230.030273438 364.430664062 176 c 4
 364.430664062 140 343.430664062 129 343.430664062 90 c 4
 343.430664062 62.185546875 363.71875 40 391.596679688 40 c 4
 484.330078125 40 491.153320312 164 491.153320312 293 c 4
 491.153320312 576.88671875 416.702148438 712 263.596679688 712 c 4
 192.724609375 712 124.248046875 665.926757812 100.923828125 605 c 5
 66.923828125 618 l 5
 95.123046875 692.592773438 177.911132812 749 263.596679688 749 c 4
 441.596679688 749 528.153320312 601.955078125 528.153320312 293 c 4
 528.153320312 145.134765625 518.793945312 3 391.596679688 3 c 4
 342.303710938 3 306.430664062 41.6025390625 306.430664062 90 c 4
 306.430664062 131 327.430664062 147 327.430664062 172 c 4
 327.430664062 200.920898438 302.520507812 207 273.596679688 207 c 4
 244.672851562 207 219.762695312 200.920898438 219.762695312 172 c 4
 219.762695312 147 240.762695312 131 240.762695312 90 c 4
 240.762695312 41.6025390625 204.889648438 3 155.596679688 3 c 4
 41 3 33 153.317382812 33 250.999023438 c 4
203 370 m 4
 203 385.758789062 206 397 206 419 c 5
 241 426 l 5
 241 415.9765625 239 386.337890625 239 370 c 4
 239 346 245.225585938 317 282 317 c 4
 325.1953125 317 326 381.9609375 326 402 c 4
 326 422.0390625 325.1953125 487 282 487 c 4
 258.225585938 487 242 470 238 441 c 5
 207 444 l 5
 212 486 234 523 282 523 c 4
 360.537109375 523 362 430.526367188 362 402 c 4
 362 373.473632812 360.537109375 281 282 281 c 4
 225.008789062 281 203 322.965820312 203 370 c 4
EndSplineSet
Layer: 2
SplineSet
165.112304688 115 m 0
 125.596679688 115 121.26953125 202 121.26953125 265.912109375 c 0
 121.26953125 348 132.883789062 429 164.883789062 429 c 0
 175.791992188 429 178.958007812 422.934570312 179.302734375 412.546875 c 0
 267.596679688 438 l 0
 266.596679688 481 226.883789062 527 162.883789062 527 c 0
 58.8837890625 527 14.5966796875 389 14.5966796875 253 c 0
 14.5966796875 115 45.5966796875 0 157.596679688 0 c 0
 224.071289062 0 257.596679688 47 257.596679688 87 c 0
 257.596679688 118 245.596679688 134.673828125 245.596679688 151 c 0
 245.596679688 164.092773438 256.596679688 177 273.596679688 177 c 1
 273.596679688 258 l 1
 202.596679688 258 163.596679688 225.994140625 163.596679688 178 c 0
 163.596679688 141.00390625 193.112304688 115 165.112304688 115 c 0
394.081054688 115 m 0
 366.081054688 115 383.596679688 141.00390625 383.596679688 178 c 0
 383.596679688 225.994140625 344.596679688 258 273.596679688 258 c 1
 273.596679688 177 l 1
 290.596679688 177 301.596679688 164.092773438 301.596679688 151 c 0
 301.596679688 134.673828125 290.596679688 118 290.596679688 87 c 0
 290.596679688 47 335.122070312 0 401.596679688 0 c 0
 535.596679688 0 549.112304688 181.99609375 549.112304688 293 c 0
 549.112304688 599.055664062 446.805664062 755 246.022460938 755 c 0
 159.301757812 755 74.73046875 707.868164062 38.74609375 613.029296875 c 1
 147.778320312 576.85546875 l 1
 164.833984375 618.959960938 204.918945312 639.884765625 246.022460938 639.884765625 c 0
 370.944335938 639.884765625 434.596679688 522.796875 434.596679688 293 c 0
 434.596679688 239.959960938 433.596679688 115 394.081054688 115 c 0
258.596679688 440 m 1
 264.596679688 446 273.215820312 446.864257812 278.37109375 446.864257812 c 0
 294.762695312 446.864257812 297.73828125 425.854492188 297.73828125 404.020507812 c 0
 297.73828125 382.995117188 291.419921875 364 280.596679688 364 c 0
 262.596679688 364 264.596679688 399 267.596679688 438 c 1
 179.302734375 412.546875 l 1
 173.596679688 346 187.0234375 275 274.596679688 275 c 0
 360.596679688 275 371.596679688 347.137695312 371.596679688 412.094726562 c 0
 371.596679688 469.645507812 341.596679688 526 281.596679688 526 c 0
 248.596679688 526 234.596679688 513 222.596679688 498 c 1
 258.596679688 440 l 1
EndSplineSet
EndChar

StartChar: si_Ra
Encoding: 53 3515 46
Width: 481
VWidth: 0
Flags: HW
LayerCount: 4
Fore
SplineSet
33 263 m 5
 33 379 85 467.831054688 166 548 c 4
 252.100585938 633.958007812 313 697.317382812 313 776 c 5
 349 776 l 5
 349 688 284.689453125 615.532226562 190 521 c 4
 140.528320312 471.610351562 70 379.099609375 70 263 c 13
 49 249 l 5
 33 263 l 5
70 263 m 0
 70 129 133.163085938 40 239.1796875 40 c 0
 349.942382812 40 411 145.860351562 411 276.064453125 c 0
 411 403.182617188 351.5 491 259 491 c 0
 110.217773438 491 70 341 70 263 c 0
33 263 m 0
 33 309 47.6064453125 395.115234375 90.4990234375 450 c 0
 104.038085938 467.323242188 126.39453125 475.62890625 146 488 c 1
 175 514 210.086914062 526.629882812 259 526.629882812 c 0
 331.0546875 526.629882812 387.004882812 486.451171875 418.75 420 c 0
 437.677734375 380.37890625 448 331.41796875 448 276.064453125 c 0
 448 125.453125 373.793945312 3 239.1796875 3 c 0
 105.25 3 33 112.3515625 33 263 c 0
EndSplineSet
Layer: 2
SplineSet
12.955078125 276.064453125 m 5
 12.955078125 432 84.2412109375 508.555664062 128 552 c 4
 258.71484375 681.7734375 264 720 264 779 c 5
 385 779 l 5
 385 681.149414062 331.953125 617.001953125 249.955078125 537 c 5
 108 368 l 5
 12.955078125 276.064453125 l 5
64.7705078125 467 m 0
 72.498046875 477.913085938 151.086914062 495.506835938 181.955078125 511 c 1
 207.955078125 538 367.9765625 588 439.169921875 422 c 0
 457.150390625 380.075195312 466.041992188 330.282226562 466.041992188 276.064453125 c 0
 466.041992188 118.177734375 392.000976562 0 239.1796875 0 c 0
 86.9970703125 0 12.955078125 118.176757812 12.955078125 276.064453125 c 0
 12.955078125 351.295898438 30.078125 418.006835938 64.7705078125 467 c 0
241.208984375 440.705078125 m 0
 157.028320312 440.705078125 125.734375 362.481445312 125.734375 274.73828125 c 0
 125.734375 185.564453125 157.028320312 111.424804688 241.208984375 111.424804688 c 0
 322.483398438 111.424804688 352.025390625 185.564453125 352.025390625 274.73828125 c 0
 352.025390625 362.481445312 322.483398438 440.705078125 241.208984375 440.705078125 c 0
EndSplineSet
Layer: 3
SplineSet
239.1796875 489 m 4
 106 489 70 353.173828125 70 263 c 4
 70 129 133.163085938 40 239.1796875 40 c 4
 352 40 411 146 411 276.064453125 c 4
 411 402 343.741210938 489 239.1796875 489 c 4
239.1796875 526.629882812 m 4
 373.681640625 526.629882812 448 425.282226562 448 276.064453125 c 4
 448 125.453125 373.793945312 3 239.1796875 3 c 4
 105.25 3 33 112.3515625 33 263 c 4
 33 384.297851562 82.5048828125 470.900390625 145.965820312 533.903320312 c 4
 259.174804688 646.296875 284.947265625 697.65625 288.807617188 753.5 c 5
 324.807617188 753.5 l 5
 323.3984375 666.537109375 217 558 159 502 c 5
 192 521 210 526.629882812 239.1796875 526.629882812 c 4
EndSplineSet
EndChar

StartChar: si_Ssa
Encoding: 57 3522 47
Width: 577
VWidth: 0
Flags: HW
LayerCount: 4
Fore
SplineSet
222 30 m 5
 214.922851562 52.4462890625 211.723632812 73.73828125 211.723632812 93.9619140625 c 4
 211.723632812 221.833007812 339.627929688 306.974609375 424 371 c 5
 444 371 l 5
 448 350 l 5
 369.057617188 289.916992188 249.385742188 210.01953125 249.385742188 90.0234375 c 4
 249.385742188 71.044921875 252.37890625 51.064453125 259 30 c 5
 239 11 l 5
 222 30 l 5
271.833007812 454 m 4
 271.833007812 466.185546875 272.838867188 477.512695312 274.727539062 488 c 4
 287.423828125 558.491210938 340.08203125 591 396.278320312 591 c 4
 452.984375 591 512.586914062 553 512.586914062 474 c 4
 512.586914062 429.732421875 492.26953125 385.565429688 460.72265625 361 c 5
 434.72265625 382 l 5
 461.72265625 402 479.111328125 437.958984375 479.111328125 474 c 4
 479.111328125 530.04296875 436.663085938 557 396.278320312 557 c 4
 347.916015625 557 305.833984375 524.74609375 305.833984375 454 c 4
 305.833984375 435 305.833984375 416 305.833984375 402 c 5
 288.833984375 369 l 5
 279.1171875 397.663085938 271.833007812 421.383789062 271.833007812 454 c 4
70 224.436523438 m 4
 70 107.2421875 156.024414062 30 288.833984375 30 c 4
 421.643554688 30 507.66796875 106.805664062 507.66796875 224 c 4
 507.66796875 299.407226562 469.19140625 365 385 365 c 6
 192.66796875 365 l 6
 108.4765625 365 70 299.84375 70 224.436523438 c 4
33 224.436523438 m 4
 33 319.693359375 85.9033203125 402 192.66796875 402 c 6
 385 402 l 6
 491.764648438 402 544.66796875 319.256835938 544.66796875 224 c 4
 544.66796875 84.5048828125 444.33984375 -7 288.833984375 -7 c 4
 133.328125 -7 33 84.94140625 33 224.436523438 c 4
65.080078125 474 m 4
 65.080078125 553 124.682617188 591 181.388671875 591 c 4
 237.584960938 591 290.247070312 558.491210938 302.940429688 488 c 4
 304.829101562 477.513671875 305.833007812 466.185546875 305.833007812 454 c 4
 305.833007812 421.383789062 298.548828125 397.663085938 288.833007812 369 c 5
 271.833007812 402 l 5
 271.833007812 416 271.833007812 435 271.833007812 454 c 4
 271.833007812 524.74609375 229.750976562 557 181.388671875 557 c 4
 141.00390625 557 98.5556640625 530.04296875 98.5556640625 474 c 4
 98.5556640625 437.958984375 115.944335938 402 142.944335938 382 c 5
 116.944335938 361 l 5
 85.3974609375 385.565429688 65.080078125 429.732421875 65.080078125 474 c 4
EndSplineSet
Layer: 2
SplineSet
341.478515625 333.436523438 m 5
 405.478515625 360.436523438 l 5
 421.478515625 303.436523438 l 5
 362.478515625 246.436523438 281.478515625 203.436523438 296.478515625 100.436523438 c 5
 230.478515625 36.4365234375 l 5
 204.478515625 103.436523438 l 5
 190.478515625 240.436523438 283.478515625 290.436523438 341.478515625 333.436523438 c 5
368.478515625 416.436523438 m 16
 490.861328125 416.436523438 551.91796875 330.088867188 551.91796875 224.436523438 c 0
 551.91796875 -90.5634765625 22.478515625 -90.5595703125 22.478515625 224.436523438 c 0
 22.478515625 330.088867188 83.53515625 416.436523438 205.91796875 416.436523438 c 0
 225.400390625 416.436523438 236.6796875 416.436523438 236.6796875 416.436523438 c 2
 269.91796875 416.436523438 303.91796875 416.436523438 337.716796875 416.436523438 c 2
 337.716796875 416.436523438 343.435546875 416.436523438 368.478515625 416.436523438 c 16
362.478515625 318.436523438 m 0
 297.491210938 318.436523438 276.905273438 318.436523438 211.91796875 318.436523438 c 0
 156.91796875 318.436523438 129.478515625 276.162109375 129.478515625 224.436523438 c 0
 129.478515625 64.359375 444.91796875 64.9599609375 444.91796875 224.436523438 c 0
 444.91796875 276.162109375 417.478515625 318.436523438 362.478515625 318.436523438 c 0
228.435546875 391.436523438 m 1
 238.19140625 416.436523438 l 1
 239.252929688 422.678710938 239.755859375 428.6484375 239.755859375 434.311523438 c 0
 239.755859375 471.944335938 217.526367188 496 189 496 c 0
 159.64453125 496 143.81640625 475 143.81640625 451.1640625 c 0
 143.81640625 439.108398438 150.452148438 419.560546875 158.435546875 410.436523438 c 1
 80.435546875 370.436523438 l 1
 61.1259765625 395.643554688 50.3408203125 428.604492188 50.3408203125 456.407226562 c 0
 50.3408203125 532.13671875 102.440429688 594 189 594 c 0
 265.990234375 594 337.384765625 537.3359375 337.384765625 428 c 0
 337.384765625 396.735351562 330.435546875 358.436523438 318.435546875 319.436523438 c 1
 228.435546875 391.436523438 l 1
345.9609375 391.436523438 m 1
 255.9609375 319.436523438 l 1
 243.9609375 358.436523438 237.01171875 396.735351562 237.01171875 428 c 0
 237.01171875 537.3359375 308.40625 594 385.396484375 594 c 0
 471.956054688 594 524.055664062 532.13671875 524.055664062 456.407226562 c 0
 524.055664062 428.604492188 513.270507812 395.643554688 493.9609375 370.436523438 c 1
 415.9609375 410.436523438 l 1
 423.944335938 419.560546875 430.580078125 439.108398438 430.580078125 451.1640625 c 0
 430.580078125 475 414.751953125 496 385.396484375 496 c 0
 356.870117188 496 334.640625 471.944335938 334.640625 434.311523438 c 0
 334.640625 428.6484375 335.143554688 422.678710938 336.205078125 416.436523438 c 1
 345.9609375 391.436523438 l 1
EndSplineSet
EndChar

StartChar: si_Lla
Encoding: 60 3525 48
Width: 540
VWidth: 0
Flags: HW
LayerCount: 4
Fore
SplineSet
33 133 m 4
 33 286 128.666015625 380.5 222.666015625 380.5 c 6
 466.666015625 380.5 l 5
 466.666015625 343.5 l 5
 222.666015625 343.5 l 6
 141.822265625 343.5 70 262.359375 70 133 c 4
 70 8.2666015625 134.573242188 -114 274 -114 c 4
 391 -114 453.674804688 -36.181640625 472 35.0009765625 c 5
 507 29.0009765625 l 5
 485.435546875 -57.5732421875 420 -150.999023438 274 -150.999023438 c 4
 106.826171875 -150.999023438 33 -11.0009765625 33 133 c 4
131 469 m 0
 131 532.33984375 158.498046875 591 225.666015625 591 c 0
 278.736328125 591 301.331054688 564.1875 310.666015625 526 c 1
 319.559570312 565 343.69140625 591 389.666015625 591 c 0
 452.227539062 591 479.916015625 530.349609375 479.916015625 449.471679688 c 0
 479.916015625 416.5859375 475.337890625 380.356445312 466.666015625 343.5 c 1
 446 354 l 1
 437.595703125 380 l 1
 442.2109375 403.732421875 445.3515625 430.404296875 445.3515625 455.600585938 c 0
 445.3515625 507.985351562 431.778320312 554 389.666015625 554 c 0
 344.908203125 554 332.962890625 509.3984375 329.796875 470 c 0
 328.76953125 457.21875 328.666015625 444.985351562 328.666015625 435 c 2
 328.666015625 354 l 1
 292.666015625 354 l 1
 292.666015625 435 l 2
 292.666015625 446.313476562 291.98828125 458.241210938 290.409179688 470 c 0
 284.6171875 513.1328125 266.704101562 554 225.666015625 554 c 0
 189.779296875 554 168 517.131835938 168 469 c 0
 168 436.174804688 184.799804688 380 212 380 c 1
 224 365 l 1
 213 347 l 1
 198.794921875 347 186.412109375 351.431640625 175.870117188 359 c 0
 146.08984375 380.379882812 131 426.788085938 131 469 c 0
157.017578125 286 m 0
 157.017578125 321.611328125 172.991210938 348.172851562 207.645507812 373 c 1
 223.311523438 343.5 l 1
 205.220703125 343.5 194.014648438 313.825195312 194.014648438 286 c 0
 194.014648438 239.090820312 227.307617188 200 305.977539062 200 c 0
 376.24609375 200 410.977539062 229.8359375 410.977539062 269 c 1
 448 269 l 1
 448 211.868164062 397.748046875 163 305.977539062 163 c 0
 201.311523438 163 157.017578125 219.977539062 157.017578125 286 c 0
EndSplineSet
Layer: 2
SplineSet
225.297851562 594 m 0
 266.297851562 594 291.297851562 575 308.5 546 c 5
 327.5 575 352.5 594 393.5 594 c 4
 480.5 594 535.5 491 484.5 318 c 1
 455.5 380 l 1
 417.5 416 l 1
 425.5 454 421.5 496 387.5 496 c 4
 353.5 496 350.297851562 456 350.297851562 414 c 6
 350.297851562 322 l 5
 271.5 322 l 1
 271.5 414 l 2
 271.5 458 258.5 496 231.5 496 c 0
 192.5 496 194.376953125 453.931640625 202.5 416 c 0
 207.043945312 394.780273438 207.34765625 378.247070312 206.5 350 c 0
 203.5 250 240.686523438 203 311.5 203 c 0
 351.993164062 203 381.844726562 233.75390625 385.1875 266 c 0
 385.39453125 267.997070312 385.5 272 385.5 272 c 2
 485.5 272 l 1
 485.5 267.004882812 485.264648438 261.997070312 484.7890625 257 c 0
 477.931640625 184.958007812 421.197265625 115 301.5 115 c 0
 188.5 115 118.500976562 203 130.5 299 c 0
 137.025390625 351.206054688 134.185546875 334.03515625 119.5 386 c 0
 93.5 478 107.5 594 225.297851562 594 c 0
7.5 133 m 0
 7.5 328.26953125 129.92578125 416 194.702148438 416 c 2
 481.5 416 l 1
 484.5 318 l 1
 223.5 318 l 2
 165.5 318 121.5 260 121.5 133 c 0
 121.5 39.9189453125 172.7109375 -39 278.5 -39 c 0
 353.6484375 -39 406.236328125 9.4287109375 415.063476562 73 c 1
 528.5 57 l 1
 516.165039062 -57.1005859375 425.583984375 -154 278.5 -154 c 0
 92.337890625 -154 7.5 -22.3154296875 7.5 133 c 0
EndSplineSet
Layer: 3
SplineSet
131.138671875 469 m 4
 131.138671875 532.33984375 154.240234375 591 225.666015625 591 c 4
 278.736328125 591 301.331054688 564.1875 310.666015625 526 c 5
 319.559570312 565 343.69140625 591 389.666015625 591 c 4
 452.227539062 591 479.916015625 530.349609375 479.916015625 449.471679688 c 4
 479.916015625 416.5859375 475.337890625 380.356445312 466.666015625 343.5 c 5
 446 354 l 5
 437.595703125 380 l 5
 442.2109375 403.732421875 445.3515625 430.404296875 445.3515625 455.600585938 c 4
 445.3515625 507.985351562 431.778320312 554 389.666015625 554 c 4
 344.908203125 554 332.962890625 509.3984375 329.796875 470 c 4
 328.76953125 457.21875 328.666015625 444.985351562 328.666015625 435 c 6
 328.666015625 354 l 5
 292.666015625 354 l 5
 292.666015625 435 l 6
 292.666015625 446.313476562 291.98828125 458.241210938 290.409179688 470 c 4
 284.6171875 513.1328125 266.704101562 554 225.666015625 554 c 4
 186.045898438 554 168.138671875 517.131835938 168.138671875 469 c 4
 168.138671875 443.486328125 173.169921875 413.67578125 182.666015625 387 c 4
 189.388671875 368.115234375 191.96875 341.517578125 191.96875 314 c 4
 191.96875 255 234.80859375 200 314.666015625 200 c 4
 383.364257812 200 415.9375 229.416015625 419.362304688 263 c 4
 419.565429688 264.987304688 419.666015625 266.989257812 419.666015625 269 c 5
 456.688476562 269 l 5
 456.688476562 266.331054688 456.568359375 263.662109375 456.328125 261 c 4
 451.798828125 210.796875 404.5625 163 314.666015625 163 c 4
 209 163 153.85546875 231 153.85546875 314 c 4
 153.85546875 345.840820312 157.069335938 349.556640625 147.666015625 376 c 4
 137.715820312 403.981445312 131.138671875 436.862304688 131.138671875 469 c 4
33 133 m 4
 33 286 128.666015625 380.5 222.666015625 380.5 c 6
 466.666015625 380.5 l 5
 466.666015625 343.5 l 5
 222.666015625 343.5 l 6
 141.822265625 343.5 70 262.359375 70 133 c 4
 70 -39 148.690429688 -112 278.5 -112 c 4
 395.5 -112 458.174804688 -34.6640625 476.5 37 c 5
 511.5 31 l 5
 489.935546875 -55.57421875 424.5 -149 278.5 -149 c 4
 116.666015625 -149 33 -51.72265625 33 133 c 4
EndSplineSet
EndChar

StartChar: si_Fa
Encoding: 61 3526 49
Width: 571
VWidth: 0
Flags: HW
LayerCount: 4
Fore
SplineSet
33 292 m 0
 33 460.068359375 54.216796875 591 167.978515625 591 c 0
 263.14453125 591 282.14453125 509 285.978515625 479 c 1
 289.8125 509 308.8125 591 403.978515625 591 c 0
 517.740234375 591 538.95703125 460.068359375 538.95703125 292 c 0
 538.95703125 126 489.740234375 3 338.740234375 3 c 1
 338.740234375 40 l 1
 461.8359375 40 501.95703125 147.252929688 501.95703125 292 c 0
 501.95703125 439.270507812 481.740234375 554 403.978515625 554 c 0
 312.8125 554 306.220703125 445.114257812 302.978515625 369.5 c 1
 268.978515625 369.5 l 1
 265.736328125 445.114257812 259.14453125 554 167.978515625 554 c 0
 90.216796875 554 70 439.270507812 70 292 c 0
 70 147.252929688 110.12109375 40 233.216796875 40 c 1
 233.216796875 3 l 1
 82.216796875 3 33 126 33 292 c 0
EndSplineSet
Layer: 2
SplineSet
398.21484375 594 m 6
 398.215820312 594 l 6
 544.215820312 594 563.215820312 426 563.215820312 295 c 4
 563.215820312 90 486.215820312 0 333.215820312 0 c 5
 333.215820312 115 l 5
 456.215820312 115 456.215820312 243.274414062 456.215820312 295 c 4
 456.215820312 344.735351562 456.215820312 479 398.215820312 479 c 4
 351.515625 479 335.584960938 417.25 335.584960938 344.5 c 5
 244.372070312 344.5 l 5
 244.372070312 417.25 228.44140625 479 181.741210938 479 c 4
 123.741210938 479 123.741210938 344.735351562 123.741210938 295 c 4
 123.741210938 243.274414062 123.741210938 115 246.741210938 115 c 5
 246.741210938 0 l 5
 93.7412109375 0 16.7412109375 90 16.7412109375 295 c 4
 16.7412109375 426 35.7412109375 594 181.741210938 594 c 4
 234.420898438 594 273.833007812 562.397460938 289.978515625 514.969726562 c 5
 306.123046875 562.397460938 345.53515625 594 398.21484375 594 c 6
EndSplineSet
EndChar

StartChar: si_MatraAa
Encoding: 63 3535 50
Width: 232
VWidth: 0
Flags: HW
LayerCount: 4
Fore
SplineSet
-0.3408203125 530 m 1
 18.2373046875 536.033203125 36.4658203125 539 53.9033203125 539 c 0
 135.201171875 539 199 444.694335938 199 271 c 0
 199 97.3056640625 135.201171875 3 53.9033203125 3 c 0
 36.4658203125 3 18.2373046875 5.966796875 -0.3408203125 12 c 1
 5.6591796875 48 l 1
 16.091796875 44.6396484375 34.8701171875 40 53.9033203125 40 c 0
 114.469726562 40 162 121.286132812 162 271 c 0
 162 420.713867188 114.469726562 502 53.9033203125 502 c 0
 34.8701171875 502 16.091796875 497.360351562 5.6591796875 494 c 1
 -0.3408203125 530 l 1
EndSplineSet
Layer: 2
SplineSet
225.181640625 271 m 4
 225.181640625 510.697265625 93.3408203125 562 -7.6591796875 542 c 4
 10.3408203125 441 l 4
 56.3408203125 450 110.181640625 419.176757812 110.181640625 271 c 4
 110.181640625 122.823242188 56.3408203125 92 10.3408203125 101 c 4
 -7.6591796875 0 l 4
 93.3408203125 -20 225.181640625 31.302734375 225.181640625 271 c 4
EndSplineSet
EndChar

StartChar: si_MatraAe
Encoding: 64 3536 51
Width: 277
VWidth: 0
Flags: HW
LayerCount: 4
Fore
SplineSet
0 158 m 0
 0 260 64.431640625 334 185 506 c 1
 47.5 506 l 1
 47.5 543 l 1
 231.5 543 l 1
 231.5 506 l 1
 104.762695312 325 37 250 37 158 c 0
 37 79 76 40 139 40 c 0
 219.44921875 40 235 126 235 176 c 1
 272 176 l 1
 272 109 255.755859375 3 139 3 c 0
 53.1474609375 3 0 54.228515625 0 158 c 0
EndSplineSet
Layer: 2
SplineSet
22 546 m 5
 257 546 l 5
 257 451 l 5
 140 295 94 243 94 167 c 4
 94 125 117 111 142 111 c 4
 165 111 194 123 194 179 c 5
 290 179 l 5
 290 101 260 0 138 0 c 4
 19 0 -14 104 -14 167 c 4
 -14 268 52 341 130 447 c 5
 22 447 l 5
 22 546 l 5
EndSplineSet
EndChar

